STARTFONT 2.3
FONT -FontForge-Source Code Pro-Book-R-Normal--10-100-72-72-M-60-ISO10646-1
SIZE 10 72 72  2
FONTBOUNDINGBOX 10 17 -2 -5
COMMENT "Generated by fontforge, http://fontforge.sourceforge.net"
COMMENT "Copyright 2010, 2012 Adobe Systems Incorporated (http://www.adobe.com/), with Reserved Font Name `Source'."
STARTPROPERTIES 41
FOUNDRY "FontForge"
FAMILY_NAME "Source Code Pro"
WEIGHT_NAME "Book"
SLANT "R"
SETWIDTH_NAME "Normal"
ADD_STYLE_NAME ""
PIXEL_SIZE 10
POINT_SIZE 100
RESOLUTION_X 72
RESOLUTION_Y 72
SPACING "M"
AVERAGE_WIDTH 60
CHARSET_REGISTRY "ISO10646"
CHARSET_ENCODING "1"
FONTNAME_REGISTRY ""
CHARSET_COLLECTIONS "ASCII ISOLatin1Encoding ISO8859-2 ISO8859-5 ISO8859-7 ISO8859-9 ISO8859-4 ISO10646-1"
BITS_PER_PIXEL 2
FONT_NAME "SourceCodePro-Regular"
FACE_NAME "Source Code Pro"
COPYRIGHT "Copyright 2010, 2012 Adobe Systems Incorporated (http://www.adobe.com/), with Reserved Font Name `Source'."
FONT_VERSION "2.030;PS 1.000;hotconv 16.6.51;makeotf.lib2.5.65220"
FONT_ASCENT 8
FONT_DESCENT 2
UNDERLINE_POSITION -1
UNDERLINE_THICKNESS 1
X_HEIGHT 4
CAP_HEIGHT 6
RAW_ASCENT 750
RAW_DESCENT 250
NORM_SPACE 6
RELATIVE_WEIGHT 40
RELATIVE_SETWIDTH 50
SUPERSCRIPT_X 0
SUPERSCRIPT_Y 3
SUPERSCRIPT_SIZE 6
SUBSCRIPT_X 0
SUBSCRIPT_Y 0
SUBSCRIPT_SIZE 6
FIGURE_WIDTH 6
AVG_LOWERCASE_WIDTH 60
AVG_UPPERCASE_WIDTH 60
ENDPROPERTIES
CHARS 1564
STARTCHAR space
ENCODING 32
SWIDTH 600 0
DWIDTH 6 0
BBX 1 1 0 0
BITMAP
00
ENDCHAR
STARTCHAR exclam
ENCODING 33
SWIDTH 600 0
DWIDTH 6 0
BBX 2 7 2 0
BITMAP
50
50
50
50
00
A0
A0
ENDCHAR
STARTCHAR quotedbl
ENCODING 34
SWIDTH 600 0
DWIDTH 6 0
BBX 4 3 1 4
BITMAP
96
96
55
ENDCHAR
STARTCHAR numbersign
ENCODING 35
SWIDTH 600 0
DWIDTH 6 0
BBX 4 6 1 0
BITMAP
22
E6
55
EA
48
88
ENDCHAR
STARTCHAR dollar
ENCODING 36
SWIDTH 600 0
DWIDTH 6 0
BBX 4 8 1 -1
BITMAP
14
7D
81
64
0A
42
7D
14
ENDCHAR
STARTCHAR percent
ENCODING 37
SWIDTH 600 0
DWIDTH 6 0
BBX 6 6 0 0
BITMAP
7850
8880
7800
02D0
2220
52D0
ENDCHAR
STARTCHAR ampersand
ENCODING 38
SWIDTH 600 0
DWIDTH 6 0
BBX 6 7 0 0
BITMAP
1E00
2200
2600
2810
5590
A280
2E60
ENDCHAR
STARTCHAR quotesingle
ENCODING 39
SWIDTH 600 0
DWIDTH 6 0
BBX 2 3 2 4
BITMAP
A0
50
50
ENDCHAR
STARTCHAR parenleft
ENCODING 40
SWIDTH 600 0
DWIDTH 6 0
BBX 3 9 2 -2
BITMAP
14
20
90
80
80
80
90
20
14
ENDCHAR
STARTCHAR parenright
ENCODING 41
SWIDTH 600 0
DWIDTH 6 0
BBX 3 9 1 -2
BITMAP
50
20
18
08
08
08
18
20
50
ENDCHAR
STARTCHAR asterisk
ENCODING 42
SWIDTH 600 0
DWIDTH 6 0
BBX 4 5 1 1
BITMAP
14
55
7D
28
55
ENDCHAR
STARTCHAR plus
ENCODING 43
SWIDTH 600 0
DWIDTH 6 0
BBX 4 5 1 1
BITMAP
14
14
FF
14
14
ENDCHAR
STARTCHAR comma
ENCODING 44
SWIDTH 600 0
DWIDTH 6 0
BBX 2 4 2 -2
BITMAP
A0
B0
20
90
ENDCHAR
STARTCHAR hyphen
ENCODING 45
SWIDTH 600 0
DWIDTH 6 0
BBX 4 1 1 3
BITMAP
FF
ENDCHAR
STARTCHAR period
ENCODING 46
SWIDTH 600 0
DWIDTH 6 0
BBX 2 2 2 0
BITMAP
A0
A0
ENDCHAR
STARTCHAR slash
ENCODING 47
SWIDTH 600 0
DWIDTH 6 0
BBX 4 9 1 -2
BITMAP
02
05
08
08
14
20
20
50
80
ENDCHAR
STARTCHAR zero
ENCODING 48
SWIDTH 600 0
DWIDTH 6 0
BBX 6 6 0 0
BITMAP
1F40
35C0
6590
6090
30C0
1F40
ENDCHAR
STARTCHAR one
ENCODING 49
SWIDTH 600 0
DWIDTH 6 0
BBX 5 6 1 0
BITMAP
6800
1800
1800
1800
1800
FF40
ENDCHAR
STARTCHAR two
ENCODING 50
SWIDTH 600 0
DWIDTH 6 0
BBX 6 6 0 0
BITMAP
1F40
1080
0180
0600
1800
7FD0
ENDCHAR
STARTCHAR three
ENCODING 51
SWIDTH 600 0
DWIDTH 6 0
BBX 5 6 0 0
BITMAP
1F40
1180
0F40
0180
50C0
2F40
ENDCHAR
STARTCHAR four
ENCODING 52
SWIDTH 600 0
DWIDTH 6 0
BBX 6 6 0 0
BITMAP
0340
0A40
2140
BFD0
0140
0140
ENDCHAR
STARTCHAR five
ENCODING 53
SWIDTH 600 0
DWIDTH 6 0
BBX 5 6 0 0
BITMAP
2FC0
2000
3F80
0080
5080
2F40
ENDCHAR
STARTCHAR six
ENCODING 54
SWIDTH 600 0
DWIDTH 6 0
BBX 6 6 0 0
BITMAP
1B80
2440
6B80
7490
2090
1F80
ENDCHAR
STARTCHAR seven
ENCODING 55
SWIDTH 600 0
DWIDTH 6 0
BBX 6 6 0 0
BITMAP
7FD0
0080
0200
0600
0900
0900
ENDCHAR
STARTCHAR eight
ENCODING 56
SWIDTH 600 0
DWIDTH 6 0
BBX 6 6 0 0
BITMAP
2F40
24C0
2F80
6180
6090
2F80
ENDCHAR
STARTCHAR nine
ENCODING 57
SWIDTH 600 0
DWIDTH 6 0
BBX 6 6 0 0
BITMAP
2F40
6080
61D0
2E90
1180
2E40
ENDCHAR
STARTCHAR colon
ENCODING 58
SWIDTH 600 0
DWIDTH 6 0
BBX 2 6 2 0
BITMAP
A0
A0
00
00
A0
A0
ENDCHAR
STARTCHAR semicolon
ENCODING 59
SWIDTH 600 0
DWIDTH 6 0
BBX 2 8 2 -2
BITMAP
A0
A0
00
00
A0
B0
20
90
ENDCHAR
STARTCHAR less
ENCODING 60
SWIDTH 600 0
DWIDTH 6 0
BBX 4 7 1 0
BITMAP
02
09
64
90
64
09
02
ENDCHAR
STARTCHAR equal
ENCODING 61
SWIDTH 600 0
DWIDTH 6 0
BBX 4 3 1 2
BITMAP
FF
00
FF
ENDCHAR
STARTCHAR greater
ENCODING 62
SWIDTH 600 0
DWIDTH 6 0
BBX 4 7 1 0
BITMAP
80
60
19
06
19
60
80
ENDCHAR
STARTCHAR question
ENCODING 63
SWIDTH 600 0
DWIDTH 6 0
BBX 4 7 1 0
BITMAP
7D
46
05
14
00
24
24
ENDCHAR
STARTCHAR at
ENCODING 64
SWIDTH 600 0
DWIDTH 6 0
BBX 6 9 0 -2
BITMAP
0B80
2450
6190
5650
4850
5790
6000
2440
0B80
ENDCHAR
STARTCHAR A
ENCODING 65
SWIDTH 600 0
DWIDTH 6 0
BBX 6 7 0 0
BITMAP
0A00
0A00
1540
2180
3FC0
6090
9060
ENDCHAR
STARTCHAR B
ENCODING 66
SWIDTH 600 0
DWIDTH 6 0
BBX 5 7 1 0
BITMAP
FD00
8300
8200
FE00
8240
8240
FE00
ENDCHAR
STARTCHAR C
ENCODING 67
SWIDTH 600 0
DWIDTH 6 0
BBX 6 7 0 0
BITMAP
0B80
2440
6000
6000
6000
2450
0B80
ENDCHAR
STARTCHAR D
ENCODING 68
SWIDTH 600 0
DWIDTH 6 0
BBX 5 7 1 0
BITMAP
F900
8700
8140
8140
8240
8700
F900
ENDCHAR
STARTCHAR E
ENCODING 69
SWIDTH 600 0
DWIDTH 6 0
BBX 5 7 1 0
BITMAP
FF40
C000
C000
FE00
C000
C000
FF40
ENDCHAR
STARTCHAR F
ENCODING 70
SWIDTH 600 0
DWIDTH 6 0
BBX 5 7 1 0
BITMAP
BF40
9000
9000
BF00
9000
9000
9000
ENDCHAR
STARTCHAR G
ENCODING 71
SWIDTH 600 0
DWIDTH 6 0
BBX 6 7 0 0
BITMAP
1B80
3440
6000
52D0
6050
3490
1B80
ENDCHAR
STARTCHAR H
ENCODING 72
SWIDTH 600 0
DWIDTH 6 0
BBX 6 7 0 0
BITMAP
6090
6090
6090
7FD0
6090
6090
6090
ENDCHAR
STARTCHAR I
ENCODING 73
SWIDTH 600 0
DWIDTH 6 0
BBX 4 7 1 0
BITMAP
FF
14
14
14
14
14
FF
ENDCHAR
STARTCHAR J
ENCODING 74
SWIDTH 600 0
DWIDTH 6 0
BBX 4 7 1 0
BITMAP
BF
03
03
03
03
86
7D
ENDCHAR
STARTCHAR K
ENCODING 75
SWIDTH 600 0
DWIDTH 6 0
BBX 5 7 1 0
BITMAP
8240
8900
9800
E800
C500
8200
8180
ENDCHAR
STARTCHAR L
ENCODING 76
SWIDTH 600 0
DWIDTH 6 0
BBX 5 7 1 0
BITMAP
8000
8000
8000
8000
8000
8000
BF40
ENDCHAR
STARTCHAR M
ENCODING 77
SWIDTH 600 0
DWIDTH 6 0
BBX 6 7 0 0
BITMAP
70D0
75D0
6A90
5A90
6990
6090
6090
ENDCHAR
STARTCHAR N
ENCODING 78
SWIDTH 600 0
DWIDTH 6 0
BBX 6 7 0 0
BITMAP
7090
7490
6890
6590
6290
61D0
60D0
ENDCHAR
STARTCHAR O
ENCODING 79
SWIDTH 600 0
DWIDTH 6 0
BBX 6 7 0 0
BITMAP
1F40
30C0
5050
5050
5050
30C0
1F40
ENDCHAR
STARTCHAR P
ENCODING 80
SWIDTH 600 0
DWIDTH 6 0
BBX 5 7 1 0
BITMAP
FE00
8240
8240
FE00
8000
8000
8000
ENDCHAR
STARTCHAR Q
ENCODING 81
SWIDTH 600 0
DWIDTH 6 0
BBX 6 9 0 -2
BITMAP
1F40
30C0
5050
5050
5050
30C0
1F40
0600
01D0
ENDCHAR
STARTCHAR R
ENCODING 82
SWIDTH 600 0
DWIDTH 6 0
BBX 5 7 1 0
BITMAP
FE00
8240
8240
FE00
8900
8600
8240
ENDCHAR
STARTCHAR S
ENCODING 83
SWIDTH 600 0
DWIDTH 6 0
BBX 5 7 1 0
BITMAP
7D00
C100
9000
2D00
0240
8240
7E00
ENDCHAR
STARTCHAR T
ENCODING 84
SWIDTH 600 0
DWIDTH 6 0
BBX 6 7 0 0
BITMAP
BFE0
0500
0500
0500
0500
0500
0500
ENDCHAR
STARTCHAR U
ENCODING 85
SWIDTH 600 0
DWIDTH 6 0
BBX 6 7 0 0
BITMAP
6090
6090
6090
6090
6080
30C0
1F40
ENDCHAR
STARTCHAR V
ENCODING 86
SWIDTH 600 0
DWIDTH 6 0
BBX 6 7 0 0
BITMAP
5050
2080
2080
2580
1A40
0A00
0A00
ENDCHAR
STARTCHAR W
ENCODING 87
SWIDTH 600 0
DWIDTH 6 0
BBX 6 7 0 0
BITMAP
C030
9020
9A60
5A50
6A90
35C0
35C0
ENDCHAR
STARTCHAR X
ENCODING 88
SWIDTH 600 0
DWIDTH 6 0
BBX 6 7 0 0
BITMAP
2080
2580
0A00
0A00
0A00
2580
6090
ENDCHAR
STARTCHAR Y
ENCODING 89
SWIDTH 600 0
DWIDTH 6 0
BBX 6 7 0 0
BITMAP
6050
2080
1540
0A00
0500
0500
0500
ENDCHAR
STARTCHAR Z
ENCODING 90
SWIDTH 600 0
DWIDTH 6 0
BBX 6 7 0 0
BITMAP
3FD0
0080
0240
0500
1800
2000
7FD0
ENDCHAR
STARTCHAR bracketleft
ENCODING 91
SWIDTH 600 0
DWIDTH 6 0
BBX 3 9 2 -2
BITMAP
BC
80
80
80
80
80
80
80
BC
ENDCHAR
STARTCHAR backslash
ENCODING 92
SWIDTH 600 0
DWIDTH 6 0
BBX 4 9 1 -2
BITMAP
80
50
20
20
14
08
08
05
02
ENDCHAR
STARTCHAR bracketright
ENCODING 93
SWIDTH 600 0
DWIDTH 6 0
BBX 3 9 1 -2
BITMAP
F8
08
08
08
08
08
08
08
F8
ENDCHAR
STARTCHAR asciicircum
ENCODING 94
SWIDTH 600 0
DWIDTH 6 0
BBX 4 4 1 3
BITMAP
28
28
55
82
ENDCHAR
STARTCHAR underscore
ENCODING 95
SWIDTH 600 0
DWIDTH 6 0
BBX 6 1 0 -2
BITMAP
7FD0
ENDCHAR
STARTCHAR grave
ENCODING 96
SWIDTH 600 0
DWIDTH 6 0
BBX 2 2 2 6
BITMAP
80
50
ENDCHAR
STARTCHAR a
ENCODING 97
SWIDTH 600 0
DWIDTH 6 0
BBX 4 5 1 0
BITMAP
7E
43
6F
96
BA
ENDCHAR
STARTCHAR b
ENCODING 98
SWIDTH 600 0
DWIDTH 6 0
BBX 5 7 1 0
BITMAP
8000
8000
AE00
D240
8140
D240
AD00
ENDCHAR
STARTCHAR c
ENCODING 99
SWIDTH 600 0
DWIDTH 6 0
BBX 4 5 1 0
BITMAP
6E
D1
80
D1
6E
ENDCHAR
STARTCHAR d
ENCODING 100
SWIDTH 600 0
DWIDTH 6 0
BBX 5 7 0 0
BITMAP
0080
0080
1EC0
60C0
5080
61C0
2E80
ENDCHAR
STARTCHAR e
ENCODING 101
SWIDTH 600 0
DWIDTH 6 0
BBX 6 5 0 0
BITMAP
1F40
2090
7FD0
2440
1F80
ENDCHAR
STARTCHAR f
ENCODING 102
SWIDTH 600 0
DWIDTH 6 0
BBX 5 7 1 0
BITMAP
0B80
2400
FF40
2400
2400
2400
2400
ENDCHAR
STARTCHAR g
ENCODING 103
SWIDTH 600 0
DWIDTH 6 0
BBX 6 7 0 -2
BITMAP
1FE0
3080
2A80
2500
2FD0
6060
2F80
ENDCHAR
STARTCHAR h
ENCODING 104
SWIDTH 600 0
DWIDTH 6 0
BBX 5 7 1 0
BITMAP
8000
8000
AE00
D240
8240
8240
8240
ENDCHAR
STARTCHAR i
ENCODING 105
SWIDTH 600 0
DWIDTH 6 0
BBX 3 7 1 0
BITMAP
0C
00
FC
08
08
08
08
ENDCHAR
STARTCHAR j
ENCODING 106
SWIDTH 600 0
DWIDTH 6 0
BBX 4 9 0 -2
BITMAP
03
00
3F
02
02
02
02
03
7D
ENDCHAR
STARTCHAR k
ENCODING 107
SWIDTH 600 0
DWIDTH 6 0
BBX 5 7 1 0
BITMAP
8000
8000
8200
8900
E800
D600
8240
ENDCHAR
STARTCHAR l
ENCODING 108
SWIDTH 600 0
DWIDTH 6 0
BBX 6 7 0 0
BITMAP
7D00
0900
0900
0900
0900
0900
07D0
ENDCHAR
STARTCHAR m
ENCODING 109
SWIDTH 600 0
DWIDTH 6 0
BBX 6 5 0 0
BITMAP
6ED0
6660
5560
5560
5560
ENDCHAR
STARTCHAR n
ENCODING 110
SWIDTH 600 0
DWIDTH 6 0
BBX 5 5 1 0
BITMAP
AE00
D240
8240
8240
8240
ENDCHAR
STARTCHAR o
ENCODING 111
SWIDTH 600 0
DWIDTH 6 0
BBX 6 5 0 0
BITMAP
1F40
6090
5050
6090
1F40
ENDCHAR
STARTCHAR p
ENCODING 112
SWIDTH 600 0
DWIDTH 6 0
BBX 5 7 1 -2
BITMAP
AE00
D240
8140
D240
ED00
8000
8000
ENDCHAR
STARTCHAR q
ENCODING 113
SWIDTH 600 0
DWIDTH 6 0
BBX 5 7 0 -2
BITMAP
1E80
61C0
5080
61C0
2E80
0080
0080
ENDCHAR
STARTCHAR r
ENCODING 114
SWIDTH 600 0
DWIDTH 6 0
BBX 5 5 1 0
BITMAP
9B40
A400
9000
9000
9000
ENDCHAR
STARTCHAR s
ENCODING 115
SWIDTH 600 0
DWIDTH 6 0
BBX 5 5 1 0
BITMAP
7D00
C100
6900
4240
7E00
ENDCHAR
STARTCHAR t
ENCODING 116
SWIDTH 600 0
DWIDTH 6 0
BBX 6 7 0 0
BITMAP
0800
0800
7FD0
0800
0800
0C00
07D0
ENDCHAR
STARTCHAR u
ENCODING 117
SWIDTH 600 0
DWIDTH 6 0
BBX 5 5 0 0
BITMAP
6080
6080
6080
61C0
2E80
ENDCHAR
STARTCHAR v
ENCODING 118
SWIDTH 600 0
DWIDTH 6 0
BBX 6 5 0 0
BITMAP
6050
2080
1540
0A00
0A00
ENDCHAR
STARTCHAR w
ENCODING 119
SWIDTH 600 0
DWIDTH 6 0
BBX 6 5 0 0
BITMAP
8520
9A20
5A50
6A90
35C0
ENDCHAR
STARTCHAR x
ENCODING 120
SWIDTH 600 0
DWIDTH 6 0
BBX 4 5 1 0
BITMAP
82
69
28
69
82
ENDCHAR
STARTCHAR y
ENCODING 121
SWIDTH 600 0
DWIDTH 6 0
BBX 6 7 0 -2
BITMAP
6050
2080
1580
0A00
0A00
0900
7800
ENDCHAR
STARTCHAR z
ENCODING 122
SWIDTH 600 0
DWIDTH 6 0
BBX 6 5 0 0
BITMAP
3FD0
0140
0500
2400
7FD0
ENDCHAR
STARTCHAR braceleft
ENCODING 123
SWIDTH 600 0
DWIDTH 6 0
BBX 4 9 1 -2
BITMAP
1F
14
14
24
B0
24
14
14
1F
ENDCHAR
STARTCHAR bar
ENCODING 124
SWIDTH 600 0
DWIDTH 6 0
BBX 2 10 2 -3
BITMAP
50
50
50
50
50
50
50
50
50
50
ENDCHAR
STARTCHAR braceright
ENCODING 125
SWIDTH 600 0
DWIDTH 6 0
BBX 4 9 1 -2
BITMAP
F4
14
14
18
0E
18
14
14
F4
ENDCHAR
STARTCHAR asciitilde
ENCODING 126
SWIDTH 600 0
DWIDTH 6 0
BBX 4 2 1 2
BITMAP
B5
9E
ENDCHAR
STARTCHAR uni00A0
ENCODING 160
SWIDTH 600 0
DWIDTH 6 0
BBX 1 1 0 0
BITMAP
00
ENDCHAR
STARTCHAR exclamdown
ENCODING 161
SWIDTH 600 0
DWIDTH 6 0
BBX 2 7 2 -2
BITMAP
A0
A0
00
50
50
50
50
ENDCHAR
STARTCHAR cent
ENCODING 162
SWIDTH 600 0
DWIDTH 6 0
BBX 4 7 1 0
BITMAP
08
2E
99
88
99
2E
08
ENDCHAR
STARTCHAR sterling
ENCODING 163
SWIDTH 600 0
DWIDTH 6 0
BBX 6 6 0 0
BITMAP
1B80
1440
7F40
0800
1400
7FD0
ENDCHAR
STARTCHAR currency
ENCODING 164
SWIDTH 600 0
DWIDTH 6 0
BBX 4 4 1 1
BITMAP
BE
82
82
BE
ENDCHAR
STARTCHAR yen
ENCODING 165
SWIDTH 600 0
DWIDTH 6 0
BBX 6 6 0 0
BITMAP
6080
1540
1A40
6F90
1A40
6F90
ENDCHAR
STARTCHAR brokenbar
ENCODING 166
SWIDTH 600 0
DWIDTH 6 0
BBX 2 10 2 -3
BITMAP
50
50
50
50
00
00
50
50
50
50
ENDCHAR
STARTCHAR section
ENCODING 167
SWIDTH 600 0
DWIDTH 6 0
BBX 4 8 1 -1
BITMAP
3D
50
A4
86
92
19
45
7C
ENDCHAR
STARTCHAR dieresis
ENCODING 168
SWIDTH 600 0
DWIDTH 6 0
BBX 4 1 1 6
BITMAP
55
ENDCHAR
STARTCHAR copyright
ENCODING 169
SWIDTH 600 0
DWIDTH 6 0
BBX 6 6 0 0
BITMAP
1F40
6090
5F10
5F10
6090
1F40
ENDCHAR
STARTCHAR ordfeminine
ENCODING 170
SWIDTH 600 0
DWIDTH 6 0
BBX 4 3 1 4
BITMAP
2D
3D
79
ENDCHAR
STARTCHAR guillemotleft
ENCODING 171
SWIDTH 600 0
DWIDTH 6 0
BBX 4 4 1 1
BITMAP
52
89
89
52
ENDCHAR
STARTCHAR logicalnot
ENCODING 172
SWIDTH 600 0
DWIDTH 6 0
BBX 4 3 1 1
BITMAP
FF
02
01
ENDCHAR
STARTCHAR uni00AD
ENCODING 173
SWIDTH 600 0
DWIDTH 6 0
BBX 4 1 1 3
BITMAP
FF
ENDCHAR
STARTCHAR registered
ENCODING 174
SWIDTH 600 0
DWIDTH 6 0
BBX 4 4 1 3
BITMAP
69
96
96
7D
ENDCHAR
STARTCHAR macron
ENCODING 175
SWIDTH 600 0
DWIDTH 6 0
BBX 4 1 1 6
BITMAP
7D
ENDCHAR
STARTCHAR degree
ENCODING 176
SWIDTH 600 0
DWIDTH 6 0
BBX 4 3 1 4
BITMAP
28
55
28
ENDCHAR
STARTCHAR plusminus
ENCODING 177
SWIDTH 600 0
DWIDTH 6 0
BBX 4 6 1 0
BITMAP
14
14
FF
14
00
FF
ENDCHAR
STARTCHAR two.sups
ENCODING 178
SWIDTH 600 0
DWIDTH 6 0
BBX 4 4 1 4
BITMAP
3C
48
14
7D
ENDCHAR
STARTCHAR three.sups
ENCODING 179
SWIDTH 600 0
DWIDTH 6 0
BBX 4 4 1 4
BITMAP
2C
2C
45
3C
ENDCHAR
STARTCHAR acute
ENCODING 180
SWIDTH 600 0
DWIDTH 6 0
BBX 2 2 2 6
BITMAP
20
50
ENDCHAR
STARTCHAR uni00B5
ENCODING 181
SWIDTH 600 0
DWIDTH 6 0
BBX 5 7 1 -2
BITMAP
8200
8200
8200
C700
FA40
8000
8000
ENDCHAR
STARTCHAR paragraph
ENCODING 182
SWIDTH 600 0
DWIDTH 6 0
BBX 5 7 0 0
BITMAP
2D80
3E80
7E80
2E80
0480
0080
0080
ENDCHAR
STARTCHAR periodcentered
ENCODING 183
SWIDTH 600 0
DWIDTH 6 0
BBX 2 2 2 3
BITMAP
A0
A0
ENDCHAR
STARTCHAR cedilla
ENCODING 184
SWIDTH 600 0
DWIDTH 6 0
BBX 2 4 2 -4
BITMAP
50
A0
20
90
ENDCHAR
STARTCHAR one.sups
ENCODING 185
SWIDTH 600 0
DWIDTH 6 0
BBX 4 4 1 4
BITMAP
28
08
08
7E
ENDCHAR
STARTCHAR ordmasculine
ENCODING 186
SWIDTH 600 0
DWIDTH 6 0
BBX 4 3 1 4
BITMAP
7D
96
7D
ENDCHAR
STARTCHAR guillemotright
ENCODING 187
SWIDTH 600 0
DWIDTH 6 0
BBX 4 4 1 1
BITMAP
85
62
62
85
ENDCHAR
STARTCHAR onequarter
ENCODING 188
SWIDTH 600 0
DWIDTH 6 0
BBX 6 6 0 0
BITMAP
7050
2080
2000
0040
2250
53E0
ENDCHAR
STARTCHAR onehalf
ENCODING 189
SWIDTH 600 0
DWIDTH 6 0
BBX 6 6 0 0
BITMAP
7050
2080
2000
01D0
2140
52E0
ENDCHAR
STARTCHAR threequarters
ENCODING 190
SWIDTH 600 0
DWIDTH 6 0
BBX 6 6 0 0
BITMAP
7420
7480
7800
0040
1650
53E0
ENDCHAR
STARTCHAR questiondown
ENCODING 191
SWIDTH 600 0
DWIDTH 6 0
BBX 4 7 1 -2
BITMAP
18
18
00
14
50
91
7D
ENDCHAR
STARTCHAR Agrave
ENCODING 192
SWIDTH 600 0
DWIDTH 6 0
BBX 6 9 0 0
BITMAP
0800
0500
0A00
0A00
1540
2180
3FC0
6090
9060
ENDCHAR
STARTCHAR Aacute
ENCODING 193
SWIDTH 600 0
DWIDTH 6 0
BBX 6 9 0 0
BITMAP
0200
0500
0A00
0A00
1540
2180
3FC0
6090
9060
ENDCHAR
STARTCHAR Acircumflex
ENCODING 194
SWIDTH 600 0
DWIDTH 6 0
BBX 6 8 0 0
BITMAP
0500
0A00
0A00
1540
2180
3FC0
6090
9060
ENDCHAR
STARTCHAR Atilde
ENCODING 195
SWIDTH 600 0
DWIDTH 6 0
BBX 6 9 0 0
BITMAP
1D80
2740
0A00
0A00
1540
2180
3FC0
6090
9060
ENDCHAR
STARTCHAR Adieresis
ENCODING 196
SWIDTH 600 0
DWIDTH 6 0
BBX 6 8 0 0
BITMAP
1540
0A00
0A00
1540
2180
3FC0
6090
9060
ENDCHAR
STARTCHAR Aring
ENCODING 197
SWIDTH 600 0
DWIDTH 6 0
BBX 6 10 0 0
BITMAP
0A00
0A00
0A00
0A00
0A00
1540
2180
3FC0
6090
9060
ENDCHAR
STARTCHAR AE
ENCODING 198
SWIDTH 600 0
DWIDTH 6 0
BBX 6 7 0 0
BITMAP
0BE0
0A00
1600
22D0
3F00
5200
82F0
ENDCHAR
STARTCHAR Ccedilla
ENCODING 199
SWIDTH 600 0
DWIDTH 6 0
BBX 6 11 0 -4
BITMAP
0B80
2440
6000
6000
6000
2450
0B80
0200
0300
0240
0600
ENDCHAR
STARTCHAR Egrave
ENCODING 200
SWIDTH 600 0
DWIDTH 6 0
BBX 5 9 1 0
BITMAP
2000
0800
FF40
C000
C000
FE00
C000
C000
FF40
ENDCHAR
STARTCHAR Eacute
ENCODING 201
SWIDTH 600 0
DWIDTH 6 0
BBX 5 9 1 0
BITMAP
0500
0800
FF40
C000
C000
FE00
C000
C000
FF40
ENDCHAR
STARTCHAR Ecircumflex
ENCODING 202
SWIDTH 600 0
DWIDTH 6 0
BBX 5 8 1 0
BITMAP
1500
FF40
C000
C000
FE00
C000
C000
FF40
ENDCHAR
STARTCHAR Edieresis
ENCODING 203
SWIDTH 600 0
DWIDTH 6 0
BBX 5 8 1 0
BITMAP
2200
FF40
C000
C000
FE00
C000
C000
FF40
ENDCHAR
STARTCHAR Igrave
ENCODING 204
SWIDTH 600 0
DWIDTH 6 0
BBX 4 9 1 0
BITMAP
20
14
FF
14
14
14
14
14
FF
ENDCHAR
STARTCHAR Iacute
ENCODING 205
SWIDTH 600 0
DWIDTH 6 0
BBX 4 9 1 0
BITMAP
08
14
FF
14
14
14
14
14
FF
ENDCHAR
STARTCHAR Icircumflex
ENCODING 206
SWIDTH 600 0
DWIDTH 6 0
BBX 4 8 1 0
BITMAP
14
FF
14
14
14
14
14
FF
ENDCHAR
STARTCHAR Idieresis
ENCODING 207
SWIDTH 600 0
DWIDTH 6 0
BBX 4 8 1 0
BITMAP
55
FF
14
14
14
14
14
FF
ENDCHAR
STARTCHAR Eth
ENCODING 208
SWIDTH 600 0
DWIDTH 6 0
BBX 6 7 0 0
BITMAP
3E40
21C0
2090
FC50
2090
21C0
3E40
ENDCHAR
STARTCHAR Ntilde
ENCODING 209
SWIDTH 600 0
DWIDTH 6 0
BBX 6 9 0 0
BITMAP
1D80
2740
7090
7490
6890
6590
6290
61D0
60D0
ENDCHAR
STARTCHAR Ograve
ENCODING 210
SWIDTH 600 0
DWIDTH 6 0
BBX 6 9 0 0
BITMAP
0800
0500
1F40
30C0
5050
5050
5050
30C0
1F40
ENDCHAR
STARTCHAR Oacute
ENCODING 211
SWIDTH 600 0
DWIDTH 6 0
BBX 6 9 0 0
BITMAP
0200
0500
1F40
30C0
5050
5050
5050
30C0
1F40
ENDCHAR
STARTCHAR Ocircumflex
ENCODING 212
SWIDTH 600 0
DWIDTH 6 0
BBX 6 8 0 0
BITMAP
0500
1F40
30C0
5050
5050
5050
30C0
1F40
ENDCHAR
STARTCHAR Otilde
ENCODING 213
SWIDTH 600 0
DWIDTH 6 0
BBX 6 9 0 0
BITMAP
1D80
2740
1F40
30C0
5050
5050
5050
30C0
1F40
ENDCHAR
STARTCHAR Odieresis
ENCODING 214
SWIDTH 600 0
DWIDTH 6 0
BBX 6 8 0 0
BITMAP
1540
1F40
30C0
5050
5050
5050
30C0
1F40
ENDCHAR
STARTCHAR multiply
ENCODING 215
SWIDTH 600 0
DWIDTH 6 0
BBX 4 4 1 1
BITMAP
82
28
28
82
ENDCHAR
STARTCHAR Oslash
ENCODING 216
SWIDTH 600 0
DWIDTH 6 0
BBX 6 7 0 0
BITMAP
1F90
31C0
5290
5550
6890
34C0
6F40
ENDCHAR
STARTCHAR Ugrave
ENCODING 217
SWIDTH 600 0
DWIDTH 6 0
BBX 6 9 0 0
BITMAP
0800
0500
6090
6090
6090
6090
6080
30C0
1F40
ENDCHAR
STARTCHAR Uacute
ENCODING 218
SWIDTH 600 0
DWIDTH 6 0
BBX 6 9 0 0
BITMAP
0200
0500
6090
6090
6090
6090
6080
30C0
1F40
ENDCHAR
STARTCHAR Ucircumflex
ENCODING 219
SWIDTH 600 0
DWIDTH 6 0
BBX 6 8 0 0
BITMAP
0500
6090
6090
6090
6090
6080
30C0
1F40
ENDCHAR
STARTCHAR Udieresis
ENCODING 220
SWIDTH 600 0
DWIDTH 6 0
BBX 6 8 0 0
BITMAP
1540
6090
6090
6090
6090
6080
30C0
1F40
ENDCHAR
STARTCHAR Yacute
ENCODING 221
SWIDTH 600 0
DWIDTH 6 0
BBX 6 9 0 0
BITMAP
0200
0500
6050
2080
1540
0A00
0500
0500
0500
ENDCHAR
STARTCHAR Thorn
ENCODING 222
SWIDTH 600 0
DWIDTH 6 0
BBX 5 7 1 0
BITMAP
8000
FE00
8240
8140
8240
FE00
8000
ENDCHAR
STARTCHAR germandbls
ENCODING 223
SWIDTH 600 0
DWIDTH 6 0
BBX 5 7 1 0
BITMAP
7D00
C500
8400
8800
8B40
8180
9F40
ENDCHAR
STARTCHAR agrave
ENCODING 224
SWIDTH 600 0
DWIDTH 6 0
BBX 4 8 1 0
BITMAP
20
18
00
7E
43
6F
96
BA
ENDCHAR
STARTCHAR aacute
ENCODING 225
SWIDTH 600 0
DWIDTH 6 0
BBX 4 8 1 0
BITMAP
05
18
00
7E
43
6F
96
BA
ENDCHAR
STARTCHAR acircumflex
ENCODING 226
SWIDTH 600 0
DWIDTH 6 0
BBX 4 8 1 0
BITMAP
28
11
00
7E
43
6F
96
BA
ENDCHAR
STARTCHAR atilde
ENCODING 227
SWIDTH 600 0
DWIDTH 6 0
BBX 4 8 1 0
BITMAP
76
4A
00
7E
43
6F
96
BA
ENDCHAR
STARTCHAR adieresis
ENCODING 228
SWIDTH 600 0
DWIDTH 6 0
BBX 4 7 1 0
BITMAP
66
00
7E
43
6F
96
BA
ENDCHAR
STARTCHAR aring
ENCODING 229
SWIDTH 600 0
DWIDTH 6 0
BBX 4 8 1 0
BITMAP
2C
25
2C
7E
43
6F
96
BA
ENDCHAR
STARTCHAR ae
ENCODING 230
SWIDTH 600 0
DWIDTH 6 0
BBX 6 5 0 0
BITMAP
7AD0
6E20
97F0
8600
7AE0
ENDCHAR
STARTCHAR ccedilla
ENCODING 231
SWIDTH 600 0
DWIDTH 6 0
BBX 4 9 1 -4
BITMAP
6E
D1
80
D1
6E
08
0C
09
18
ENDCHAR
STARTCHAR egrave
ENCODING 232
SWIDTH 600 0
DWIDTH 6 0
BBX 6 8 0 0
BITMAP
0800
0500
0000
1F40
2090
7FD0
2440
1F80
ENDCHAR
STARTCHAR eacute
ENCODING 233
SWIDTH 600 0
DWIDTH 6 0
BBX 6 8 0 0
BITMAP
0240
0500
0000
1F40
2090
7FD0
2440
1F80
ENDCHAR
STARTCHAR ecircumflex
ENCODING 234
SWIDTH 600 0
DWIDTH 6 0
BBX 6 8 0 0
BITMAP
0A00
1440
0000
1F40
2090
7FD0
2440
1F80
ENDCHAR
STARTCHAR edieresis
ENCODING 235
SWIDTH 600 0
DWIDTH 6 0
BBX 6 7 0 0
BITMAP
1980
0000
1F40
2090
7FD0
2440
1F80
ENDCHAR
STARTCHAR igrave
ENCODING 236
SWIDTH 600 0
DWIDTH 6 0
BBX 3 8 1 0
BITMAP
24
08
00
FC
08
08
08
08
ENDCHAR
STARTCHAR iacute
ENCODING 237
SWIDTH 600 0
DWIDTH 6 0
BBX 4 8 1 0
BITMAP
06
08
00
FC
08
08
08
08
ENDCHAR
STARTCHAR icircumflex
ENCODING 238
SWIDTH 600 0
DWIDTH 6 0
BBX 4 8 1 0
BITMAP
1D
22
00
FC
08
08
08
08
ENDCHAR
STARTCHAR idieresis
ENCODING 239
SWIDTH 600 0
DWIDTH 6 0
BBX 4 7 1 0
BITMAP
22
00
FC
08
08
08
08
ENDCHAR
STARTCHAR eth
ENCODING 240
SWIDTH 600 0
DWIDTH 6 0
BBX 6 7 0 0
BITMAP
0980
1A40
2E80
61D0
5050
6080
1F40
ENDCHAR
STARTCHAR ntilde
ENCODING 241
SWIDTH 600 0
DWIDTH 6 0
BBX 5 8 1 0
BITMAP
7600
4A00
0000
AE00
D240
8240
8240
8240
ENDCHAR
STARTCHAR ograve
ENCODING 242
SWIDTH 600 0
DWIDTH 6 0
BBX 6 8 0 0
BITMAP
0800
0500
0000
1F40
6090
5050
6090
1F40
ENDCHAR
STARTCHAR oacute
ENCODING 243
SWIDTH 600 0
DWIDTH 6 0
BBX 6 8 0 0
BITMAP
0200
0500
0000
1F40
6090
5050
6090
1F40
ENDCHAR
STARTCHAR ocircumflex
ENCODING 244
SWIDTH 600 0
DWIDTH 6 0
BBX 6 8 0 0
BITMAP
0A00
1540
0000
1F40
6090
5050
6090
1F40
ENDCHAR
STARTCHAR otilde
ENCODING 245
SWIDTH 600 0
DWIDTH 6 0
BBX 6 8 0 0
BITMAP
1D80
2340
0000
1F40
6090
5050
6090
1F40
ENDCHAR
STARTCHAR odieresis
ENCODING 246
SWIDTH 600 0
DWIDTH 6 0
BBX 6 7 0 0
BITMAP
1540
0000
1F40
6090
5050
6090
1F40
ENDCHAR
STARTCHAR divide
ENCODING 247
SWIDTH 600 0
DWIDTH 6 0
BBX 4 5 1 1
BITMAP
14
00
FF
00
14
ENDCHAR
STARTCHAR oslash
ENCODING 248
SWIDTH 600 0
DWIDTH 6 0
BBX 6 5 0 0
BITMAP
1F80
72D0
6590
7890
2F40
ENDCHAR
STARTCHAR ugrave
ENCODING 249
SWIDTH 600 0
DWIDTH 6 0
BBX 5 8 0 0
BITMAP
0800
0500
0000
6080
6080
6080
61C0
2E80
ENDCHAR
STARTCHAR uacute
ENCODING 250
SWIDTH 600 0
DWIDTH 6 0
BBX 5 8 0 0
BITMAP
0200
0500
0000
6080
6080
6080
61C0
2E80
ENDCHAR
STARTCHAR ucircumflex
ENCODING 251
SWIDTH 600 0
DWIDTH 6 0
BBX 5 8 0 0
BITMAP
0A00
1540
0000
6080
6080
6080
61C0
2E80
ENDCHAR
STARTCHAR udieresis
ENCODING 252
SWIDTH 600 0
DWIDTH 6 0
BBX 5 7 0 0
BITMAP
1540
0000
6080
6080
6080
61C0
2E80
ENDCHAR
STARTCHAR yacute
ENCODING 253
SWIDTH 600 0
DWIDTH 6 0
BBX 6 10 0 -2
BITMAP
0200
0500
0000
6050
2080
1580
0A00
0A00
0900
7800
ENDCHAR
STARTCHAR thorn
ENCODING 254
SWIDTH 600 0
DWIDTH 6 0
BBX 5 9 1 -2
BITMAP
8000
8000
AE00
D240
8140
D240
ED00
8000
8000
ENDCHAR
STARTCHAR ydieresis
ENCODING 255
SWIDTH 600 0
DWIDTH 6 0
BBX 6 9 0 -2
BITMAP
1540
0000
6050
2080
1580
0A00
0A00
0900
7800
ENDCHAR
STARTCHAR Amacron
ENCODING 256
SWIDTH 600 0
DWIDTH 6 0
BBX 6 8 0 0
BITMAP
1F40
0A00
0A00
1540
2180
3FC0
6090
9060
ENDCHAR
STARTCHAR amacron
ENCODING 257
SWIDTH 600 0
DWIDTH 6 0
BBX 4 7 1 0
BITMAP
3E
00
7E
43
6F
96
BA
ENDCHAR
STARTCHAR Abreve
ENCODING 258
SWIDTH 600 0
DWIDTH 6 0
BBX 6 9 0 0
BITMAP
1540
0A00
0A00
0A00
1540
2180
3FC0
6090
9060
ENDCHAR
STARTCHAR abreve
ENCODING 259
SWIDTH 600 0
DWIDTH 6 0
BBX 4 7 1 0
BITMAP
52
2D
7E
43
6F
96
BA
ENDCHAR
STARTCHAR Aogonek
ENCODING 260
SWIDTH 600 0
DWIDTH 6 0
BBX 6 9 0 -2
BITMAP
0A00
0A00
1540
2180
3FC0
6090
9060
0040
00A0
ENDCHAR
STARTCHAR aogonek
ENCODING 261
SWIDTH 600 0
DWIDTH 6 0
BBX 5 7 1 -2
BITMAP
7E00
4300
6F00
9600
BA00
0500
0740
ENDCHAR
STARTCHAR Cacute
ENCODING 262
SWIDTH 600 0
DWIDTH 6 0
BBX 6 9 0 0
BITMAP
0140
0200
0B80
2440
6000
6000
6000
2450
0B80
ENDCHAR
STARTCHAR cacute
ENCODING 263
SWIDTH 600 0
DWIDTH 6 0
BBX 4 8 1 0
BITMAP
06
08
00
6E
D1
80
D1
6E
ENDCHAR
STARTCHAR Ccircumflex
ENCODING 264
SWIDTH 600 0
DWIDTH 6 0
BBX 6 8 0 0
BITMAP
0540
0B80
2440
6000
6000
6000
2450
0B80
ENDCHAR
STARTCHAR ccircumflex
ENCODING 265
SWIDTH 600 0
DWIDTH 6 0
BBX 4 8 1 0
BITMAP
1D
22
00
6E
D1
80
D1
6E
ENDCHAR
STARTCHAR Cdotaccent
ENCODING 266
SWIDTH 600 0
DWIDTH 6 0
BBX 6 8 0 0
BITMAP
0200
0B80
2440
6000
6000
6000
2450
0B80
ENDCHAR
STARTCHAR cdotaccent
ENCODING 267
SWIDTH 600 0
DWIDTH 6 0
BBX 4 7 1 0
BITMAP
0C
00
6E
D1
80
D1
6E
ENDCHAR
STARTCHAR Ccaron
ENCODING 268
SWIDTH 600 0
DWIDTH 6 0
BBX 6 8 0 0
BITMAP
0540
0B80
2440
6000
6000
6000
2450
0B80
ENDCHAR
STARTCHAR ccaron
ENCODING 269
SWIDTH 600 0
DWIDTH 6 0
BBX 4 8 1 0
BITMAP
22
1D
00
6E
D1
80
D1
6E
ENDCHAR
STARTCHAR Dcaron
ENCODING 270
SWIDTH 600 0
DWIDTH 6 0
BBX 5 8 1 0
BITMAP
2800
F900
8700
8140
8140
8240
8700
F900
ENDCHAR
STARTCHAR dcaron
ENCODING 271
SWIDTH 600 0
DWIDTH 6 0
BBX 7 8 0 0
BITMAP
0024
00A0
00A0
2E80
6180
5080
6180
2E80
ENDCHAR
STARTCHAR Dcroat
ENCODING 272
SWIDTH 600 0
DWIDTH 6 0
BBX 6 7 0 0
BITMAP
3E40
21C0
2090
FC50
2090
21C0
3E40
ENDCHAR
STARTCHAR dcroat
ENCODING 273
SWIDTH 600 0
DWIDTH 6 0
BBX 6 7 0 0
BITMAP
0080
0BE0
0080
2EC0
6080
61C0
2E80
ENDCHAR
STARTCHAR Emacron
ENCODING 274
SWIDTH 600 0
DWIDTH 6 0
BBX 5 8 1 0
BITMAP
3E00
FF40
C000
C000
FE00
C000
C000
FF40
ENDCHAR
STARTCHAR emacron
ENCODING 275
SWIDTH 600 0
DWIDTH 6 0
BBX 6 7 0 0
BITMAP
1F40
0000
1F40
2090
7FD0
2440
1F80
ENDCHAR
STARTCHAR Ebreve
ENCODING 276
SWIDTH 600 0
DWIDTH 6 0
BBX 5 9 1 0
BITMAP
2200
2D00
FF40
C000
C000
FE00
C000
C000
FF40
ENDCHAR
STARTCHAR ebreve
ENCODING 277
SWIDTH 600 0
DWIDTH 6 0
BBX 6 7 0 0
BITMAP
1480
0B40
1F40
2090
7FD0
2440
1F80
ENDCHAR
STARTCHAR Edotaccent
ENCODING 278
SWIDTH 600 0
DWIDTH 6 0
BBX 5 8 1 0
BITMAP
0800
FF40
C000
C000
FE00
C000
C000
FF40
ENDCHAR
STARTCHAR edotaccent
ENCODING 279
SWIDTH 600 0
DWIDTH 6 0
BBX 6 7 0 0
BITMAP
0600
0000
1F40
2090
7FD0
2440
1F80
ENDCHAR
STARTCHAR Eogonek
ENCODING 280
SWIDTH 600 0
DWIDTH 6 0
BBX 5 9 1 -2
BITMAP
FF40
8000
8000
FE00
8000
8000
FF40
0100
0740
ENDCHAR
STARTCHAR eogonek
ENCODING 281
SWIDTH 600 0
DWIDTH 6 0
BBX 6 7 0 -2
BITMAP
1F40
2090
7FD0
2440
1F80
0100
02C0
ENDCHAR
STARTCHAR Ecaron
ENCODING 282
SWIDTH 600 0
DWIDTH 6 0
BBX 5 8 1 0
BITMAP
1500
FF40
C000
C000
FE00
C000
C000
FF40
ENDCHAR
STARTCHAR ecaron
ENCODING 283
SWIDTH 600 0
DWIDTH 6 0
BBX 6 8 0 0
BITMAP
1440
0A00
0000
1F40
2090
7FD0
2440
1F80
ENDCHAR
STARTCHAR Gcircumflex
ENCODING 284
SWIDTH 600 0
DWIDTH 6 0
BBX 6 8 0 0
BITMAP
0540
1B80
3440
6000
52D0
6050
3490
1B80
ENDCHAR
STARTCHAR gcircumflex
ENCODING 285
SWIDTH 600 0
DWIDTH 6 0
BBX 6 10 0 -2
BITMAP
0A00
1540
0000
1FE0
3080
2A80
2500
2FD0
6060
2F80
ENDCHAR
STARTCHAR Gbreve
ENCODING 286
SWIDTH 600 0
DWIDTH 6 0
BBX 6 9 0 0
BITMAP
0880
0B40
1B80
3440
6000
52D0
6050
3490
1B80
ENDCHAR
STARTCHAR gbreve
ENCODING 287
SWIDTH 600 0
DWIDTH 6 0
BBX 6 9 0 -2
BITMAP
1580
0B00
1FE0
3080
2A80
2500
2FD0
6060
2F80
ENDCHAR
STARTCHAR Gdotaccent
ENCODING 288
SWIDTH 600 0
DWIDTH 6 0
BBX 6 8 0 0
BITMAP
0200
1B80
3440
6000
52D0
6050
3490
1B80
ENDCHAR
STARTCHAR gdotaccent
ENCODING 289
SWIDTH 600 0
DWIDTH 6 0
BBX 6 9 0 -2
BITMAP
0600
0000
1FE0
3080
2A80
2500
2FD0
6060
2F80
ENDCHAR
STARTCHAR uni0122
ENCODING 290
SWIDTH 600 0
DWIDTH 6 0
BBX 6 10 0 -3
BITMAP
1B80
3440
6000
52D0
6050
3490
1B80
0600
0200
0A00
ENDCHAR
STARTCHAR uni0123
ENCODING 291
SWIDTH 600 0
DWIDTH 6 0
BBX 6 10 0 -2
BITMAP
0700
0800
0600
1FE0
3080
2A80
2500
2FD0
6060
2F80
ENDCHAR
STARTCHAR Hcircumflex
ENCODING 292
SWIDTH 600 0
DWIDTH 6 0
BBX 6 8 0 0
BITMAP
0500
6090
6090
6090
7FD0
6090
6090
6090
ENDCHAR
STARTCHAR hcircumflex
ENCODING 293
SWIDTH 600 0
DWIDTH 6 0
BBX 6 9 0 0
BITMAP
5400
0000
2000
2000
2B80
3490
2090
2090
2090
ENDCHAR
STARTCHAR Hbar
ENCODING 294
SWIDTH 600 0
DWIDTH 6 0
BBX 6 7 0 0
BITMAP
6090
FFF0
6090
7FD0
6090
6090
6090
ENDCHAR
STARTCHAR hbar
ENCODING 295
SWIDTH 600 0
DWIDTH 6 0
BBX 6 7 0 0
BITMAP
2000
BF00
2000
2B80
3490
2090
2090
ENDCHAR
STARTCHAR Itilde
ENCODING 296
SWIDTH 600 0
DWIDTH 6 0
BBX 4 9 1 0
BITMAP
76
9D
FF
14
14
14
14
14
FF
ENDCHAR
STARTCHAR itilde
ENCODING 297
SWIDTH 600 0
DWIDTH 6 0
BBX 4 8 1 0
BITMAP
39
56
00
FC
08
08
08
08
ENDCHAR
STARTCHAR Imacron
ENCODING 298
SWIDTH 600 0
DWIDTH 6 0
BBX 4 8 1 0
BITMAP
7D
FF
14
14
14
14
14
FF
ENDCHAR
STARTCHAR imacron
ENCODING 299
SWIDTH 600 0
DWIDTH 6 0
BBX 4 7 1 0
BITMAP
3E
00
FC
08
08
08
08
ENDCHAR
STARTCHAR Ibreve
ENCODING 300
SWIDTH 600 0
DWIDTH 6 0
BBX 4 9 1 0
BITMAP
55
28
FF
14
14
14
14
14
FF
ENDCHAR
STARTCHAR ibreve
ENCODING 301
SWIDTH 600 0
DWIDTH 6 0
BBX 4 7 1 0
BITMAP
22
2D
FC
08
08
08
08
ENDCHAR
STARTCHAR Iogonek
ENCODING 302
SWIDTH 600 0
DWIDTH 6 0
BBX 4 9 1 -2
BITMAP
FF
14
14
14
14
14
FF
10
28
ENDCHAR
STARTCHAR iogonek
ENCODING 303
SWIDTH 600 0
DWIDTH 6 0
BBX 4 9 1 -2
BITMAP
0C
00
FC
08
08
08
08
14
1D
ENDCHAR
STARTCHAR Idotaccent
ENCODING 304
SWIDTH 600 0
DWIDTH 6 0
BBX 4 8 1 0
BITMAP
14
FF
14
14
14
14
14
FF
ENDCHAR
STARTCHAR dotlessi
ENCODING 305
SWIDTH 600 0
DWIDTH 6 0
BBX 3 5 1 0
BITMAP
FC
08
08
08
08
ENDCHAR
STARTCHAR IJ
ENCODING 306
SWIDTH 600 0
DWIDTH 6 0
BBX 4 9 1 -2
BITMAP
82
82
82
82
82
82
82
03
0D
ENDCHAR
STARTCHAR ij
ENCODING 307
SWIDTH 600 0
DWIDTH 6 0
BBX 4 9 1 -2
BITMAP
82
00
82
82
82
82
82
03
0E
ENDCHAR
STARTCHAR Jcircumflex
ENCODING 308
SWIDTH 600 0
DWIDTH 6 0
BBX 4 8 1 0
BITMAP
25
BF
03
03
03
03
86
7D
ENDCHAR
STARTCHAR jcircumflex
ENCODING 309
SWIDTH 600 0
DWIDTH 6 0
BBX 5 10 0 -2
BITMAP
0740
0880
0000
3F00
0200
0200
0200
0200
0300
7D00
ENDCHAR
STARTCHAR uni0136
ENCODING 310
SWIDTH 600 0
DWIDTH 6 0
BBX 5 10 1 -3
BITMAP
8240
8900
9800
E800
C500
8200
8180
0800
0800
2800
ENDCHAR
STARTCHAR uni0137
ENCODING 311
SWIDTH 600 0
DWIDTH 6 0
BBX 5 10 1 -3
BITMAP
8000
8000
8200
8900
E800
D600
8240
0800
0800
2800
ENDCHAR
STARTCHAR kgreenlandic
ENCODING 312
SWIDTH 600 0
DWIDTH 6 0
BBX 5 5 1 0
BITMAP
8200
8800
E800
C600
8240
ENDCHAR
STARTCHAR Lacute
ENCODING 313
SWIDTH 600 0
DWIDTH 6 0
BBX 5 9 1 0
BITMAP
2000
5000
8000
8000
8000
8000
8000
8000
BF40
ENDCHAR
STARTCHAR lacute
ENCODING 314
SWIDTH 600 0
DWIDTH 6 0
BBX 6 10 0 0
BITMAP
0200
0900
0000
7D00
0900
0900
0900
0900
0900
07D0
ENDCHAR
STARTCHAR uni013B
ENCODING 315
SWIDTH 600 0
DWIDTH 6 0
BBX 5 10 1 -3
BITMAP
8000
8000
8000
8000
8000
8000
BF40
0800
0900
1800
ENDCHAR
STARTCHAR uni013C
ENCODING 316
SWIDTH 600 0
DWIDTH 6 0
BBX 6 10 0 -3
BITMAP
7D00
0900
0900
0900
0900
0900
07D0
0240
0180
0340
ENDCHAR
STARTCHAR Lcaron
ENCODING 317
SWIDTH 600 0
DWIDTH 6 0
BBX 5 8 1 0
BITMAP
0600
8500
8500
8000
8000
8000
8000
BF40
ENDCHAR
STARTCHAR lcaron
ENCODING 318
SWIDTH 600 0
DWIDTH 6 0
BBX 6 8 0 0
BITMAP
0080
7D80
0980
0900
0900
0900
0900
07D0
ENDCHAR
STARTCHAR Ldot
ENCODING 319
SWIDTH 600 0
DWIDTH 6 0
BBX 5 7 1 0
BITMAP
8000
8000
8000
8240
8000
8000
BF40
ENDCHAR
STARTCHAR ldot
ENCODING 320
SWIDTH 600 0
DWIDTH 6 0
BBX 7 7 0 0
BITMAP
BC00
0800
0800
0824
0800
0C00
0780
ENDCHAR
STARTCHAR Lslash
ENCODING 321
SWIDTH 600 0
DWIDTH 6 0
BBX 6 7 0 0
BITMAP
2000
2000
2540
2900
B000
2000
2FD0
ENDCHAR
STARTCHAR lslash
ENCODING 322
SWIDTH 600 0
DWIDTH 6 0
BBX 6 7 0 0
BITMAP
7D00
0900
0A40
1900
1900
0900
07D0
ENDCHAR
STARTCHAR Nacute
ENCODING 323
SWIDTH 600 0
DWIDTH 6 0
BBX 6 9 0 0
BITMAP
0200
0500
7090
7490
6890
6590
6290
61D0
60D0
ENDCHAR
STARTCHAR nacute
ENCODING 324
SWIDTH 600 0
DWIDTH 6 0
BBX 5 8 1 0
BITMAP
0500
1800
0000
AE00
D240
8240
8240
8240
ENDCHAR
STARTCHAR uni0145
ENCODING 325
SWIDTH 600 0
DWIDTH 6 0
BBX 6 10 0 -3
BITMAP
7090
7490
6890
6590
6290
61D0
60D0
0500
0200
0900
ENDCHAR
STARTCHAR uni0146
ENCODING 326
SWIDTH 600 0
DWIDTH 6 0
BBX 5 8 1 -3
BITMAP
AE00
D240
8240
8240
8240
1800
0800
2400
ENDCHAR
STARTCHAR Ncaron
ENCODING 327
SWIDTH 600 0
DWIDTH 6 0
BBX 6 8 0 0
BITMAP
0940
7090
7490
6890
6590
6290
61D0
60D0
ENDCHAR
STARTCHAR ncaron
ENCODING 328
SWIDTH 600 0
DWIDTH 6 0
BBX 5 8 1 0
BITMAP
1100
2800
0000
AE00
D240
8240
8240
8240
ENDCHAR
STARTCHAR napostrophe
ENCODING 329
SWIDTH 600 0
DWIDTH 6 0
BBX 6 7 0 0
BITMAP
D000
5000
8AE0
0D30
0820
0820
0820
ENDCHAR
STARTCHAR Eng
ENCODING 330
SWIDTH 600 0
DWIDTH 6 0
BBX 5 7 1 0
BITMAP
AE00
D340
8140
8140
8140
8240
8E00
ENDCHAR
STARTCHAR eng
ENCODING 331
SWIDTH 600 0
DWIDTH 6 0
BBX 5 7 1 -2
BITMAP
AE00
D240
8240
8240
8240
0240
0A00
ENDCHAR
STARTCHAR Omacron
ENCODING 332
SWIDTH 600 0
DWIDTH 6 0
BBX 6 8 0 0
BITMAP
1F40
1F40
30C0
5050
5050
5050
30C0
1F40
ENDCHAR
STARTCHAR omacron
ENCODING 333
SWIDTH 600 0
DWIDTH 6 0
BBX 6 7 0 0
BITMAP
1F40
0000
1F40
6090
5050
6090
1F40
ENDCHAR
STARTCHAR Obreve
ENCODING 334
SWIDTH 600 0
DWIDTH 6 0
BBX 6 9 0 0
BITMAP
1540
0A00
1F40
30C0
5050
5050
5050
30C0
1F40
ENDCHAR
STARTCHAR obreve
ENCODING 335
SWIDTH 600 0
DWIDTH 6 0
BBX 6 7 0 0
BITMAP
1540
0F00
1F40
6090
5050
6090
1F40
ENDCHAR
STARTCHAR Ohungarumlaut
ENCODING 336
SWIDTH 600 0
DWIDTH 6 0
BBX 6 9 0 0
BITMAP
0480
0940
1F40
30C0
5050
5050
5050
30C0
1F40
ENDCHAR
STARTCHAR ohungarumlaut
ENCODING 337
SWIDTH 600 0
DWIDTH 6 0
BBX 6 8 0 0
BITMAP
0580
0940
0000
1F40
6090
5050
6090
1F40
ENDCHAR
STARTCHAR OE
ENCODING 338
SWIDTH 600 0
DWIDTH 6 0
BBX 6 7 0 0
BITMAP
1FE0
6200
9200
93D0
9200
6200
1FF0
ENDCHAR
STARTCHAR oe
ENCODING 339
SWIDTH 600 0
DWIDTH 6 0
BBX 6 5 0 0
BITMAP
79D0
9620
87F0
9600
79E0
ENDCHAR
STARTCHAR Racute
ENCODING 340
SWIDTH 600 0
DWIDTH 6 0
BBX 5 9 1 0
BITMAP
0800
1400
FE00
8240
8240
FE00
8900
8600
8240
ENDCHAR
STARTCHAR racute
ENCODING 341
SWIDTH 600 0
DWIDTH 6 0
BBX 5 8 1 0
BITMAP
0600
0800
0000
9B40
A400
9000
9000
9000
ENDCHAR
STARTCHAR uni0156
ENCODING 342
SWIDTH 600 0
DWIDTH 6 0
BBX 5 10 1 -3
BITMAP
FE00
8240
8240
FE00
8900
8600
8240
1800
0800
2400
ENDCHAR
STARTCHAR uni0157
ENCODING 343
SWIDTH 600 0
DWIDTH 6 0
BBX 5 8 1 -3
BITMAP
9B40
A400
9000
9000
9000
5000
2000
D000
ENDCHAR
STARTCHAR Rcaron
ENCODING 344
SWIDTH 600 0
DWIDTH 6 0
BBX 5 8 1 0
BITMAP
2400
FE00
8240
8240
FE00
8900
8600
8240
ENDCHAR
STARTCHAR rcaron
ENCODING 345
SWIDTH 600 0
DWIDTH 6 0
BBX 5 8 1 0
BITMAP
2200
1D00
0000
9B40
A400
9000
9000
9000
ENDCHAR
STARTCHAR Sacute
ENCODING 346
SWIDTH 600 0
DWIDTH 6 0
BBX 5 9 1 0
BITMAP
0900
1400
7D00
C100
9000
2D00
0240
8240
7E00
ENDCHAR
STARTCHAR sacute
ENCODING 347
SWIDTH 600 0
DWIDTH 6 0
BBX 5 8 1 0
BITMAP
0800
1400
0000
7D00
C100
6900
4240
7E00
ENDCHAR
STARTCHAR Scircumflex
ENCODING 348
SWIDTH 600 0
DWIDTH 6 0
BBX 5 8 1 0
BITMAP
2500
7D00
C100
9000
2D00
0240
8240
7E00
ENDCHAR
STARTCHAR scircumflex
ENCODING 349
SWIDTH 600 0
DWIDTH 6 0
BBX 5 8 1 0
BITMAP
2800
5500
0000
7D00
C100
6900
4240
7E00
ENDCHAR
STARTCHAR uni015E
ENCODING 350
SWIDTH 600 0
DWIDTH 6 0
BBX 5 11 1 -4
BITMAP
7D00
C100
9000
2D00
0240
8240
7E00
0400
1800
0800
2400
ENDCHAR
STARTCHAR uni015F
ENCODING 351
SWIDTH 600 0
DWIDTH 6 0
BBX 5 9 1 -4
BITMAP
7D00
C100
6900
4240
7E00
1400
1800
0800
2400
ENDCHAR
STARTCHAR Scaron
ENCODING 352
SWIDTH 600 0
DWIDTH 6 0
BBX 5 8 1 0
BITMAP
2500
7D00
C100
9000
2D00
0240
8240
7E00
ENDCHAR
STARTCHAR scaron
ENCODING 353
SWIDTH 600 0
DWIDTH 6 0
BBX 5 8 1 0
BITMAP
5500
2800
0000
7D00
C100
6900
4240
7E00
ENDCHAR
STARTCHAR uni0162
ENCODING 354
SWIDTH 600 0
DWIDTH 6 0
BBX 6 11 0 -4
BITMAP
BFE0
0500
0500
0500
0500
0500
0500
0500
0A00
0200
0900
ENDCHAR
STARTCHAR uni0163
ENCODING 355
SWIDTH 600 0
DWIDTH 6 0
BBX 6 11 0 -4
BITMAP
0800
0800
7FD0
0800
0800
0C00
07D0
0100
0240
0180
0340
ENDCHAR
STARTCHAR Tcaron
ENCODING 356
SWIDTH 600 0
DWIDTH 6 0
BBX 6 8 0 0
BITMAP
0A00
BFE0
0500
0500
0500
0500
0500
0500
ENDCHAR
STARTCHAR tcaron
ENCODING 357
SWIDTH 600 0
DWIDTH 6 0
BBX 6 8 0 0
BITMAP
0080
0880
0880
7FD0
0800
0800
0C00
07D0
ENDCHAR
STARTCHAR Tbar
ENCODING 358
SWIDTH 600 0
DWIDTH 6 0
BBX 6 7 0 0
BITMAP
BFE0
0500
0500
2FC0
0500
0500
0500
ENDCHAR
STARTCHAR tbar
ENCODING 359
SWIDTH 600 0
DWIDTH 6 0
BBX 6 7 0 0
BITMAP
0400
0800
7FD0
0800
7FC0
0C00
07D0
ENDCHAR
STARTCHAR Utilde
ENCODING 360
SWIDTH 600 0
DWIDTH 6 0
BBX 6 9 0 0
BITMAP
1D80
2740
6090
6090
6090
6090
6080
30C0
1F40
ENDCHAR
STARTCHAR utilde
ENCODING 361
SWIDTH 600 0
DWIDTH 6 0
BBX 5 8 0 0
BITMAP
2D80
2340
0000
6080
6080
6080
61C0
2E80
ENDCHAR
STARTCHAR Umacron
ENCODING 362
SWIDTH 600 0
DWIDTH 6 0
BBX 6 8 0 0
BITMAP
1F40
6090
6090
6090
6090
6080
30C0
1F40
ENDCHAR
STARTCHAR umacron
ENCODING 363
SWIDTH 600 0
DWIDTH 6 0
BBX 5 7 0 0
BITMAP
1F40
0000
6080
6080
6080
61C0
2E80
ENDCHAR
STARTCHAR Ubreve
ENCODING 364
SWIDTH 600 0
DWIDTH 6 0
BBX 6 9 0 0
BITMAP
1540
0A00
6090
6090
6090
6090
6080
30C0
1F40
ENDCHAR
STARTCHAR ubreve
ENCODING 365
SWIDTH 600 0
DWIDTH 6 0
BBX 5 7 0 0
BITMAP
2540
0E00
6080
6080
6080
61C0
2E80
ENDCHAR
STARTCHAR Uring
ENCODING 366
SWIDTH 600 0
DWIDTH 6 0
BBX 6 10 0 0
BITMAP
0A00
0A00
0A00
6090
6090
6090
6090
6080
30C0
1F40
ENDCHAR
STARTCHAR uring
ENCODING 367
SWIDTH 600 0
DWIDTH 6 0
BBX 5 8 0 0
BITMAP
0A00
0A00
0A00
6080
6080
6080
61C0
2E80
ENDCHAR
STARTCHAR Uhungarumlaut
ENCODING 368
SWIDTH 600 0
DWIDTH 6 0
BBX 6 9 0 0
BITMAP
0480
0940
6090
6090
6090
6090
6080
30C0
1F40
ENDCHAR
STARTCHAR uhungarumlaut
ENCODING 369
SWIDTH 600 0
DWIDTH 6 0
BBX 5 8 0 0
BITMAP
0580
0940
0000
6080
6080
6080
61C0
2E80
ENDCHAR
STARTCHAR Uogonek
ENCODING 370
SWIDTH 600 0
DWIDTH 6 0
BBX 6 9 0 -2
BITMAP
6090
6090
6090
6090
6090
30C0
1F40
0800
0B00
ENDCHAR
STARTCHAR uogonek
ENCODING 371
SWIDTH 600 0
DWIDTH 6 0
BBX 6 7 0 -2
BITMAP
6080
6080
6080
61C0
2E80
0140
01D0
ENDCHAR
STARTCHAR Wcircumflex
ENCODING 372
SWIDTH 600 0
DWIDTH 6 0
BBX 6 8 0 0
BITMAP
0500
C030
9020
9A60
5A50
6A90
35C0
35C0
ENDCHAR
STARTCHAR wcircumflex
ENCODING 373
SWIDTH 600 0
DWIDTH 6 0
BBX 6 8 0 0
BITMAP
0A00
1540
0000
8520
9A20
5A50
6A90
35C0
ENDCHAR
STARTCHAR Ycircumflex
ENCODING 374
SWIDTH 600 0
DWIDTH 6 0
BBX 6 8 0 0
BITMAP
0500
6050
2080
1540
0A00
0500
0500
0500
ENDCHAR
STARTCHAR ycircumflex
ENCODING 375
SWIDTH 600 0
DWIDTH 6 0
BBX 6 10 0 -2
BITMAP
0A00
1540
0000
6050
2080
1580
0A00
0A00
0900
7800
ENDCHAR
STARTCHAR Ydieresis
ENCODING 376
SWIDTH 600 0
DWIDTH 6 0
BBX 6 8 0 0
BITMAP
1540
6050
2080
1540
0A00
0500
0500
0500
ENDCHAR
STARTCHAR Zacute
ENCODING 377
SWIDTH 600 0
DWIDTH 6 0
BBX 6 9 0 0
BITMAP
0240
0500
3FD0
0080
0240
0500
1800
2000
7FD0
ENDCHAR
STARTCHAR zacute
ENCODING 378
SWIDTH 600 0
DWIDTH 6 0
BBX 6 8 0 0
BITMAP
0140
0600
0000
3FD0
0140
0500
2400
7FD0
ENDCHAR
STARTCHAR Zdotaccent
ENCODING 379
SWIDTH 600 0
DWIDTH 6 0
BBX 6 8 0 0
BITMAP
0600
3FD0
0080
0240
0500
1800
2000
7FD0
ENDCHAR
STARTCHAR zdotaccent
ENCODING 380
SWIDTH 600 0
DWIDTH 6 0
BBX 6 7 0 0
BITMAP
0600
0000
3FD0
0140
0500
2400
7FD0
ENDCHAR
STARTCHAR Zcaron
ENCODING 381
SWIDTH 600 0
DWIDTH 6 0
BBX 6 8 0 0
BITMAP
0940
3FD0
0080
0240
0500
1800
2000
7FD0
ENDCHAR
STARTCHAR zcaron
ENCODING 382
SWIDTH 600 0
DWIDTH 6 0
BBX 6 8 0 0
BITMAP
0440
0A00
0000
3FD0
0140
0500
2400
7FD0
ENDCHAR
STARTCHAR longs
ENCODING 383
SWIDTH 600 0
DWIDTH 6 0
BBX 5 7 1 0
BITMAP
0B80
2400
F400
2400
2400
2400
2400
ENDCHAR
STARTCHAR uni0180
ENCODING 384
SWIDTH 600 0
DWIDTH 6 0
BBX 6 7 0 0
BITMAP
2000
BF00
2000
3B80
3490
3090
2F80
ENDCHAR
STARTCHAR uni018A
ENCODING 394
SWIDTH 600 0
DWIDTH 6 0
BBX 6 7 0 0
BITMAP
2F40
9C90
8860
9860
0860
0890
0F40
ENDCHAR
STARTCHAR uni018F
ENCODING 399
SWIDTH 600 0
DWIDTH 6 0
BBX 6 7 0 0
BITMAP
1F40
1080
0050
7FD0
5050
2080
1F40
ENDCHAR
STARTCHAR uni0192
ENCODING 402
SWIDTH 600 0
DWIDTH 6 0
BBX 6 8 0 -1
BITMAP
02D0
0200
0500
1F80
0900
0800
0C00
7400
ENDCHAR
STARTCHAR uni0193
ENCODING 403
SWIDTH 600 0
DWIDTH 6 0
BBX 6 8 0 0
BITMAP
00A0
1BC0
3440
6000
52D0
6050
3490
1B80
ENDCHAR
STARTCHAR Ohorn
ENCODING 416
SWIDTH 600 0
DWIDTH 6 0
BBX 6 8 0 0
BITMAP
0020
1F90
30C0
5050
5050
5050
30C0
1F40
ENDCHAR
STARTCHAR ohorn
ENCODING 417
SWIDTH 600 0
DWIDTH 6 0
BBX 6 7 0 0
BITMAP
0010
0060
1F80
6080
5050
6090
1F40
ENDCHAR
STARTCHAR Uhorn
ENCODING 431
SWIDTH 600 0
DWIDTH 6 0
BBX 7 9 0 0
BITMAP
0014
0024
60A0
6090
6090
6090
6090
30C0
1F40
ENDCHAR
STARTCHAR uhorn
ENCODING 432
SWIDTH 600 0
DWIDTH 6 0
BBX 6 7 0 0
BITMAP
0020
0020
60A0
6080
6080
61C0
2E80
ENDCHAR
STARTCHAR uni01C2
ENCODING 450
SWIDTH 600 0
DWIDTH 6 0
BBX 4 9 1 -2
BITMAP
14
14
14
FF
14
FF
14
14
14
ENDCHAR
STARTCHAR uni01CD
ENCODING 461
SWIDTH 600 0
DWIDTH 6 0
BBX 6 8 0 0
BITMAP
0A00
0A00
0A00
1540
2180
3FC0
6090
9060
ENDCHAR
STARTCHAR uni01CE
ENCODING 462
SWIDTH 600 0
DWIDTH 6 0
BBX 4 8 1 0
BITMAP
11
28
00
7E
43
6F
96
BA
ENDCHAR
STARTCHAR uni01CF
ENCODING 463
SWIDTH 600 0
DWIDTH 6 0
BBX 4 8 1 0
BITMAP
28
FF
14
14
14
14
14
FF
ENDCHAR
STARTCHAR uni01D0
ENCODING 464
SWIDTH 600 0
DWIDTH 6 0
BBX 4 8 1 0
BITMAP
22
1D
00
FC
08
08
08
08
ENDCHAR
STARTCHAR uni01D1
ENCODING 465
SWIDTH 600 0
DWIDTH 6 0
BBX 6 8 0 0
BITMAP
0A00
1F40
30C0
5050
5050
5050
30C0
1F40
ENDCHAR
STARTCHAR uni01D2
ENCODING 466
SWIDTH 600 0
DWIDTH 6 0
BBX 6 8 0 0
BITMAP
1540
0A00
0000
1F40
6090
5050
6090
1F40
ENDCHAR
STARTCHAR uni01D3
ENCODING 467
SWIDTH 600 0
DWIDTH 6 0
BBX 6 8 0 0
BITMAP
0A00
6090
6090
6090
6090
6080
30C0
1F40
ENDCHAR
STARTCHAR uni01D4
ENCODING 468
SWIDTH 600 0
DWIDTH 6 0
BBX 5 8 0 0
BITMAP
1540
0A00
0000
6080
6080
6080
61C0
2E80
ENDCHAR
STARTCHAR uni01D5
ENCODING 469
SWIDTH 600 0
DWIDTH 6 0
BBX 6 10 0 0
BITMAP
1F40
0000
1540
6090
6090
6090
6090
6080
30C0
1F40
ENDCHAR
STARTCHAR uni01D6
ENCODING 470
SWIDTH 600 0
DWIDTH 6 0
BBX 5 9 0 0
BITMAP
1F40
0000
1540
0000
6080
6080
6080
61C0
2E80
ENDCHAR
STARTCHAR uni01D7
ENCODING 471
SWIDTH 600 0
DWIDTH 6 0
BBX 6 9 0 0
BITMAP
0100
1540
6090
6090
6090
6090
6080
30C0
1F40
ENDCHAR
STARTCHAR uni01D8
ENCODING 472
SWIDTH 600 0
DWIDTH 6 0
BBX 5 8 0 0
BITMAP
0100
1540
0000
6080
6080
6080
61C0
2E80
ENDCHAR
STARTCHAR uni01D9
ENCODING 473
SWIDTH 600 0
DWIDTH 6 0
BBX 6 10 0 0
BITMAP
0A00
0000
1540
6090
6090
6090
6090
6080
30C0
1F40
ENDCHAR
STARTCHAR uni01DA
ENCODING 474
SWIDTH 600 0
DWIDTH 6 0
BBX 5 8 0 0
BITMAP
0A00
1540
0000
6080
6080
6080
61C0
2E80
ENDCHAR
STARTCHAR uni01DB
ENCODING 475
SWIDTH 600 0
DWIDTH 6 0
BBX 6 9 0 0
BITMAP
0400
1540
6090
6090
6090
6090
6080
30C0
1F40
ENDCHAR
STARTCHAR uni01DC
ENCODING 476
SWIDTH 600 0
DWIDTH 6 0
BBX 5 8 0 0
BITMAP
0400
1540
0000
6080
6080
6080
61C0
2E80
ENDCHAR
STARTCHAR uni01E2
ENCODING 482
SWIDTH 600 0
DWIDTH 6 0
BBX 6 8 0 0
BITMAP
03E0
0BE0
0A00
1600
22D0
3F00
5200
82F0
ENDCHAR
STARTCHAR uni01E3
ENCODING 483
SWIDTH 600 0
DWIDTH 6 0
BBX 6 7 0 0
BITMAP
1F40
0000
7AD0
6E20
97F0
8600
7AE0
ENDCHAR
STARTCHAR Gcaron
ENCODING 486
SWIDTH 600 0
DWIDTH 6 0
BBX 6 8 0 0
BITMAP
0940
1B80
3440
6000
52D0
6050
3490
1B80
ENDCHAR
STARTCHAR gcaron
ENCODING 487
SWIDTH 600 0
DWIDTH 6 0
BBX 6 10 0 -2
BITMAP
1540
0A00
0000
1FE0
3080
2A80
2500
2FD0
6060
2F80
ENDCHAR
STARTCHAR uni01EA
ENCODING 490
SWIDTH 600 0
DWIDTH 6 0
BBX 6 9 0 -2
BITMAP
1F40
30C0
5050
5050
5050
30C0
1F40
0400
0B00
ENDCHAR
STARTCHAR uni01EB
ENCODING 491
SWIDTH 600 0
DWIDTH 6 0
BBX 6 7 0 -2
BITMAP
1F40
6090
5050
6090
1F40
0400
0B00
ENDCHAR
STARTCHAR uni01F4
ENCODING 500
SWIDTH 600 0
DWIDTH 6 0
BBX 6 9 0 0
BITMAP
0140
0200
1B80
3440
6000
52D0
6050
3490
1B80
ENDCHAR
STARTCHAR uni01F5
ENCODING 501
SWIDTH 600 0
DWIDTH 6 0
BBX 6 10 0 -2
BITMAP
0200
0500
0000
1FE0
3080
2A80
2500
2FD0
6060
2F80
ENDCHAR
STARTCHAR uni01F8
ENCODING 504
SWIDTH 600 0
DWIDTH 6 0
BBX 6 9 0 0
BITMAP
0800
0500
7090
7490
6890
6590
6290
61D0
60D0
ENDCHAR
STARTCHAR uni01F9
ENCODING 505
SWIDTH 600 0
DWIDTH 6 0
BBX 5 8 1 0
BITMAP
2000
1800
0000
AE00
D240
8240
8240
8240
ENDCHAR
STARTCHAR Aringacute
ENCODING 506
SWIDTH 600 0
DWIDTH 6 0
BBX 6 10 0 0
BITMAP
0100
0500
0A00
0A00
0A00
1640
2580
3FC0
6090
9060
ENDCHAR
STARTCHAR aringacute
ENCODING 507
SWIDTH 600 0
DWIDTH 6 0
BBX 4 8 1 0
BITMAP
04
14
2C
7E
43
02
87
BA
ENDCHAR
STARTCHAR AEacute
ENCODING 508
SWIDTH 600 0
DWIDTH 6 0
BBX 6 9 0 0
BITMAP
0090
0140
0BE0
0A00
1600
22D0
3F00
5200
82F0
ENDCHAR
STARTCHAR aeacute
ENCODING 509
SWIDTH 600 0
DWIDTH 6 0
BBX 6 8 0 0
BITMAP
0240
0500
0000
7AD0
6E20
97F0
8600
7AE0
ENDCHAR
STARTCHAR Oslashacute
ENCODING 510
SWIDTH 600 0
DWIDTH 6 0
BBX 6 9 0 0
BITMAP
0200
0500
1F90
31C0
5290
5550
6890
34C0
6F40
ENDCHAR
STARTCHAR oslashacute
ENCODING 511
SWIDTH 600 0
DWIDTH 6 0
BBX 6 8 0 0
BITMAP
0200
0500
0000
1F80
72D0
6590
7890
2F40
ENDCHAR
STARTCHAR uni0218
ENCODING 536
SWIDTH 600 0
DWIDTH 6 0
BBX 5 10 1 -3
BITMAP
7D00
C100
9000
2D00
0240
8240
7E00
1800
0800
2400
ENDCHAR
STARTCHAR uni0219
ENCODING 537
SWIDTH 600 0
DWIDTH 6 0
BBX 5 8 1 -3
BITMAP
7D00
C100
6900
4240
7E00
1800
0800
2400
ENDCHAR
STARTCHAR uni021A
ENCODING 538
SWIDTH 600 0
DWIDTH 6 0
BBX 6 10 0 -3
BITMAP
BFE0
0500
0500
0500
0500
0500
0500
0500
0200
0900
ENDCHAR
STARTCHAR uni021B
ENCODING 539
SWIDTH 600 0
DWIDTH 6 0
BBX 6 10 0 -3
BITMAP
0800
0800
7FD0
0800
0800
0C00
07D0
0240
0180
0340
ENDCHAR
STARTCHAR uni0237
ENCODING 567
SWIDTH 600 0
DWIDTH 6 0
BBX 4 7 0 -2
BITMAP
3F
02
02
02
02
03
7D
ENDCHAR
STARTCHAR uni0243
ENCODING 579
SWIDTH 600 0
DWIDTH 6 0
BBX 6 7 0 0
BITMAP
3F80
2080
3F80
2090
BD50
2090
3F80
ENDCHAR
STARTCHAR uni0250
ENCODING 592
SWIDTH 600 0
DWIDTH 6 0
BBX 5 5 1 0
BITMAP
AE00
D640
F900
C100
7D00
ENDCHAR
STARTCHAR uni0251
ENCODING 593
SWIDTH 600 0
DWIDTH 6 0
BBX 5 5 0 0
BITMAP
1E80
61C0
5080
61C0
2E80
ENDCHAR
STARTCHAR uni0252
ENCODING 594
SWIDTH 600 0
DWIDTH 6 0
BBX 5 5 1 0
BITMAP
AE00
D240
8140
D240
AD00
ENDCHAR
STARTCHAR uni0253
ENCODING 595
SWIDTH 600 0
DWIDTH 6 0
BBX 5 7 1 0
BITMAP
B800
C000
AE00
D240
8140
D240
AD00
ENDCHAR
STARTCHAR uni0254
ENCODING 596
SWIDTH 600 0
DWIDTH 6 0
BBX 4 5 1 0
BITMAP
B9
47
02
47
B9
ENDCHAR
STARTCHAR uni0255
ENCODING 597
SWIDTH 600 0
DWIDTH 6 0
BBX 5 6 1 -1
BITMAP
6E00
D100
8B00
A540
7E00
8000
ENDCHAR
STARTCHAR uni0256
ENCODING 598
SWIDTH 600 0
DWIDTH 6 0
BBX 6 9 0 -2
BITMAP
0080
0080
1EC0
61C0
5080
61C0
2EC0
0080
0070
ENDCHAR
STARTCHAR uni0257
ENCODING 599
SWIDTH 600 0
DWIDTH 6 0
BBX 6 7 0 0
BITMAP
0070
0090
1EC0
61C0
5080
61C0
2E80
ENDCHAR
STARTCHAR uni0258
ENCODING 600
SWIDTH 600 0
DWIDTH 6 0
BBX 6 5 0 0
BITMAP
1F40
6080
7FD0
1080
2F40
ENDCHAR
STARTCHAR uni0259
ENCODING 601
SWIDTH 600 0
DWIDTH 6 0
BBX 6 5 0 0
BITMAP
1F40
1080
7FD0
2080
1F40
ENDCHAR
STARTCHAR uni025A
ENCODING 602
SWIDTH 600 0
DWIDTH 6 0
BBX 6 5 0 0
BITMAP
7D00
0790
2A70
9200
3D00
ENDCHAR
STARTCHAR uni025B
ENCODING 603
SWIDTH 600 0
DWIDTH 6 0
BBX 4 5 1 0
BITMAP
7E
91
7C
C1
BE
ENDCHAR
STARTCHAR uni025C
ENCODING 604
SWIDTH 600 0
DWIDTH 6 0
BBX 4 5 1 0
BITMAP
BD
46
3D
43
BE
ENDCHAR
STARTCHAR uni025E
ENCODING 606
SWIDTH 600 0
DWIDTH 6 0
BBX 6 5 0 0
BITMAP
1F80
2080
5380
6090
1F80
ENDCHAR
STARTCHAR uni025F
ENCODING 607
SWIDTH 600 0
DWIDTH 6 0
BBX 6 7 0 -2
BITMAP
3F00
0200
2FE0
0200
0200
0300
7D00
ENDCHAR
STARTCHAR uni0260
ENCODING 608
SWIDTH 600 0
DWIDTH 6 0
BBX 6 8 0 -2
BITMAP
0070
1ED0
61C0
5080
75C0
1A80
10C0
2F40
ENDCHAR
STARTCHAR uni0261
ENCODING 609
SWIDTH 600 0
DWIDTH 6 0
BBX 5 7 0 -2
BITMAP
1E80
61C0
5080
61C0
2E80
10C0
2F40
ENDCHAR
STARTCHAR uni0262
ENCODING 610
SWIDTH 600 0
DWIDTH 6 0
BBX 6 5 0 0
BITMAP
1B80
3440
62D0
3490
1F80
ENDCHAR
STARTCHAR uni0263
ENCODING 611
SWIDTH 600 0
DWIDTH 6 0
BBX 6 7 0 -2
BITMAP
6090
2080
1540
0A00
0A00
0A00
0F00
ENDCHAR
STARTCHAR uni0264
ENCODING 612
SWIDTH 600 0
DWIDTH 6 0
BBX 6 5 0 0
BITMAP
7AD0
0A00
1540
2580
1F40
ENDCHAR
STARTCHAR uni0265
ENCODING 613
SWIDTH 600 0
DWIDTH 6 0
BBX 5 7 0 -2
BITMAP
6080
6080
6080
61C0
2E80
0080
0080
ENDCHAR
STARTCHAR uni0266
ENCODING 614
SWIDTH 600 0
DWIDTH 6 0
BBX 5 7 1 0
BITMAP
B800
C000
AE00
D240
8240
8240
8240
ENDCHAR
STARTCHAR uni0267
ENCODING 615
SWIDTH 600 0
DWIDTH 6 0
BBX 5 9 1 -2
BITMAP
B800
C000
AE00
D200
8240
8240
8240
0240
0A00
ENDCHAR
STARTCHAR uni0268
ENCODING 616
SWIDTH 600 0
DWIDTH 6 0
BBX 5 7 1 0
BITMAP
0C00
0000
FC00
0800
BF80
0800
0800
ENDCHAR
STARTCHAR uni026A
ENCODING 618
SWIDTH 600 0
DWIDTH 6 0
BBX 4 5 1 0
BITMAP
FF
14
14
14
FF
ENDCHAR
STARTCHAR uni026B
ENCODING 619
SWIDTH 600 0
DWIDTH 6 0
BBX 6 7 0 0
BITMAP
7D00
0900
2D80
2B40
0900
0900
07D0
ENDCHAR
STARTCHAR uni026C
ENCODING 620
SWIDTH 600 0
DWIDTH 6 0
BBX 6 7 0 0
BITMAP
7D00
3D00
6900
2F80
0900
0500
07D0
ENDCHAR
STARTCHAR uni026D
ENCODING 621
SWIDTH 600 0
DWIDTH 6 0
BBX 6 9 0 -2
BITMAP
7D00
0900
0900
0900
0900
0900
0900
0500
07D0
ENDCHAR
STARTCHAR uni026E
ENCODING 622
SWIDTH 600 0
DWIDTH 6 0
BBX 6 9 0 -2
BITMAP
6000
6000
7FD0
6080
6200
67D0
6060
0460
0B80
ENDCHAR
STARTCHAR uni026F
ENCODING 623
SWIDTH 600 0
DWIDTH 6 0
BBX 6 5 0 0
BITMAP
9550
9550
9550
9990
7B90
ENDCHAR
STARTCHAR uni0270
ENCODING 624
SWIDTH 600 0
DWIDTH 6 0
BBX 6 7 0 -2
BITMAP
9550
9550
9550
9990
7B90
0050
0050
ENDCHAR
STARTCHAR uni0271
ENCODING 625
SWIDTH 600 0
DWIDTH 6 0
BBX 6 7 0 -2
BITMAP
6ED0
6660
5560
5560
5560
0060
01D0
ENDCHAR
STARTCHAR uni0272
ENCODING 626
SWIDTH 600 0
DWIDTH 6 0
BBX 6 7 0 -2
BITMAP
2B80
3490
2090
2090
2090
2000
D000
ENDCHAR
STARTCHAR uni0273
ENCODING 627
SWIDTH 600 0
DWIDTH 6 0
BBX 5 7 1 -2
BITMAP
AE00
D200
8240
8240
8240
0240
01C0
ENDCHAR
STARTCHAR uni0274
ENCODING 628
SWIDTH 600 0
DWIDTH 6 0
BBX 4 5 1 0
BITMAP
C2
A2
96
8A
83
ENDCHAR
STARTCHAR uni0275
ENCODING 629
SWIDTH 600 0
DWIDTH 6 0
BBX 6 5 0 0
BITMAP
1F40
6090
7FD0
6090
1F40
ENDCHAR
STARTCHAR uni0276
ENCODING 630
SWIDTH 600 0
DWIDTH 6 0
BBX 6 5 0 0
BITMAP
2FE0
6200
93D0
6200
2FF0
ENDCHAR
STARTCHAR uni0278
ENCODING 632
SWIDTH 600 0
DWIDTH 6 0
BBX 6 9 0 -2
BITMAP
0500
0500
2F80
6590
9560
6590
2F80
0500
0500
ENDCHAR
STARTCHAR uni0279
ENCODING 633
SWIDTH 600 0
DWIDTH 6 0
BBX 5 5 0 0
BITMAP
0180
0180
0180
0680
7980
ENDCHAR
STARTCHAR uni027A
ENCODING 634
SWIDTH 600 0
DWIDTH 6 0
BBX 5 7 0 0
BITMAP
0180
0180
0180
0180
0180
0680
7980
ENDCHAR
STARTCHAR uni027B
ENCODING 635
SWIDTH 600 0
DWIDTH 6 0
BBX 5 7 0 -2
BITMAP
0200
0200
0200
0600
7A00
0200
02C0
ENDCHAR
STARTCHAR uni027D
ENCODING 637
SWIDTH 600 0
DWIDTH 6 0
BBX 5 7 1 -2
BITMAP
9B40
A400
9000
9000
9000
6000
2E00
ENDCHAR
STARTCHAR uni027E
ENCODING 638
SWIDTH 600 0
DWIDTH 6 0
BBX 5 5 1 0
BITMAP
2F40
6000
9000
9000
9000
ENDCHAR
STARTCHAR uni0280
ENCODING 640
SWIDTH 600 0
DWIDTH 6 0
BBX 5 5 1 0
BITMAP
FE00
8240
FE00
8900
8200
ENDCHAR
STARTCHAR uni0281
ENCODING 641
SWIDTH 600 0
DWIDTH 6 0
BBX 5 5 0 0
BITMAP
2080
1880
2FC0
6080
2FC0
ENDCHAR
STARTCHAR uni0282
ENCODING 642
SWIDTH 600 0
DWIDTH 6 0
BBX 6 7 0 -2
BITMAP
1F40
3040
1A40
1090
7F80
6000
3800
ENDCHAR
STARTCHAR uni0283
ENCODING 643
SWIDTH 600 0
DWIDTH 6 0
BBX 6 9 0 -2
BITMAP
02D0
0600
0500
0500
0500
0500
0500
0900
7C00
ENDCHAR
STARTCHAR uni0284
ENCODING 644
SWIDTH 600 0
DWIDTH 6 0
BBX 6 9 0 -2
BITMAP
02D0
0600
0500
0500
3FC0
0500
0500
0900
7C00
ENDCHAR
STARTCHAR uni0287
ENCODING 647
SWIDTH 600 0
DWIDTH 6 0
BBX 6 7 0 -2
BITMAP
7D00
0300
0200
0200
7FD0
0200
0200
ENDCHAR
STARTCHAR uni0288
ENCODING 648
SWIDTH 600 0
DWIDTH 6 0
BBX 6 9 0 -2
BITMAP
0800
0800
7FD0
0800
0800
0800
0800
0C00
07D0
ENDCHAR
STARTCHAR uni0289
ENCODING 649
SWIDTH 600 0
DWIDTH 6 0
BBX 6 5 0 0
BITMAP
2080
FFF0
2080
31C0
2E80
ENDCHAR
STARTCHAR uni028A
ENCODING 650
SWIDTH 600 0
DWIDTH 6 0
BBX 6 5 0 0
BITMAP
B5E0
2080
5050
6090
2F80
ENDCHAR
STARTCHAR uni028B
ENCODING 651
SWIDTH 600 0
DWIDTH 6 0
BBX 6 5 0 0
BITMAP
6280
6090
6090
30C0
1F40
ENDCHAR
STARTCHAR uni028C
ENCODING 652
SWIDTH 600 0
DWIDTH 6 0
BBX 6 5 0 0
BITMAP
0A00
0A00
1540
2080
5090
ENDCHAR
STARTCHAR uni028D
ENCODING 653
SWIDTH 600 0
DWIDTH 6 0
BBX 6 5 0 0
BITMAP
35C0
6A90
5A50
8A60
8520
ENDCHAR
STARTCHAR uni028E
ENCODING 654
SWIDTH 600 0
DWIDTH 6 0
BBX 6 7 0 0
BITMAP
01D0
0600
0900
0A00
1540
2080
5090
ENDCHAR
STARTCHAR uni028F
ENCODING 655
SWIDTH 600 0
DWIDTH 6 0
BBX 5 5 1 0
BITMAP
8240
9600
2800
1400
1400
ENDCHAR
STARTCHAR uni0290
ENCODING 656
SWIDTH 600 0
DWIDTH 6 0
BBX 6 7 0 -2
BITMAP
3FC0
0240
0900
2400
7FD0
0090
0070
ENDCHAR
STARTCHAR uni0291
ENCODING 657
SWIDTH 600 0
DWIDTH 6 0
BBX 6 6 0 -1
BITMAP
3FC0
0240
09A0
2560
7FD0
0200
ENDCHAR
STARTCHAR uni0292
ENCODING 658
SWIDTH 600 0
DWIDTH 6 0
BBX 6 7 0 -2
BITMAP
3FC0
0500
1F40
00C0
0090
51C0
2F40
ENDCHAR
STARTCHAR uni0294
ENCODING 660
SWIDTH 600 0
DWIDTH 6 0
BBX 4 7 1 0
BITMAP
7D
47
02
09
24
24
24
ENDCHAR
STARTCHAR uni0295
ENCODING 661
SWIDTH 600 0
DWIDTH 6 0
BBX 4 7 1 0
BITMAP
7D
C2
80
60
18
18
18
ENDCHAR
STARTCHAR uni0298
ENCODING 664
SWIDTH 600 0
DWIDTH 6 0
BBX 6 7 0 0
BITMAP
1F40
30C0
6090
5A50
6090
30C0
1F40
ENDCHAR
STARTCHAR uni0299
ENCODING 665
SWIDTH 600 0
DWIDTH 6 0
BBX 5 5 1 0
BITMAP
FE00
8240
FE00
8240
FE00
ENDCHAR
STARTCHAR uni029C
ENCODING 668
SWIDTH 600 0
DWIDTH 6 0
BBX 4 5 1 0
BITMAP
82
82
FF
82
82
ENDCHAR
STARTCHAR uni029D
ENCODING 669
SWIDTH 600 0
DWIDTH 6 0
BBX 5 10 0 -3
BITMAP
0300
0000
3F00
0200
0200
0200
3F00
5700
3E40
0080
ENDCHAR
STARTCHAR uni029E
ENCODING 670
SWIDTH 600 0
DWIDTH 6 0
BBX 5 7 0 -2
BITMAP
2080
14C0
0AC0
1880
6080
0080
0080
ENDCHAR
STARTCHAR uni029F
ENCODING 671
SWIDTH 600 0
DWIDTH 6 0
BBX 5 5 1 0
BITMAP
9000
9000
9000
9000
BF40
ENDCHAR
STARTCHAR uni02A1
ENCODING 673
SWIDTH 600 0
DWIDTH 6 0
BBX 6 7 0 0
BITMAP
1F40
20C0
0080
0240
7FD0
0900
0900
ENDCHAR
STARTCHAR uni02A2
ENCODING 674
SWIDTH 600 0
DWIDTH 6 0
BBX 6 7 0 0
BITMAP
1F40
3080
2000
1800
7FD0
0600
0600
ENDCHAR
STARTCHAR uni02A4
ENCODING 676
SWIDTH 600 0
DWIDTH 6 0
BBX 6 9 0 -2
BITMAP
0500
0500
7FF0
8950
8580
8AE0
7920
0120
02E0
ENDCHAR
STARTCHAR uni02A6
ENCODING 678
SWIDTH 600 0
DWIDTH 6 0
BBX 6 7 0 0
BITMAP
1000
2000
BFD0
2300
2190
3060
1FD0
ENDCHAR
STARTCHAR uni02A7
ENCODING 679
SWIDTH 600 0
DWIDTH 6 0
BBX 6 9 0 -2
BITMAP
20B0
20C0
7FC0
2080
2080
2080
1D80
0080
0380
ENDCHAR
STARTCHAR h.sups
ENCODING 688
SWIDTH 600 0
DWIDTH 6 0
BBX 4 5 1 3
BITMAP
50
6D
66
52
51
ENDCHAR
STARTCHAR j.sups
ENCODING 690
SWIDTH 600 0
DWIDTH 6 0
BBX 3 7 1 2
BITMAP
08
00
78
08
08
08
74
ENDCHAR
STARTCHAR r.sups
ENCODING 691
SWIDTH 600 0
DWIDTH 6 0
BBX 3 4 2 3
BITMAP
AC
90
80
40
ENDCHAR
STARTCHAR w.sups
ENCODING 695
SWIDTH 600 0
DWIDTH 6 0
BBX 5 3 0 4
BITMAP
5980
2A80
2640
ENDCHAR
STARTCHAR y.sups
ENCODING 696
SWIDTH 600 0
DWIDTH 6 0
BBX 4 5 1 2
BITMAP
55
28
18
14
60
ENDCHAR
STARTCHAR uni02B9
ENCODING 697
SWIDTH 600 0
DWIDTH 6 0
BBX 2 3 2 4
BITMAP
60
50
50
ENDCHAR
STARTCHAR uni02BB
ENCODING 699
SWIDTH 600 0
DWIDTH 6 0
BBX 2 3 2 4
BITMAP
50
80
A0
ENDCHAR
STARTCHAR uni02BC
ENCODING 700
SWIDTH 600 0
DWIDTH 6 0
BBX 2 3 2 4
BITMAP
A0
20
90
ENDCHAR
STARTCHAR uni02BE
ENCODING 702
SWIDTH 600 0
DWIDTH 6 0
BBX 2 4 2 5
BITMAP
A0
20
20
A0
ENDCHAR
STARTCHAR uni02BF
ENCODING 703
SWIDTH 600 0
DWIDTH 6 0
BBX 2 4 2 5
BITMAP
A0
80
80
A0
ENDCHAR
STARTCHAR uni02C1
ENCODING 705
SWIDTH 600 0
DWIDTH 6 0
BBX 3 4 1 5
BITMAP
2C
50
60
14
ENDCHAR
STARTCHAR circumflex
ENCODING 710
SWIDTH 600 0
DWIDTH 6 0
BBX 4 2 1 6
BITMAP
28
55
ENDCHAR
STARTCHAR caron
ENCODING 711
SWIDTH 600 0
DWIDTH 6 0
BBX 4 2 1 6
BITMAP
55
28
ENDCHAR
STARTCHAR uni02C8
ENCODING 712
SWIDTH 600 0
DWIDTH 6 0
BBX 2 3 2 4
BITMAP
50
50
50
ENDCHAR
STARTCHAR uni02C9
ENCODING 713
SWIDTH 600 0
DWIDTH 6 0
BBX 4 1 1 6
BITMAP
7D
ENDCHAR
STARTCHAR uni02CA
ENCODING 714
SWIDTH 600 0
DWIDTH 6 0
BBX 2 2 2 6
BITMAP
20
50
ENDCHAR
STARTCHAR uni02CB
ENCODING 715
SWIDTH 600 0
DWIDTH 6 0
BBX 2 2 2 6
BITMAP
80
50
ENDCHAR
STARTCHAR uni02CC
ENCODING 716
SWIDTH 600 0
DWIDTH 6 0
BBX 2 3 2 -2
BITMAP
50
50
50
ENDCHAR
STARTCHAR uni02D0
ENCODING 720
SWIDTH 600 0
DWIDTH 6 0
BBX 2 5 2 0
BITMAP
A0
50
00
50
A0
ENDCHAR
STARTCHAR uni02D1
ENCODING 721
SWIDTH 600 0
DWIDTH 6 0
BBX 2 2 2 3
BITMAP
A0
50
ENDCHAR
STARTCHAR breve
ENCODING 728
SWIDTH 600 0
DWIDTH 6 0
BBX 4 2 1 5
BITMAP
55
3C
ENDCHAR
STARTCHAR dotaccent
ENCODING 729
SWIDTH 600 0
DWIDTH 6 0
BBX 2 1 2 6
BITMAP
50
ENDCHAR
STARTCHAR ring
ENCODING 730
SWIDTH 600 0
DWIDTH 6 0
BBX 2 3 2 5
BITMAP
A0
A0
A0
ENDCHAR
STARTCHAR ogonek
ENCODING 731
SWIDTH 600 0
DWIDTH 6 0
BBX 2 2 2 -2
BITMAP
40
A0
ENDCHAR
STARTCHAR tilde
ENCODING 732
SWIDTH 600 0
DWIDTH 6 0
BBX 4 2 1 6
BITMAP
76
8D
ENDCHAR
STARTCHAR hungarumlaut
ENCODING 733
SWIDTH 600 0
DWIDTH 6 0
BBX 3 2 2 6
BITMAP
58
94
ENDCHAR
STARTCHAR uni02DE
ENCODING 734
SWIDTH 600 0
DWIDTH 6 0
BBX 3 2 1 2
BITMAP
60
18
ENDCHAR
STARTCHAR uni02E0
ENCODING 736
SWIDTH 600 0
DWIDTH 6 0
BBX 4 5 1 2
BITMAP
55
28
28
14
28
ENDCHAR
STARTCHAR l.sups
ENCODING 737
SWIDTH 600 0
DWIDTH 6 0
BBX 3 5 2 4
BITMAP
D0
50
50
50
34
ENDCHAR
STARTCHAR s.sups
ENCODING 738
SWIDTH 600 0
DWIDTH 6 0
BBX 3 3 2 4
BITMAP
F0
00
B4
ENDCHAR
STARTCHAR x.sups
ENCODING 739
SWIDTH 600 0
DWIDTH 6 0
BBX 3 3 2 4
BITMAP
94
60
A0
ENDCHAR
STARTCHAR uni02E4
ENCODING 740
SWIDTH 600 0
DWIDTH 6 0
BBX 3 5 1 4
BITMAP
2C
50
60
14
14
ENDCHAR
STARTCHAR uni0300
ENCODING 768
SWIDTH 600 0
DWIDTH 6 0
BBX 2 2 2 6
BITMAP
80
50
ENDCHAR
STARTCHAR uni0301
ENCODING 769
SWIDTH 600 0
DWIDTH 6 0
BBX 2 2 2 6
BITMAP
20
50
ENDCHAR
STARTCHAR uni0302
ENCODING 770
SWIDTH 600 0
DWIDTH 6 0
BBX 4 2 1 6
BITMAP
28
55
ENDCHAR
STARTCHAR uni0303
ENCODING 771
SWIDTH 600 0
DWIDTH 6 0
BBX 4 2 1 6
BITMAP
76
8D
ENDCHAR
STARTCHAR uni0304
ENCODING 772
SWIDTH 600 0
DWIDTH 6 0
BBX 4 1 1 6
BITMAP
7D
ENDCHAR
STARTCHAR uni0305
ENCODING 773
SWIDTH 600 0
DWIDTH 6 0
BBX 4 1 1 6
BITMAP
7D
ENDCHAR
STARTCHAR uni0306
ENCODING 774
SWIDTH 600 0
DWIDTH 6 0
BBX 4 2 1 5
BITMAP
55
3C
ENDCHAR
STARTCHAR uni0307
ENCODING 775
SWIDTH 600 0
DWIDTH 6 0
BBX 2 1 2 6
BITMAP
50
ENDCHAR
STARTCHAR uni0308
ENCODING 776
SWIDTH 600 0
DWIDTH 6 0
BBX 4 1 1 6
BITMAP
55
ENDCHAR
STARTCHAR uni0309
ENCODING 777
SWIDTH 600 0
DWIDTH 6 0
BBX 2 3 2 5
BITMAP
90
20
50
ENDCHAR
STARTCHAR uni030A
ENCODING 778
SWIDTH 600 0
DWIDTH 6 0
BBX 2 3 2 5
BITMAP
A0
A0
A0
ENDCHAR
STARTCHAR uni030B
ENCODING 779
SWIDTH 600 0
DWIDTH 6 0
BBX 3 2 2 6
BITMAP
58
94
ENDCHAR
STARTCHAR uni030C
ENCODING 780
SWIDTH 600 0
DWIDTH 6 0
BBX 4 2 1 6
BITMAP
55
28
ENDCHAR
STARTCHAR uni030F
ENCODING 783
SWIDTH 600 0
DWIDTH 6 0
BBX 3 2 1 6
BITMAP
94
58
ENDCHAR
STARTCHAR uni0310
ENCODING 784
SWIDTH 600 0
DWIDTH 6 0
BBX 4 3 1 5
BITMAP
14
95
3C
ENDCHAR
STARTCHAR uni0311
ENCODING 785
SWIDTH 600 0
DWIDTH 6 0
BBX 4 2 1 5
BITMAP
3C
55
ENDCHAR
STARTCHAR uni0312
ENCODING 786
SWIDTH 600 0
DWIDTH 6 0
BBX 2 2 2 5
BITMAP
50
50
ENDCHAR
STARTCHAR uni0313
ENCODING 787
SWIDTH 600 0
DWIDTH 6 0
BBX 2 2 2 6
BITMAP
50
50
ENDCHAR
STARTCHAR uni0318
ENCODING 792
SWIDTH 600 0
DWIDTH 6 0
BBX 2 3 2 -3
BITMAP
10
B0
10
ENDCHAR
STARTCHAR uni0319
ENCODING 793
SWIDTH 600 0
DWIDTH 6 0
BBX 2 3 2 -3
BITMAP
40
E0
40
ENDCHAR
STARTCHAR uni031A
ENCODING 794
SWIDTH 600 0
DWIDTH 6 0
BBX 2 2 2 5
BITMAP
B0
10
ENDCHAR
STARTCHAR uni031B
ENCODING 795
SWIDTH 600 0
DWIDTH 6 0
BBX 2 2 3 4
BITMAP
50
90
ENDCHAR
STARTCHAR uni031C
ENCODING 796
SWIDTH 600 0
DWIDTH 6 0
BBX 2 3 2 -3
BITMAP
60
80
60
ENDCHAR
STARTCHAR uni031D
ENCODING 797
SWIDTH 600 0
DWIDTH 6 0
BBX 2 2 2 -2
BITMAP
50
F0
ENDCHAR
STARTCHAR uni031E
ENCODING 798
SWIDTH 600 0
DWIDTH 6 0
BBX 2 2 2 -3
BITMAP
F0
50
ENDCHAR
STARTCHAR uni031F
ENCODING 799
SWIDTH 600 0
DWIDTH 6 0
BBX 2 3 2 -3
BITMAP
50
F0
50
ENDCHAR
STARTCHAR uni0320
ENCODING 800
SWIDTH 600 0
DWIDTH 6 0
BBX 2 1 2 -2
BITMAP
F0
ENDCHAR
STARTCHAR uni0323
ENCODING 803
SWIDTH 600 0
DWIDTH 6 0
BBX 2 1 2 -2
BITMAP
50
ENDCHAR
STARTCHAR uni0324
ENCODING 804
SWIDTH 600 0
DWIDTH 6 0
BBX 4 1 1 -2
BITMAP
55
ENDCHAR
STARTCHAR uni0325
ENCODING 805
SWIDTH 600 0
DWIDTH 6 0
BBX 2 3 2 -3
BITMAP
A0
A0
A0
ENDCHAR
STARTCHAR uni0326
ENCODING 806
SWIDTH 600 0
DWIDTH 6 0
BBX 2 3 2 -3
BITMAP
50
20
90
ENDCHAR
STARTCHAR uni0327
ENCODING 807
SWIDTH 600 0
DWIDTH 6 0
BBX 2 4 2 -4
BITMAP
50
A0
20
90
ENDCHAR
STARTCHAR uni0328
ENCODING 808
SWIDTH 600 0
DWIDTH 6 0
BBX 2 2 2 -2
BITMAP
40
A0
ENDCHAR
STARTCHAR uni0329
ENCODING 809
SWIDTH 600 0
DWIDTH 6 0
BBX 2 2 2 -3
BITMAP
50
50
ENDCHAR
STARTCHAR uni032A
ENCODING 810
SWIDTH 600 0
DWIDTH 6 0
BBX 4 2 1 -3
BITMAP
7D
55
ENDCHAR
STARTCHAR uni032C
ENCODING 812
SWIDTH 600 0
DWIDTH 6 0
BBX 4 2 1 -2
BITMAP
55
28
ENDCHAR
STARTCHAR uni032E
ENCODING 814
SWIDTH 600 0
DWIDTH 6 0
BBX 4 2 1 -3
BITMAP
55
3C
ENDCHAR
STARTCHAR uni032F
ENCODING 815
SWIDTH 600 0
DWIDTH 6 0
BBX 4 2 1 -3
BITMAP
3C
55
ENDCHAR
STARTCHAR uni0330
ENCODING 816
SWIDTH 600 0
DWIDTH 6 0
BBX 4 2 1 -2
BITMAP
76
8D
ENDCHAR
STARTCHAR uni0331
ENCODING 817
SWIDTH 600 0
DWIDTH 6 0
BBX 4 1 1 -2
BITMAP
7D
ENDCHAR
STARTCHAR uni0334
ENCODING 820
SWIDTH 600 0
DWIDTH 6 0
BBX 4 2 1 2
BITMAP
B6
8A
ENDCHAR
STARTCHAR uni0339
ENCODING 825
SWIDTH 600 0
DWIDTH 6 0
BBX 2 3 2 -3
BITMAP
90
20
90
ENDCHAR
STARTCHAR uni033A
ENCODING 826
SWIDTH 600 0
DWIDTH 6 0
BBX 4 2 1 -3
BITMAP
55
7D
ENDCHAR
STARTCHAR uni033B
ENCODING 827
SWIDTH 600 0
DWIDTH 6 0
BBX 4 3 1 -3
BITMAP
7D
55
7D
ENDCHAR
STARTCHAR uni033C
ENCODING 828
SWIDTH 600 0
DWIDTH 6 0
BBX 4 2 1 -2
BITMAP
69
96
ENDCHAR
STARTCHAR uni033D
ENCODING 829
SWIDTH 600 0
DWIDTH 6 0
BBX 2 2 2 6
BITMAP
50
50
ENDCHAR
STARTCHAR uni0342
ENCODING 834
SWIDTH 600 0
DWIDTH 6 0
BBX 4 2 1 6
BITMAP
76
8D
ENDCHAR
STARTCHAR uni0345
ENCODING 837
SWIDTH 600 0
DWIDTH 6 0
BBX 2 1 2 -2
BITMAP
60
ENDCHAR
STARTCHAR uni035F
ENCODING 863
SWIDTH 600 0
DWIDTH 6 0
BBX 10 1 -2 -2
BITMAP
FFFFF0
ENDCHAR
STARTCHAR uni0361
ENCODING 865
SWIDTH 600 0
DWIDTH 6 0
BBX 10 2 -2 6
BITMAP
0AFA00
650590
ENDCHAR
STARTCHAR uni0374
ENCODING 884
SWIDTH 600 0
DWIDTH 6 0
BBX 2 2 2 5
BITMAP
50
50
ENDCHAR
STARTCHAR uni0375
ENCODING 885
SWIDTH 600 0
DWIDTH 6 0
BBX 2 2 2 0
BITMAP
50
50
ENDCHAR
STARTCHAR uni037A
ENCODING 890
SWIDTH 600 0
DWIDTH 6 0
BBX 2 1 2 -2
BITMAP
60
ENDCHAR
STARTCHAR uni037E
ENCODING 894
SWIDTH 600 0
DWIDTH 6 0
BBX 2 8 2 -2
BITMAP
A0
A0
00
00
A0
B0
20
90
ENDCHAR
STARTCHAR tonos
ENCODING 900
SWIDTH 600 0
DWIDTH 6 0
BBX 2 2 2 6
BITMAP
20
50
ENDCHAR
STARTCHAR dieresistonos
ENCODING 901
SWIDTH 600 0
DWIDTH 6 0
BBX 4 2 1 6
BITMAP
08
55
ENDCHAR
STARTCHAR Alphatonos
ENCODING 902
SWIDTH 600 0
DWIDTH 6 0
BBX 6 7 0 0
BITMAP
5A00
5A00
8940
1480
2FC0
2090
6060
ENDCHAR
STARTCHAR anoteleia
ENCODING 903
SWIDTH 600 0
DWIDTH 6 0
BBX 2 2 2 4
BITMAP
A0
A0
ENDCHAR
STARTCHAR Epsilontonos
ENCODING 904
SWIDTH 600 0
DWIDTH 6 0
BBX 6 7 0 0
BITMAP
5FD0
8800
8800
0F80
0800
0800
0FD0
ENDCHAR
STARTCHAR Etatonos
ENCODING 905
SWIDTH 600 0
DWIDTH 6 0
BBX 6 7 0 0
BITMAP
5850
9850
8850
0FD0
0850
0850
0850
ENDCHAR
STARTCHAR Iotatonos
ENCODING 906
SWIDTH 600 0
DWIDTH 6 0
BBX 5 7 0 0
BITMAP
5FC0
8200
8200
0200
0200
0200
0FC0
ENDCHAR
STARTCHAR Omicrontonos
ENCODING 908
SWIDTH 600 0
DWIDTH 6 0
BBX 6 7 0 0
BITMAP
5B80
9890
9450
2450
1450
1890
0B80
ENDCHAR
STARTCHAR Upsilontonos
ENCODING 910
SWIDTH 600 0
DWIDTH 6 0
BBX 6 7 0 0
BITMAP
5820
5950
8680
0280
0140
0140
0140
ENDCHAR
STARTCHAR Omegatonos
ENCODING 911
SWIDTH 600 0
DWIDTH 6 0
BBX 6 7 0 0
BITMAP
5B80
9890
9450
1450
1450
0880
2DE0
ENDCHAR
STARTCHAR iotadieresistonos
ENCODING 912
SWIDTH 600 0
DWIDTH 6 0
BBX 5 8 0 0
BITMAP
0500
2540
0000
7D00
0900
0900
0900
07C0
ENDCHAR
STARTCHAR Alpha
ENCODING 913
SWIDTH 600 0
DWIDTH 6 0
BBX 6 7 0 0
BITMAP
0A00
0A00
1540
2180
3FC0
6090
9060
ENDCHAR
STARTCHAR Beta
ENCODING 914
SWIDTH 600 0
DWIDTH 6 0
BBX 5 7 1 0
BITMAP
FD00
8300
8200
FE00
8240
8240
FE00
ENDCHAR
STARTCHAR Gamma
ENCODING 915
SWIDTH 600 0
DWIDTH 6 0
BBX 5 7 1 0
BITMAP
BF40
9000
9000
9000
9000
9000
9000
ENDCHAR
STARTCHAR uni0394
ENCODING 916
SWIDTH 600 0
DWIDTH 6 0
BBX 6 7 0 0
BITMAP
0A00
0A00
1540
2080
2080
6090
BFE0
ENDCHAR
STARTCHAR Epsilon
ENCODING 917
SWIDTH 600 0
DWIDTH 6 0
BBX 5 7 1 0
BITMAP
FF40
C000
C000
FE00
C000
C000
FF40
ENDCHAR
STARTCHAR Zeta
ENCODING 918
SWIDTH 600 0
DWIDTH 6 0
BBX 6 7 0 0
BITMAP
3FD0
0080
0240
0500
1800
2000
7FD0
ENDCHAR
STARTCHAR Eta
ENCODING 919
SWIDTH 600 0
DWIDTH 6 0
BBX 6 7 0 0
BITMAP
6090
6090
6090
7FD0
6090
6090
6090
ENDCHAR
STARTCHAR Theta
ENCODING 920
SWIDTH 600 0
DWIDTH 6 0
BBX 6 7 0 0
BITMAP
1F40
30C0
5050
5F50
5090
30C0
1F40
ENDCHAR
STARTCHAR Iota
ENCODING 921
SWIDTH 600 0
DWIDTH 6 0
BBX 4 7 1 0
BITMAP
FF
14
14
14
14
14
FF
ENDCHAR
STARTCHAR Kappa
ENCODING 922
SWIDTH 600 0
DWIDTH 6 0
BBX 5 7 1 0
BITMAP
8240
8900
9800
E800
C500
8200
8180
ENDCHAR
STARTCHAR Lambda
ENCODING 923
SWIDTH 600 0
DWIDTH 6 0
BBX 6 7 0 0
BITMAP
0A00
0A00
1A40
2580
2080
2080
5050
ENDCHAR
STARTCHAR Mu
ENCODING 924
SWIDTH 600 0
DWIDTH 6 0
BBX 6 7 0 0
BITMAP
70D0
75D0
6A90
5A90
6990
6090
6090
ENDCHAR
STARTCHAR Nu
ENCODING 925
SWIDTH 600 0
DWIDTH 6 0
BBX 6 7 0 0
BITMAP
7090
7490
6890
6590
6290
61D0
60D0
ENDCHAR
STARTCHAR Xi
ENCODING 926
SWIDTH 600 0
DWIDTH 6 0
BBX 6 7 0 0
BITMAP
7FD0
0000
0000
2F80
0000
0000
7FD0
ENDCHAR
STARTCHAR Omicron
ENCODING 927
SWIDTH 600 0
DWIDTH 6 0
BBX 6 7 0 0
BITMAP
1F40
30C0
5050
5050
5050
30C0
1F40
ENDCHAR
STARTCHAR Pi
ENCODING 928
SWIDTH 600 0
DWIDTH 6 0
BBX 6 7 0 0
BITMAP
7FD0
6090
6090
6090
6090
6090
6090
ENDCHAR
STARTCHAR Rho
ENCODING 929
SWIDTH 600 0
DWIDTH 6 0
BBX 5 7 1 0
BITMAP
FE00
8240
8240
FE00
8000
8000
8000
ENDCHAR
STARTCHAR Sigma
ENCODING 931
SWIDTH 600 0
DWIDTH 6 0
BBX 6 7 0 0
BITMAP
7FC0
2400
0800
0600
0800
2400
7FD0
ENDCHAR
STARTCHAR Tau
ENCODING 932
SWIDTH 600 0
DWIDTH 6 0
BBX 6 7 0 0
BITMAP
BFE0
0500
0500
0500
0500
0500
0500
ENDCHAR
STARTCHAR Upsilon
ENCODING 933
SWIDTH 600 0
DWIDTH 6 0
BBX 6 7 0 0
BITMAP
6050
2080
1540
0A00
0500
0500
0500
ENDCHAR
STARTCHAR Phi
ENCODING 934
SWIDTH 600 0
DWIDTH 6 0
BBX 6 7 0 0
BITMAP
0500
2F80
A5A0
8520
A5A0
2F80
0500
ENDCHAR
STARTCHAR Chi
ENCODING 935
SWIDTH 600 0
DWIDTH 6 0
BBX 6 7 0 0
BITMAP
2080
2580
0A00
0A00
0A00
2580
6090
ENDCHAR
STARTCHAR Psi
ENCODING 936
SWIDTH 600 0
DWIDTH 6 0
BBX 6 7 0 0
BITMAP
9560
9560
9560
6590
2F80
0500
0500
ENDCHAR
STARTCHAR uni03A9
ENCODING 937
SWIDTH 600 0
DWIDTH 6 0
BBX 6 7 0 0
BITMAP
1F40
30C0
5050
5050
6090
2080
B5E0
ENDCHAR
STARTCHAR Iotadieresis
ENCODING 938
SWIDTH 600 0
DWIDTH 6 0
BBX 4 8 1 0
BITMAP
55
FF
14
14
14
14
14
FF
ENDCHAR
STARTCHAR Upsilondieresis
ENCODING 939
SWIDTH 600 0
DWIDTH 6 0
BBX 6 8 0 0
BITMAP
1540
6050
2080
1540
0A00
0500
0500
0500
ENDCHAR
STARTCHAR alphatonos
ENCODING 940
SWIDTH 600 0
DWIDTH 6 0
BBX 6 8 0 0
BITMAP
0200
0200
0000
1E90
61C0
5080
61C0
2EA0
ENDCHAR
STARTCHAR epsilontonos
ENCODING 941
SWIDTH 600 0
DWIDTH 6 0
BBX 4 8 1 0
BITMAP
08
08
00
7E
91
7C
C1
BE
ENDCHAR
STARTCHAR etatonos
ENCODING 942
SWIDTH 600 0
DWIDTH 6 0
BBX 4 10 1 -2
BITMAP
08
08
00
AE
D2
82
82
82
02
02
ENDCHAR
STARTCHAR iotatonos
ENCODING 943
SWIDTH 600 0
DWIDTH 6 0
BBX 5 8 0 0
BITMAP
0600
0500
0000
7D00
0900
0900
0900
07C0
ENDCHAR
STARTCHAR upsilondieresistonos
ENCODING 944
SWIDTH 600 0
DWIDTH 6 0
BBX 5 8 1 0
BITMAP
0800
9500
0000
8200
8240
8240
8300
7D00
ENDCHAR
STARTCHAR alpha
ENCODING 945
SWIDTH 600 0
DWIDTH 6 0
BBX 6 5 0 0
BITMAP
1E90
61C0
5080
61C0
2EA0
ENDCHAR
STARTCHAR beta
ENCODING 946
SWIDTH 600 0
DWIDTH 6 0
BBX 5 9 1 -2
BITMAP
7D00
C600
8500
9E00
8240
D240
AE00
8000
8000
ENDCHAR
STARTCHAR gamma
ENCODING 947
SWIDTH 600 0
DWIDTH 6 0
BBX 6 7 0 -2
BITMAP
6090
2480
1980
0A40
0A00
0500
0500
ENDCHAR
STARTCHAR delta
ENCODING 948
SWIDTH 600 0
DWIDTH 6 0
BBX 6 7 0 0
BITMAP
2F80
2040
0900
2580
6090
6090
1F80
ENDCHAR
STARTCHAR epsilon
ENCODING 949
SWIDTH 600 0
DWIDTH 6 0
BBX 4 5 1 0
BITMAP
7E
91
7C
C1
BE
ENDCHAR
STARTCHAR zeta
ENCODING 950
SWIDTH 600 0
DWIDTH 6 0
BBX 5 9 1 -2
BITMAP
BF40
0500
2400
5000
8000
9000
6E00
0240
0200
ENDCHAR
STARTCHAR eta
ENCODING 951
SWIDTH 600 0
DWIDTH 6 0
BBX 4 7 1 -2
BITMAP
AE
D2
82
82
82
02
02
ENDCHAR
STARTCHAR theta
ENCODING 952
SWIDTH 600 0
DWIDTH 6 0
BBX 6 7 0 0
BITMAP
1F40
2080
6090
7FD0
6090
2080
1F40
ENDCHAR
STARTCHAR iota
ENCODING 953
SWIDTH 600 0
DWIDTH 6 0
BBX 5 5 0 0
BITMAP
7D00
0900
0900
0900
07C0
ENDCHAR
STARTCHAR kappa
ENCODING 954
SWIDTH 600 0
DWIDTH 6 0
BBX 5 5 1 0
BITMAP
8240
8900
E800
C600
8240
ENDCHAR
STARTCHAR lambda
ENCODING 955
SWIDTH 600 0
DWIDTH 6 0
BBX 6 7 0 0
BITMAP
7800
0900
0600
0A00
1980
2080
6090
ENDCHAR
STARTCHAR uni03BC
ENCODING 956
SWIDTH 600 0
DWIDTH 6 0
BBX 5 7 1 -2
BITMAP
8200
8200
8200
C700
FA40
8000
8000
ENDCHAR
STARTCHAR nu
ENCODING 957
SWIDTH 600 0
DWIDTH 6 0
BBX 6 5 0 0
BITMAP
6090
2480
1880
0A40
0A00
ENDCHAR
STARTCHAR xi
ENCODING 958
SWIDTH 600 0
DWIDTH 6 0
BBX 5 9 1 -2
BITMAP
FF40
6000
6000
2E00
9000
9000
6E00
0240
0200
ENDCHAR
STARTCHAR omicron
ENCODING 959
SWIDTH 600 0
DWIDTH 6 0
BBX 6 5 0 0
BITMAP
1F40
2080
6090
2080
1F40
ENDCHAR
STARTCHAR pi
ENCODING 960
SWIDTH 600 0
DWIDTH 6 0
BBX 6 5 0 0
BITMAP
BFE0
2080
2080
2080
2090
ENDCHAR
STARTCHAR rho
ENCODING 961
SWIDTH 600 0
DWIDTH 6 0
BBX 5 7 1 -2
BITMAP
7E00
9240
8140
C240
FD00
8000
8000
ENDCHAR
STARTCHAR uni03C2
ENCODING 962
SWIDTH 600 0
DWIDTH 6 0
BBX 4 7 1 -2
BITMAP
6E
91
80
D0
6E
02
02
ENDCHAR
STARTCHAR sigma
ENCODING 963
SWIDTH 600 0
DWIDTH 6 0
BBX 6 5 0 0
BITMAP
1FE0
6180
5080
61C0
1F40
ENDCHAR
STARTCHAR tau
ENCODING 964
SWIDTH 600 0
DWIDTH 6 0
BBX 6 5 0 0
BITMAP
7FD0
0500
0500
0500
0780
ENDCHAR
STARTCHAR upsilon
ENCODING 965
SWIDTH 600 0
DWIDTH 6 0
BBX 5 5 1 0
BITMAP
8200
8240
8240
8300
7D00
ENDCHAR
STARTCHAR phi
ENCODING 966
SWIDTH 600 0
DWIDTH 6 0
BBX 6 8 0 -2
BITMAP
0500
2F80
6590
9560
6590
2F80
0500
0500
ENDCHAR
STARTCHAR chi
ENCODING 967
SWIDTH 600 0
DWIDTH 6 0
BBX 6 7 0 -2
BITMAP
2080
2540
0A00
0A00
0A00
2580
6090
ENDCHAR
STARTCHAR psi
ENCODING 968
SWIDTH 600 0
DWIDTH 6 0
BBX 6 8 0 -2
BITMAP
0500
5550
5550
5550
6590
2F80
0500
0500
ENDCHAR
STARTCHAR omega
ENCODING 969
SWIDTH 600 0
DWIDTH 6 0
BBX 6 5 0 0
BITMAP
2080
5550
8560
9960
3AC0
ENDCHAR
STARTCHAR iotadieresis
ENCODING 970
SWIDTH 600 0
DWIDTH 6 0
BBX 5 7 0 0
BITMAP
2640
0000
7D00
0900
0900
0900
07C0
ENDCHAR
STARTCHAR upsilondieresis
ENCODING 971
SWIDTH 600 0
DWIDTH 6 0
BBX 5 7 1 0
BITMAP
5500
0000
8200
8240
8240
8300
7D00
ENDCHAR
STARTCHAR omicrontonos
ENCODING 972
SWIDTH 600 0
DWIDTH 6 0
BBX 6 8 0 0
BITMAP
0200
0500
0000
1F40
2080
6090
2080
1F40
ENDCHAR
STARTCHAR upsilontonos
ENCODING 973
SWIDTH 600 0
DWIDTH 6 0
BBX 5 8 1 0
BITMAP
0800
1400
0000
8200
8240
8240
8300
7D00
ENDCHAR
STARTCHAR omegatonos
ENCODING 974
SWIDTH 600 0
DWIDTH 6 0
BBX 6 8 0 0
BITMAP
0200
0500
0000
2080
5550
8560
9960
3AC0
ENDCHAR
STARTCHAR uni03D0
ENCODING 976
SWIDTH 600 0
DWIDTH 6 0
BBX 5 7 1 0
BITMAP
7D00
C600
8200
AD00
8240
D240
7E00
ENDCHAR
STARTCHAR uni03D1
ENCODING 977
SWIDTH 600 0
DWIDTH 6 0
BBX 5 7 1 0
BITMAP
BD00
8600
8240
7F40
4240
C200
7D00
ENDCHAR
STARTCHAR uni03D5
ENCODING 981
SWIDTH 600 0
DWIDTH 6 0
BBX 6 8 0 -2
BITMAP
0500
2F80
6590
9560
6590
2F80
0500
0500
ENDCHAR
STARTCHAR uni03D7
ENCODING 983
SWIDTH 600 0
DWIDTH 6 0
BBX 5 7 1 -2
BITMAP
8240
8900
E800
C600
8240
0240
0600
ENDCHAR
STARTCHAR uni03D9
ENCODING 985
SWIDTH 600 0
DWIDTH 6 0
BBX 6 7 0 -2
BITMAP
1F40
2080
6090
6090
1F40
0500
0500
ENDCHAR
STARTCHAR uni03DB
ENCODING 987
SWIDTH 600 0
DWIDTH 6 0
BBX 4 7 1 -2
BITMAP
6F
D0
80
D0
6E
02
02
ENDCHAR
STARTCHAR uni03DD
ENCODING 989
SWIDTH 600 0
DWIDTH 6 0
BBX 5 7 1 -2
BITMAP
BF40
9000
A500
9500
9000
9000
9000
ENDCHAR
STARTCHAR uni03E1
ENCODING 993
SWIDTH 600 0
DWIDTH 6 0
BBX 5 9 1 -2
BITMAP
9000
2400
0800
1A00
9200
1B00
6240
0240
0200
ENDCHAR
STARTCHAR uni0400
ENCODING 1024
SWIDTH 600 0
DWIDTH 6 0
BBX 5 9 1 0
BITMAP
2000
0800
FF40
C000
C000
FE00
C000
C000
FF40
ENDCHAR
STARTCHAR uni0401
ENCODING 1025
SWIDTH 600 0
DWIDTH 6 0
BBX 5 8 1 0
BITMAP
2200
FF40
C000
C000
FE00
C000
C000
FF40
ENDCHAR
STARTCHAR uni0402
ENCODING 1026
SWIDTH 600 0
DWIDTH 6 0
BBX 6 7 0 0
BITMAP
FF80
1800
1F80
1860
1820
1860
19D0
ENDCHAR
STARTCHAR uni0403
ENCODING 1027
SWIDTH 600 0
DWIDTH 6 0
BBX 5 9 1 0
BITMAP
0800
1400
BF40
9000
9000
9000
9000
9000
9000
ENDCHAR
STARTCHAR uni0404
ENCODING 1028
SWIDTH 600 0
DWIDTH 6 0
BBX 6 7 0 0
BITMAP
0B80
2440
6000
7F40
6000
2450
1B80
ENDCHAR
STARTCHAR uni0405
ENCODING 1029
SWIDTH 600 0
DWIDTH 6 0
BBX 5 7 1 0
BITMAP
7D00
C100
9000
2D00
0240
8240
7E00
ENDCHAR
STARTCHAR uni0406
ENCODING 1030
SWIDTH 600 0
DWIDTH 6 0
BBX 4 7 1 0
BITMAP
FF
14
14
14
14
14
FF
ENDCHAR
STARTCHAR uni0407
ENCODING 1031
SWIDTH 600 0
DWIDTH 6 0
BBX 4 8 1 0
BITMAP
55
FF
14
14
14
14
14
FF
ENDCHAR
STARTCHAR uni0408
ENCODING 1032
SWIDTH 600 0
DWIDTH 6 0
BBX 4 7 1 0
BITMAP
BF
03
03
03
03
86
7D
ENDCHAR
STARTCHAR uni0409
ENCODING 1033
SWIDTH 600 0
DWIDTH 6 0
BBX 6 7 0 0
BITMAP
3E00
2600
2600
27D0
2660
5660
C7D0
ENDCHAR
STARTCHAR uni040A
ENCODING 1034
SWIDTH 600 0
DWIDTH 6 0
BBX 6 7 0 0
BITMAP
8500
8500
8500
BFD0
8560
8560
87D0
ENDCHAR
STARTCHAR uni040B
ENCODING 1035
SWIDTH 600 0
DWIDTH 6 0
BBX 6 7 0 0
BITMAP
FF80
1800
1F80
1860
1860
1820
1820
ENDCHAR
STARTCHAR uni040C
ENCODING 1036
SWIDTH 600 0
DWIDTH 6 0
BBX 5 9 1 0
BITMAP
0900
1400
8280
8600
8800
F800
8900
8200
8140
ENDCHAR
STARTCHAR uni040D
ENCODING 1037
SWIDTH 600 0
DWIDTH 6 0
BBX 6 9 0 0
BITMAP
0800
0500
60D0
61D0
6290
6590
6890
7490
7090
ENDCHAR
STARTCHAR uni040E
ENCODING 1038
SWIDTH 600 0
DWIDTH 6 0
BBX 6 9 0 0
BITMAP
1540
0F00
6050
2080
1580
0A40
0A00
0500
2800
ENDCHAR
STARTCHAR uni040F
ENCODING 1039
SWIDTH 600 0
DWIDTH 6 0
BBX 6 9 0 -2
BITMAP
6090
6090
6090
6090
6090
6090
7FD0
0500
0500
ENDCHAR
STARTCHAR uni0410
ENCODING 1040
SWIDTH 600 0
DWIDTH 6 0
BBX 6 7 0 0
BITMAP
0A00
0A00
1540
2180
3FC0
6090
9060
ENDCHAR
STARTCHAR uni0411
ENCODING 1041
SWIDTH 600 0
DWIDTH 6 0
BBX 5 7 1 0
BITMAP
FF00
8000
8000
FE00
8240
8240
FE00
ENDCHAR
STARTCHAR uni0412
ENCODING 1042
SWIDTH 600 0
DWIDTH 6 0
BBX 5 7 1 0
BITMAP
FD00
8300
8200
FE00
8240
8240
FE00
ENDCHAR
STARTCHAR uni0413
ENCODING 1043
SWIDTH 600 0
DWIDTH 6 0
BBX 5 7 1 0
BITMAP
BF40
9000
9000
9000
9000
9000
9000
ENDCHAR
STARTCHAR uni0414
ENCODING 1044
SWIDTH 600 0
DWIDTH 6 0
BBX 6 9 0 -2
BITMAP
0FC0
1480
1480
2080
2080
2080
BFE0
8020
8020
ENDCHAR
STARTCHAR uni0415
ENCODING 1045
SWIDTH 600 0
DWIDTH 6 0
BBX 5 7 1 0
BITMAP
FF40
C000
C000
FE00
C000
C000
FF40
ENDCHAR
STARTCHAR uni0416
ENCODING 1046
SWIDTH 600 0
DWIDTH 6 0
BBX 6 7 0 0
BITMAP
D570
6580
2580
2F80
2580
5550
8520
ENDCHAR
STARTCHAR uni0417
ENCODING 1047
SWIDTH 600 0
DWIDTH 6 0
BBX 5 7 1 0
BITMAP
7D00
4300
0200
3D00
0240
8240
BE00
ENDCHAR
STARTCHAR uni0418
ENCODING 1048
SWIDTH 600 0
DWIDTH 6 0
BBX 6 7 0 0
BITMAP
60D0
61D0
6290
6590
6890
7490
7090
ENDCHAR
STARTCHAR uni0419
ENCODING 1049
SWIDTH 600 0
DWIDTH 6 0
BBX 6 9 0 0
BITMAP
1540
0F00
60D0
61D0
6290
6590
6890
7490
7090
ENDCHAR
STARTCHAR uni041A
ENCODING 1050
SWIDTH 600 0
DWIDTH 6 0
BBX 5 7 1 0
BITMAP
8280
8600
8800
F800
8900
8200
8140
ENDCHAR
STARTCHAR uni041B
ENCODING 1051
SWIDTH 600 0
DWIDTH 6 0
BBX 6 7 0 0
BITMAP
0FD0
1890
1490
2490
2090
3090
D090
ENDCHAR
STARTCHAR uni041C
ENCODING 1052
SWIDTH 600 0
DWIDTH 6 0
BBX 6 7 0 0
BITMAP
70D0
75D0
6A90
5A90
6990
6090
6090
ENDCHAR
STARTCHAR uni041D
ENCODING 1053
SWIDTH 600 0
DWIDTH 6 0
BBX 6 7 0 0
BITMAP
6090
6090
6090
7FD0
6090
6090
6090
ENDCHAR
STARTCHAR uni041E
ENCODING 1054
SWIDTH 600 0
DWIDTH 6 0
BBX 6 7 0 0
BITMAP
1F40
30C0
5050
5050
5050
30C0
1F40
ENDCHAR
STARTCHAR uni041F
ENCODING 1055
SWIDTH 600 0
DWIDTH 6 0
BBX 6 7 0 0
BITMAP
7FD0
6090
6090
6090
6090
6090
6090
ENDCHAR
STARTCHAR uni0420
ENCODING 1056
SWIDTH 600 0
DWIDTH 6 0
BBX 5 7 1 0
BITMAP
FE00
8240
8240
FE00
8000
8000
8000
ENDCHAR
STARTCHAR uni0421
ENCODING 1057
SWIDTH 600 0
DWIDTH 6 0
BBX 6 7 0 0
BITMAP
0B80
2440
6000
6000
6000
2450
0B80
ENDCHAR
STARTCHAR uni0422
ENCODING 1058
SWIDTH 600 0
DWIDTH 6 0
BBX 6 7 0 0
BITMAP
BFE0
0500
0500
0500
0500
0500
0500
ENDCHAR
STARTCHAR uni0423
ENCODING 1059
SWIDTH 600 0
DWIDTH 6 0
BBX 6 7 0 0
BITMAP
6050
2080
1580
0A40
0A00
0500
2800
ENDCHAR
STARTCHAR uni0424
ENCODING 1060
SWIDTH 600 0
DWIDTH 6 0
BBX 6 7 0 0
BITMAP
0500
2F80
9560
8520
A5A0
2F80
0500
ENDCHAR
STARTCHAR uni0425
ENCODING 1061
SWIDTH 600 0
DWIDTH 6 0
BBX 6 7 0 0
BITMAP
2080
2580
0A00
0A00
0A00
2580
6090
ENDCHAR
STARTCHAR uni0426
ENCODING 1062
SWIDTH 600 0
DWIDTH 6 0
BBX 6 9 0 -2
BITMAP
6090
6090
6090
6090
6090
6090
7FF0
0020
0020
ENDCHAR
STARTCHAR uni0427
ENCODING 1063
SWIDTH 600 0
DWIDTH 6 0
BBX 5 7 0 0
BITMAP
5080
5080
6080
2FC0
0080
0080
0080
ENDCHAR
STARTCHAR uni0428
ENCODING 1064
SWIDTH 600 0
DWIDTH 6 0
BBX 6 7 0 0
BITMAP
8520
8520
8520
8520
8520
8520
BFE0
ENDCHAR
STARTCHAR uni0429
ENCODING 1065
SWIDTH 600 0
DWIDTH 6 0
BBX 6 9 0 -2
BITMAP
8950
8950
8950
8950
8950
8950
BFF0
0020
0020
ENDCHAR
STARTCHAR uni042A
ENCODING 1066
SWIDTH 600 0
DWIDTH 6 0
BBX 6 7 0 0
BITMAP
BC00
0800
0800
0F80
0860
0860
0F80
ENDCHAR
STARTCHAR uni042B
ENCODING 1067
SWIDTH 600 0
DWIDTH 6 0
BBX 6 7 0 0
BITMAP
5050
5050
5050
7D50
5650
5250
6950
ENDCHAR
STARTCHAR uni042C
ENCODING 1068
SWIDTH 600 0
DWIDTH 6 0
BBX 5 7 1 0
BITMAP
8000
8000
8000
FE00
8240
8240
FE00
ENDCHAR
STARTCHAR uni042D
ENCODING 1069
SWIDTH 600 0
DWIDTH 6 0
BBX 6 7 0 0
BITMAP
2E40
1180
0090
1FD0
0090
5180
2E40
ENDCHAR
STARTCHAR uni042E
ENCODING 1070
SWIDTH 600 0
DWIDTH 6 0
BBX 6 7 0 0
BITMAP
9780
9990
9860
B860
9860
9990
9780
ENDCHAR
STARTCHAR uni042F
ENCODING 1071
SWIDTH 600 0
DWIDTH 6 0
BBX 5 7 0 0
BITMAP
2FC0
6080
6080
2FC0
1880
2080
6080
ENDCHAR
STARTCHAR uni0430
ENCODING 1072
SWIDTH 600 0
DWIDTH 6 0
BBX 4 5 1 0
BITMAP
7E
43
6F
96
BA
ENDCHAR
STARTCHAR uni0431
ENCODING 1073
SWIDTH 600 0
DWIDTH 6 0
BBX 6 7 0 0
BITMAP
06C0
2900
2B80
6080
6090
30C0
1F40
ENDCHAR
STARTCHAR uni0432
ENCODING 1074
SWIDTH 600 0
DWIDTH 6 0
BBX 5 5 1 0
BITMAP
FE00
8200
FE00
8240
FE00
ENDCHAR
STARTCHAR uni0433
ENCODING 1075
SWIDTH 600 0
DWIDTH 6 0
BBX 5 5 1 0
BITMAP
BF40
9000
9000
9000
9000
ENDCHAR
STARTCHAR uni0434
ENCODING 1076
SWIDTH 600 0
DWIDTH 6 0
BBX 6 7 0 -2
BITMAP
1FC0
2480
2080
2080
BFE0
9060
9060
ENDCHAR
STARTCHAR uni0435
ENCODING 1077
SWIDTH 600 0
DWIDTH 6 0
BBX 6 5 0 0
BITMAP
1F40
2090
7FD0
2440
1F80
ENDCHAR
STARTCHAR uni0436
ENCODING 1078
SWIDTH 600 0
DWIDTH 6 0
BBX 6 5 0 0
BITMAP
9560
2580
2F80
6590
9560
ENDCHAR
STARTCHAR uni0437
ENCODING 1079
SWIDTH 600 0
DWIDTH 6 0
BBX 4 5 1 0
BITMAP
BD
46
3D
43
BE
ENDCHAR
STARTCHAR uni0438
ENCODING 1080
SWIDTH 600 0
DWIDTH 6 0
BBX 4 5 1 0
BITMAP
83
8A
96
A2
C2
ENDCHAR
STARTCHAR uni0439
ENCODING 1081
SWIDTH 600 0
DWIDTH 6 0
BBX 4 7 1 0
BITMAP
56
2D
83
8A
96
A2
C2
ENDCHAR
STARTCHAR uni043A
ENCODING 1082
SWIDTH 600 0
DWIDTH 6 0
BBX 5 5 1 0
BITMAP
8240
8900
FC00
8600
8240
ENDCHAR
STARTCHAR uni043B
ENCODING 1083
SWIDTH 600 0
DWIDTH 6 0
BBX 5 5 0 0
BITMAP
1FC0
1480
2080
2080
A080
ENDCHAR
STARTCHAR uni043C
ENCODING 1084
SWIDTH 600 0
DWIDTH 6 0
BBX 6 5 0 0
BITMAP
70D0
7590
6A90
5A50
5550
ENDCHAR
STARTCHAR uni043D
ENCODING 1085
SWIDTH 600 0
DWIDTH 6 0
BBX 4 5 1 0
BITMAP
82
82
FF
82
82
ENDCHAR
STARTCHAR uni043E
ENCODING 1086
SWIDTH 600 0
DWIDTH 6 0
BBX 6 5 0 0
BITMAP
1F40
6090
5050
6090
1F40
ENDCHAR
STARTCHAR uni043F
ENCODING 1087
SWIDTH 600 0
DWIDTH 6 0
BBX 4 5 1 0
BITMAP
FF
82
82
82
82
ENDCHAR
STARTCHAR uni0440
ENCODING 1088
SWIDTH 600 0
DWIDTH 6 0
BBX 5 7 1 -2
BITMAP
AE00
D240
8140
D240
ED00
8000
8000
ENDCHAR
STARTCHAR uni0441
ENCODING 1089
SWIDTH 600 0
DWIDTH 6 0
BBX 4 5 1 0
BITMAP
6E
D1
80
D1
6E
ENDCHAR
STARTCHAR uni0442
ENCODING 1090
SWIDTH 600 0
DWIDTH 6 0
BBX 6 5 0 0
BITMAP
7FD0
0500
0500
0500
0500
ENDCHAR
STARTCHAR uni0443
ENCODING 1091
SWIDTH 600 0
DWIDTH 6 0
BBX 6 7 0 -2
BITMAP
6050
2080
1580
0A00
0A00
0900
7800
ENDCHAR
STARTCHAR uni0444
ENCODING 1092
SWIDTH 600 0
DWIDTH 6 0
BBX 6 9 0 -2
BITMAP
0500
0500
3FC0
9560
8520
9560
3FC0
0500
0500
ENDCHAR
STARTCHAR uni0445
ENCODING 1093
SWIDTH 600 0
DWIDTH 6 0
BBX 4 5 1 0
BITMAP
82
69
28
69
82
ENDCHAR
STARTCHAR uni0446
ENCODING 1094
SWIDTH 600 0
DWIDTH 6 0
BBX 5 7 1 -2
BITMAP
8200
8200
8200
8200
FF80
0080
0080
ENDCHAR
STARTCHAR uni0447
ENCODING 1095
SWIDTH 600 0
DWIDTH 6 0
BBX 4 5 1 0
BITMAP
82
C3
BF
02
02
ENDCHAR
STARTCHAR uni0448
ENCODING 1096
SWIDTH 600 0
DWIDTH 6 0
BBX 6 5 0 0
BITMAP
5550
5550
5550
5550
7FD0
ENDCHAR
STARTCHAR uni0449
ENCODING 1097
SWIDTH 600 0
DWIDTH 6 0
BBX 6 7 0 -2
BITMAP
5550
5550
5550
5550
7FF0
0020
0020
ENDCHAR
STARTCHAR uni044A
ENCODING 1098
SWIDTH 600 0
DWIDTH 6 0
BBX 6 5 0 0
BITMAP
B800
0F80
0850
0890
0F80
ENDCHAR
STARTCHAR uni044B
ENCODING 1099
SWIDTH 600 0
DWIDTH 6 0
BBX 6 5 0 0
BITMAP
5050
7D50
5250
5250
7D50
ENDCHAR
STARTCHAR uni044C
ENCODING 1100
SWIDTH 600 0
DWIDTH 6 0
BBX 4 5 1 0
BITMAP
80
BE
82
82
BE
ENDCHAR
STARTCHAR uni044D
ENCODING 1101
SWIDTH 600 0
DWIDTH 6 0
BBX 4 5 1 0
BITMAP
B9
46
3F
42
B9
ENDCHAR
STARTCHAR uni044E
ENCODING 1102
SWIDTH 600 0
DWIDTH 6 0
BBX 6 5 0 0
BITMAP
9780
9850
B860
9850
9780
ENDCHAR
STARTCHAR uni044F
ENCODING 1103
SWIDTH 600 0
DWIDTH 6 0
BBX 5 5 0 0
BITMAP
2FC0
6080
2FC0
1880
2080
ENDCHAR
STARTCHAR uni0450
ENCODING 1104
SWIDTH 600 0
DWIDTH 6 0
BBX 6 8 0 0
BITMAP
0800
0500
0000
1F40
2090
7FD0
2440
1F80
ENDCHAR
STARTCHAR uni0451
ENCODING 1105
SWIDTH 600 0
DWIDTH 6 0
BBX 6 7 0 0
BITMAP
1980
0000
1F40
2090
7FD0
2440
1F80
ENDCHAR
STARTCHAR uni0452
ENCODING 1106
SWIDTH 600 0
DWIDTH 6 0
BBX 6 9 0 -2
BITMAP
2000
BF00
2000
2B80
3490
2090
2090
0080
0780
ENDCHAR
STARTCHAR uni0453
ENCODING 1107
SWIDTH 600 0
DWIDTH 6 0
BBX 5 8 1 0
BITMAP
0600
0800
0000
BF40
9000
9000
9000
9000
ENDCHAR
STARTCHAR uni0454
ENCODING 1108
SWIDTH 600 0
DWIDTH 6 0
BBX 4 5 1 0
BITMAP
6E
91
FD
81
6E
ENDCHAR
STARTCHAR uni0455
ENCODING 1109
SWIDTH 600 0
DWIDTH 6 0
BBX 5 5 1 0
BITMAP
7D00
C100
6900
4240
7E00
ENDCHAR
STARTCHAR uni0456
ENCODING 1110
SWIDTH 600 0
DWIDTH 6 0
BBX 3 7 1 0
BITMAP
0C
00
FC
08
08
08
08
ENDCHAR
STARTCHAR uni0457
ENCODING 1111
SWIDTH 600 0
DWIDTH 6 0
BBX 4 7 1 0
BITMAP
22
00
FC
08
08
08
08
ENDCHAR
STARTCHAR uni0458
ENCODING 1112
SWIDTH 600 0
DWIDTH 6 0
BBX 4 9 0 -2
BITMAP
03
00
3F
02
02
02
02
03
7D
ENDCHAR
STARTCHAR uni0459
ENCODING 1113
SWIDTH 600 0
DWIDTH 6 0
BBX 6 5 0 0
BITMAP
3E00
2780
2650
6650
D780
ENDCHAR
STARTCHAR uni045A
ENCODING 1114
SWIDTH 600 0
DWIDTH 6 0
BBX 6 5 0 0
BITMAP
5500
7F80
6950
5550
5780
ENDCHAR
STARTCHAR uni045B
ENCODING 1115
SWIDTH 600 0
DWIDTH 6 0
BBX 6 7 0 0
BITMAP
2000
BF00
2000
2B80
3490
2090
2090
ENDCHAR
STARTCHAR uni045C
ENCODING 1116
SWIDTH 600 0
DWIDTH 6 0
BBX 5 8 1 0
BITMAP
0500
1800
0000
8240
8900
FC00
8600
8240
ENDCHAR
STARTCHAR uni045D
ENCODING 1117
SWIDTH 600 0
DWIDTH 6 0
BBX 4 8 1 0
BITMAP
20
14
00
83
8A
96
A2
C2
ENDCHAR
STARTCHAR uni045E
ENCODING 1118
SWIDTH 600 0
DWIDTH 6 0
BBX 6 9 0 -2
BITMAP
1580
0F00
6050
2080
1580
0A00
0A00
0900
7800
ENDCHAR
STARTCHAR uni045F
ENCODING 1119
SWIDTH 600 0
DWIDTH 6 0
BBX 4 7 1 -2
BITMAP
82
82
82
82
FF
18
14
ENDCHAR
STARTCHAR uni0462
ENCODING 1122
SWIDTH 600 0
DWIDTH 6 0
BBX 6 7 0 0
BITMAP
1400
BF80
1400
1F80
1490
1490
1F80
ENDCHAR
STARTCHAR uni0463
ENCODING 1123
SWIDTH 600 0
DWIDTH 6 0
BBX 6 6 0 0
BITMAP
0800
BF80
0800
0F80
0890
0F80
ENDCHAR
STARTCHAR uni0472
ENCODING 1138
SWIDTH 600 0
DWIDTH 6 0
BBX 6 7 0 0
BITMAP
1F40
30C0
5050
7FD0
5050
2080
1F40
ENDCHAR
STARTCHAR uni0473
ENCODING 1139
SWIDTH 600 0
DWIDTH 6 0
BBX 6 5 0 0
BITMAP
1F40
6090
7FD0
6090
1F40
ENDCHAR
STARTCHAR uni0474
ENCODING 1140
SWIDTH 600 0
DWIDTH 6 0
BBX 6 7 0 0
BITMAP
5070
6080
2080
2540
1A40
0A00
0A00
ENDCHAR
STARTCHAR uni0475
ENCODING 1141
SWIDTH 600 0
DWIDTH 6 0
BBX 5 5 1 0
BITMAP
8280
8200
5500
2800
2800
ENDCHAR
STARTCHAR uni0490
ENCODING 1168
SWIDTH 600 0
DWIDTH 6 0
BBX 5 9 1 0
BITMAP
0140
0140
BF40
9000
9000
9000
9000
9000
9000
ENDCHAR
STARTCHAR uni0491
ENCODING 1169
SWIDTH 600 0
DWIDTH 6 0
BBX 4 7 1 0
BITMAP
02
02
7F
50
50
50
50
ENDCHAR
STARTCHAR uni0492
ENCODING 1170
SWIDTH 600 0
DWIDTH 6 0
BBX 6 7 0 0
BITMAP
2FD0
2400
2400
7F00
2400
2400
2400
ENDCHAR
STARTCHAR uni0493
ENCODING 1171
SWIDTH 600 0
DWIDTH 6 0
BBX 6 5 0 0
BITMAP
2FD0
2400
7F00
2400
2400
ENDCHAR
STARTCHAR uni0496
ENCODING 1174
SWIDTH 600 0
DWIDTH 6 0
BBX 6 9 0 -2
BITMAP
D570
6580
2580
2F80
2580
5550
8530
0020
0020
ENDCHAR
STARTCHAR uni0497
ENCODING 1175
SWIDTH 600 0
DWIDTH 6 0
BBX 6 7 0 -2
BITMAP
9560
2580
2F80
6590
9570
0020
0020
ENDCHAR
STARTCHAR uni0498
ENCODING 1176
SWIDTH 600 0
DWIDTH 6 0
BBX 5 9 1 -2
BITMAP
7D00
4300
0200
3D00
0240
8240
BE00
1400
1400
ENDCHAR
STARTCHAR uni0499
ENCODING 1177
SWIDTH 600 0
DWIDTH 6 0
BBX 4 7 1 -2
BITMAP
BD
46
3D
43
BE
24
24
ENDCHAR
STARTCHAR uni049A
ENCODING 1178
SWIDTH 600 0
DWIDTH 6 0
BBX 5 9 1 -2
BITMAP
8280
8600
8800
F800
8900
8300
81C0
0080
0080
ENDCHAR
STARTCHAR uni049B
ENCODING 1179
SWIDTH 600 0
DWIDTH 6 0
BBX 5 7 1 -2
BITMAP
8240
D900
EC00
8600
8280
0080
0080
ENDCHAR
STARTCHAR uni04A0
ENCODING 1184
SWIDTH 600 0
DWIDTH 6 0
BBX 6 7 0 0
BITMAP
B860
0880
0940
0F40
0980
0890
0820
ENDCHAR
STARTCHAR uni04A1
ENCODING 1185
SWIDTH 600 0
DWIDTH 6 0
BBX 6 5 0 0
BITMAP
B8A0
0880
0F40
0880
0860
ENDCHAR
STARTCHAR uni04A2
ENCODING 1186
SWIDTH 600 0
DWIDTH 6 0
BBX 6 9 0 -2
BITMAP
6090
6090
6090
7FD0
6090
6090
60B0
0020
0020
ENDCHAR
STARTCHAR uni04A3
ENCODING 1187
SWIDTH 600 0
DWIDTH 6 0
BBX 5 7 1 -2
BITMAP
8200
8200
FF00
8200
8380
0080
0080
ENDCHAR
STARTCHAR uni04AA
ENCODING 1194
SWIDTH 600 0
DWIDTH 6 0
BBX 6 9 0 -2
BITMAP
0B80
2440
6000
6000
6000
3450
0B80
0200
0200
ENDCHAR
STARTCHAR uni04AB
ENCODING 1195
SWIDTH 600 0
DWIDTH 6 0
BBX 4 7 1 -2
BITMAP
6E
D1
80
D1
7E
08
08
ENDCHAR
STARTCHAR uni04AE
ENCODING 1198
SWIDTH 600 0
DWIDTH 6 0
BBX 6 7 0 0
BITMAP
6050
2080
1540
0A00
0500
0500
0500
ENDCHAR
STARTCHAR uni04AF
ENCODING 1199
SWIDTH 600 0
DWIDTH 6 0
BBX 6 7 0 -2
BITMAP
6090
2080
1540
0A00
0A00
0500
0500
ENDCHAR
STARTCHAR uni04B0
ENCODING 1200
SWIDTH 600 0
DWIDTH 6 0
BBX 6 7 0 0
BITMAP
6050
2080
1540
0A00
3FC0
0500
0500
ENDCHAR
STARTCHAR uni04B1
ENCODING 1201
SWIDTH 600 0
DWIDTH 6 0
BBX 6 7 0 -2
BITMAP
6090
2080
1540
0A00
3FC0
0500
0500
ENDCHAR
STARTCHAR uni04B2
ENCODING 1202
SWIDTH 600 0
DWIDTH 6 0
BBX 6 9 0 -2
BITMAP
2080
2580
0A00
0A00
0A00
2580
60A0
0020
0020
ENDCHAR
STARTCHAR uni04B3
ENCODING 1203
SWIDTH 600 0
DWIDTH 6 0
BBX 5 7 1 -2
BITMAP
8200
6900
2800
6900
8380
0180
0180
ENDCHAR
STARTCHAR uni04B6
ENCODING 1206
SWIDTH 600 0
DWIDTH 6 0
BBX 6 9 0 -2
BITMAP
5080
5080
6080
2FC0
0080
0080
00A0
0020
0020
ENDCHAR
STARTCHAR uni04B7
ENCODING 1207
SWIDTH 600 0
DWIDTH 6 0
BBX 5 7 1 -2
BITMAP
8200
C200
BF00
0200
0380
0180
0140
ENDCHAR
STARTCHAR uni04BA
ENCODING 1210
SWIDTH 600 0
DWIDTH 6 0
BBX 5 7 1 0
BITMAP
8000
8000
FD00
8200
8240
8240
8240
ENDCHAR
STARTCHAR uni04BB
ENCODING 1211
SWIDTH 600 0
DWIDTH 6 0
BBX 5 7 1 0
BITMAP
8000
8000
AE00
D240
8240
8240
8240
ENDCHAR
STARTCHAR uni04C0
ENCODING 1216
SWIDTH 600 0
DWIDTH 6 0
BBX 4 7 1 0
BITMAP
FF
14
14
14
14
14
FF
ENDCHAR
STARTCHAR uni04C1
ENCODING 1217
SWIDTH 600 0
DWIDTH 6 0
BBX 6 9 0 0
BITMAP
1540
0F00
D570
6580
2580
2F80
2580
5550
8520
ENDCHAR
STARTCHAR uni04C2
ENCODING 1218
SWIDTH 600 0
DWIDTH 6 0
BBX 6 7 0 0
BITMAP
1540
0F00
9560
2580
2F80
6590
9560
ENDCHAR
STARTCHAR uni04CF
ENCODING 1231
SWIDTH 600 0
DWIDTH 6 0
BBX 6 7 0 0
BITMAP
7D00
0900
0900
0900
0900
0900
07D0
ENDCHAR
STARTCHAR uni04D0
ENCODING 1232
SWIDTH 600 0
DWIDTH 6 0
BBX 6 9 0 0
BITMAP
1540
0F00
0A00
0A00
1540
2180
3FC0
6090
9060
ENDCHAR
STARTCHAR uni04D1
ENCODING 1233
SWIDTH 600 0
DWIDTH 6 0
BBX 4 7 1 0
BITMAP
52
2D
7E
43
6F
96
BA
ENDCHAR
STARTCHAR uni04D4
ENCODING 1236
SWIDTH 600 0
DWIDTH 6 0
BBX 6 7 0 0
BITMAP
0BE0
0A00
1600
22D0
3F00
5200
82F0
ENDCHAR
STARTCHAR uni04D5
ENCODING 1237
SWIDTH 600 0
DWIDTH 6 0
BBX 6 5 0 0
BITMAP
7AD0
6E20
97F0
8600
7AE0
ENDCHAR
STARTCHAR uni04D6
ENCODING 1238
SWIDTH 600 0
DWIDTH 6 0
BBX 5 9 1 0
BITMAP
2200
2D00
FF40
C000
C000
FE00
C000
C000
FF40
ENDCHAR
STARTCHAR uni04D7
ENCODING 1239
SWIDTH 600 0
DWIDTH 6 0
BBX 6 7 0 0
BITMAP
1480
0B40
1F40
2090
7FD0
2440
1F80
ENDCHAR
STARTCHAR uni04D8
ENCODING 1240
SWIDTH 600 0
DWIDTH 6 0
BBX 6 7 0 0
BITMAP
1F40
1080
0050
7FD0
5050
2080
1F40
ENDCHAR
STARTCHAR uni04D9
ENCODING 1241
SWIDTH 600 0
DWIDTH 6 0
BBX 6 5 0 0
BITMAP
1F40
1080
7FD0
2080
1F40
ENDCHAR
STARTCHAR uni04E2
ENCODING 1250
SWIDTH 600 0
DWIDTH 6 0
BBX 6 8 0 0
BITMAP
1F40
60D0
61D0
6290
6590
6890
7490
7090
ENDCHAR
STARTCHAR uni04E3
ENCODING 1251
SWIDTH 600 0
DWIDTH 6 0
BBX 4 7 1 0
BITMAP
7D
00
83
8A
96
A2
C2
ENDCHAR
STARTCHAR uni04E6
ENCODING 1254
SWIDTH 600 0
DWIDTH 6 0
BBX 6 8 0 0
BITMAP
1540
1F40
30C0
5050
5050
5050
30C0
1F40
ENDCHAR
STARTCHAR uni04E7
ENCODING 1255
SWIDTH 600 0
DWIDTH 6 0
BBX 6 7 0 0
BITMAP
1540
0000
1F40
6090
5050
6090
1F40
ENDCHAR
STARTCHAR uni04E8
ENCODING 1256
SWIDTH 600 0
DWIDTH 6 0
BBX 6 7 0 0
BITMAP
1F40
30C0
5050
7FD0
5050
2080
1F40
ENDCHAR
STARTCHAR uni04E9
ENCODING 1257
SWIDTH 600 0
DWIDTH 6 0
BBX 6 5 0 0
BITMAP
1F40
6090
7FD0
6090
1F40
ENDCHAR
STARTCHAR uni04EE
ENCODING 1262
SWIDTH 600 0
DWIDTH 6 0
BBX 6 8 0 0
BITMAP
1F40
6050
2080
1580
0A40
0A00
0500
2800
ENDCHAR
STARTCHAR uni04EF
ENCODING 1263
SWIDTH 600 0
DWIDTH 6 0
BBX 6 9 0 -2
BITMAP
1F40
0000
6050
2080
1580
0A00
0A00
0900
7800
ENDCHAR
STARTCHAR uni04F2
ENCODING 1266
SWIDTH 600 0
DWIDTH 6 0
BBX 6 9 0 0
BITMAP
0580
0940
6050
2080
1580
0A40
0A00
0500
2800
ENDCHAR
STARTCHAR uni04F3
ENCODING 1267
SWIDTH 600 0
DWIDTH 6 0
BBX 6 10 0 -2
BITMAP
0580
0940
0000
6050
2080
1580
0A00
0A00
0900
7800
ENDCHAR
STARTCHAR a.sups
ENCODING 7491
SWIDTH 600 0
DWIDTH 6 0
BBX 4 3 1 4
BITMAP
2D
3D
79
ENDCHAR
STARTCHAR b.sups
ENCODING 7495
SWIDTH 600 0
DWIDTH 6 0
BBX 4 4 1 4
BITMAP
50
6D
52
2D
ENDCHAR
STARTCHAR d.sups
ENCODING 7496
SWIDTH 600 0
DWIDTH 6 0
BBX 4 4 1 4
BITMAP
05
79
95
79
ENDCHAR
STARTCHAR e.sups
ENCODING 7497
SWIDTH 600 0
DWIDTH 6 0
BBX 4 3 1 4
BITMAP
3D
7E
7D
ENDCHAR
STARTCHAR g.sups
ENCODING 7501
SWIDTH 600 0
DWIDTH 6 0
BBX 4 5 1 2
BITMAP
3E
3C
7E
52
7D
ENDCHAR
STARTCHAR k.sups
ENCODING 7503
SWIDTH 600 0
DWIDTH 6 0
BBX 3 5 2 4
BITMAP
40
80
94
A0
94
ENDCHAR
STARTCHAR m.sups
ENCODING 7504
SWIDTH 600 0
DWIDTH 6 0
BBX 6 4 0 3
BITMAP
6EC0
5550
5550
5550
ENDCHAR
STARTCHAR o.sups
ENCODING 7506
SWIDTH 600 0
DWIDTH 6 0
BBX 4 3 1 4
BITMAP
7D
96
7D
ENDCHAR
STARTCHAR p.sups
ENCODING 7510
SWIDTH 600 0
DWIDTH 6 0
BBX 4 4 1 3
BITMAP
6D
52
6D
50
ENDCHAR
STARTCHAR t.sups
ENCODING 7511
SWIDTH 600 0
DWIDTH 6 0
BBX 4 4 1 4
BITMAP
20
7E
20
1D
ENDCHAR
STARTCHAR u.sups
ENCODING 7512
SWIDTH 600 0
DWIDTH 6 0
BBX 4 3 1 4
BITMAP
55
55
79
ENDCHAR
STARTCHAR v.sups
ENCODING 7515
SWIDTH 600 0
DWIDTH 6 0
BBX 4 3 1 4
BITMAP
55
28
28
ENDCHAR
STARTCHAR c.sups
ENCODING 7580
SWIDTH 600 0
DWIDTH 6 0
BBX 3 3 2 4
BITMAP
B4
80
B4
ENDCHAR
STARTCHAR f.sups
ENCODING 7584
SWIDTH 600 0
DWIDTH 6 0
BBX 3 6 2 3
BITMAP
2C
60
F8
50
50
10
ENDCHAR
STARTCHAR z.sups
ENCODING 7611
SWIDTH 600 0
DWIDTH 6 0
BBX 4 3 1 4
BITMAP
7D
00
7E
ENDCHAR
STARTCHAR uni1E06
ENCODING 7686
SWIDTH 600 0
DWIDTH 6 0
BBX 5 9 1 -2
BITMAP
FD00
8300
8200
FE00
8240
8240
FE00
0000
7D00
ENDCHAR
STARTCHAR uni1E07
ENCODING 7687
SWIDTH 600 0
DWIDTH 6 0
BBX 5 9 1 -2
BITMAP
8000
8000
AE00
D240
8140
D240
AD00
0000
7D00
ENDCHAR
STARTCHAR uni1E0C
ENCODING 7692
SWIDTH 600 0
DWIDTH 6 0
BBX 5 9 1 -2
BITMAP
F900
8700
8140
8140
8240
8700
F900
0000
2400
ENDCHAR
STARTCHAR uni1E0D
ENCODING 7693
SWIDTH 600 0
DWIDTH 6 0
BBX 5 9 0 -2
BITMAP
0080
0080
1EC0
60C0
5080
61C0
2E80
0000
0600
ENDCHAR
STARTCHAR uni1E0E
ENCODING 7694
SWIDTH 600 0
DWIDTH 6 0
BBX 5 9 1 -2
BITMAP
F900
8700
8140
8140
8240
8700
F900
0000
7D00
ENDCHAR
STARTCHAR uni1E0F
ENCODING 7695
SWIDTH 600 0
DWIDTH 6 0
BBX 5 9 0 -2
BITMAP
0080
0080
1EC0
60C0
5080
61C0
2E80
0000
1F40
ENDCHAR
STARTCHAR uni1E10
ENCODING 7696
SWIDTH 600 0
DWIDTH 6 0
BBX 5 11 1 -4
BITMAP
F900
8700
8140
8140
8240
8700
F900
1000
2400
1800
3400
ENDCHAR
STARTCHAR uni1E11
ENCODING 7697
SWIDTH 600 0
DWIDTH 6 0
BBX 5 11 0 -4
BITMAP
0080
0080
1EC0
60C0
5080
61C0
2E80
0400
0900
0200
0D00
ENDCHAR
STARTCHAR uni1E16
ENCODING 7702
SWIDTH 600 0
DWIDTH 6 0
BBX 5 10 1 0
BITMAP
0400
0000
3E00
FF40
C000
C000
FE00
C000
C000
FF40
ENDCHAR
STARTCHAR uni1E17
ENCODING 7703
SWIDTH 600 0
DWIDTH 6 0
BBX 6 9 0 0
BITMAP
0100
0000
1F40
0000
1F40
2090
7FD0
2440
1F80
ENDCHAR
STARTCHAR uni1E20
ENCODING 7712
SWIDTH 600 0
DWIDTH 6 0
BBX 6 8 0 0
BITMAP
0F80
1B80
3440
6000
52D0
6050
3490
1B80
ENDCHAR
STARTCHAR uni1E21
ENCODING 7713
SWIDTH 600 0
DWIDTH 6 0
BBX 6 9 0 -2
BITMAP
1F40
0000
1FE0
3080
2A80
2500
2FD0
6060
2F80
ENDCHAR
STARTCHAR uni1E24
ENCODING 7716
SWIDTH 600 0
DWIDTH 6 0
BBX 6 9 0 -2
BITMAP
6090
6090
6090
7FD0
6090
6090
6090
0000
0500
ENDCHAR
STARTCHAR uni1E25
ENCODING 7717
SWIDTH 600 0
DWIDTH 6 0
BBX 5 9 1 -2
BITMAP
8000
8000
AE00
D240
8240
8240
8240
0000
1800
ENDCHAR
STARTCHAR uni1E26
ENCODING 7718
SWIDTH 600 0
DWIDTH 6 0
BBX 6 8 0 0
BITMAP
1540
6090
6090
6090
7FD0
6090
6090
6090
ENDCHAR
STARTCHAR uni1E27
ENCODING 7719
SWIDTH 600 0
DWIDTH 6 0
BBX 6 9 0 0
BITMAP
8800
0000
2000
2000
2B80
3490
2090
2090
2090
ENDCHAR
STARTCHAR uni1E28
ENCODING 7720
SWIDTH 600 0
DWIDTH 6 0
BBX 6 11 0 -4
BITMAP
6090
6090
6090
7FD0
6090
6090
6090
1000
6000
2000
A000
ENDCHAR
STARTCHAR uni1E29
ENCODING 7721
SWIDTH 600 0
DWIDTH 6 0
BBX 6 11 0 -4
BITMAP
2000
2000
2B80
3490
2090
2090
2090
1000
7000
2000
A000
ENDCHAR
STARTCHAR uni1E2A
ENCODING 7722
SWIDTH 600 0
DWIDTH 6 0
BBX 6 10 0 -3
BITMAP
6090
6090
6090
7FD0
6090
6090
6090
0000
1540
0F00
ENDCHAR
STARTCHAR uni1E2B
ENCODING 7723
SWIDTH 600 0
DWIDTH 6 0
BBX 5 10 1 -3
BITMAP
8000
8000
AE00
D240
8240
8240
8240
0000
5200
2D00
ENDCHAR
STARTCHAR uni1E32
ENCODING 7730
SWIDTH 600 0
DWIDTH 6 0
BBX 5 9 1 -2
BITMAP
8240
8900
9800
E800
C500
8200
8180
0000
0800
ENDCHAR
STARTCHAR uni1E33
ENCODING 7731
SWIDTH 600 0
DWIDTH 6 0
BBX 5 9 1 -2
BITMAP
8000
8000
8200
8900
E800
D600
8240
0000
0800
ENDCHAR
STARTCHAR uni1E34
ENCODING 7732
SWIDTH 600 0
DWIDTH 6 0
BBX 5 9 1 -2
BITMAP
8240
8900
9800
E800
C500
8200
8180
0000
3E00
ENDCHAR
STARTCHAR uni1E35
ENCODING 7733
SWIDTH 600 0
DWIDTH 6 0
BBX 5 9 1 -2
BITMAP
8000
8000
8200
8900
E800
D600
8240
0000
3E00
ENDCHAR
STARTCHAR uni1E36
ENCODING 7734
SWIDTH 600 0
DWIDTH 6 0
BBX 5 9 1 -2
BITMAP
8000
8000
8000
8000
8000
8000
BF40
0000
0C00
ENDCHAR
STARTCHAR uni1E37
ENCODING 7735
SWIDTH 600 0
DWIDTH 6 0
BBX 6 9 0 -2
BITMAP
7D00
0900
0900
0900
0900
0900
07D0
0000
0240
ENDCHAR
STARTCHAR uni1E38
ENCODING 7736
SWIDTH 600 0
DWIDTH 6 0
BBX 6 10 0 -2
BITMAP
7D00
2000
2000
2000
2000
2000
2000
2FD0
0000
0300
ENDCHAR
STARTCHAR uni1E39
ENCODING 7737
SWIDTH 600 0
DWIDTH 6 0
BBX 6 11 0 -2
BITMAP
1F40
0000
7D00
0900
0900
0900
0900
0900
07D0
0000
0240
ENDCHAR
STARTCHAR uni1E3A
ENCODING 7738
SWIDTH 600 0
DWIDTH 6 0
BBX 5 9 1 -2
BITMAP
8000
8000
8000
8000
8000
8000
BF40
0000
3E00
ENDCHAR
STARTCHAR uni1E3B
ENCODING 7739
SWIDTH 600 0
DWIDTH 6 0
BBX 6 9 0 -2
BITMAP
7D00
0900
0900
0900
0900
0900
07D0
0000
07D0
ENDCHAR
STARTCHAR uni1E3E
ENCODING 7742
SWIDTH 600 0
DWIDTH 6 0
BBX 6 9 0 0
BITMAP
0200
0500
70D0
75D0
6A90
5A90
6990
6090
6090
ENDCHAR
STARTCHAR uni1E3F
ENCODING 7743
SWIDTH 600 0
DWIDTH 6 0
BBX 6 8 0 0
BITMAP
0240
0500
0000
6ED0
6660
5560
5560
5560
ENDCHAR
STARTCHAR uni1E40
ENCODING 7744
SWIDTH 600 0
DWIDTH 6 0
BBX 6 8 0 0
BITMAP
0500
70D0
75D0
6A90
5A90
6990
6090
6090
ENDCHAR
STARTCHAR uni1E41
ENCODING 7745
SWIDTH 600 0
DWIDTH 6 0
BBX 6 7 0 0
BITMAP
0600
0000
6ED0
6660
5560
5560
5560
ENDCHAR
STARTCHAR uni1E42
ENCODING 7746
SWIDTH 600 0
DWIDTH 6 0
BBX 6 9 0 -2
BITMAP
70D0
75D0
6A90
5A90
6990
6090
6090
0000
0500
ENDCHAR
STARTCHAR uni1E43
ENCODING 7747
SWIDTH 600 0
DWIDTH 6 0
BBX 6 7 0 -2
BITMAP
6ED0
6660
5560
5560
5560
0000
0600
ENDCHAR
STARTCHAR uni1E44
ENCODING 7748
SWIDTH 600 0
DWIDTH 6 0
BBX 6 8 0 0
BITMAP
0600
7090
7490
6890
6590
6290
61D0
60D0
ENDCHAR
STARTCHAR uni1E45
ENCODING 7749
SWIDTH 600 0
DWIDTH 6 0
BBX 5 7 1 0
BITMAP
1800
0000
AE00
D240
8240
8240
8240
ENDCHAR
STARTCHAR uni1E46
ENCODING 7750
SWIDTH 600 0
DWIDTH 6 0
BBX 6 9 0 -2
BITMAP
7090
7490
6890
6590
6290
61D0
60D0
0000
0500
ENDCHAR
STARTCHAR uni1E47
ENCODING 7751
SWIDTH 600 0
DWIDTH 6 0
BBX 5 7 1 -2
BITMAP
AE00
D240
8240
8240
8240
0000
1800
ENDCHAR
STARTCHAR uni1E48
ENCODING 7752
SWIDTH 600 0
DWIDTH 6 0
BBX 6 9 0 -2
BITMAP
7090
7490
6890
6590
6290
61D0
60D0
0000
1F40
ENDCHAR
STARTCHAR uni1E49
ENCODING 7753
SWIDTH 600 0
DWIDTH 6 0
BBX 5 7 1 -2
BITMAP
AE00
D240
8240
8240
8240
0000
7D00
ENDCHAR
STARTCHAR uni1E52
ENCODING 7762
SWIDTH 600 0
DWIDTH 6 0
BBX 6 10 0 0
BITMAP
0100
0000
1F40
1F40
30C0
5050
5050
5050
30C0
1F40
ENDCHAR
STARTCHAR uni1E53
ENCODING 7763
SWIDTH 600 0
DWIDTH 6 0
BBX 6 9 0 0
BITMAP
0500
0000
1F40
0000
1F40
6090
5050
6090
1F40
ENDCHAR
STARTCHAR uni1E58
ENCODING 7768
SWIDTH 600 0
DWIDTH 6 0
BBX 5 8 1 0
BITMAP
1400
FE00
8240
8240
FE00
8900
8600
8240
ENDCHAR
STARTCHAR uni1E59
ENCODING 7769
SWIDTH 600 0
DWIDTH 6 0
BBX 5 7 1 0
BITMAP
0C00
0000
9B40
A400
9000
9000
9000
ENDCHAR
STARTCHAR uni1E5A
ENCODING 7770
SWIDTH 600 0
DWIDTH 6 0
BBX 5 9 1 -2
BITMAP
FE00
8240
8240
FE00
8900
8600
8240
0000
1800
ENDCHAR
STARTCHAR uni1E5B
ENCODING 7771
SWIDTH 600 0
DWIDTH 6 0
BBX 5 7 1 -2
BITMAP
9B40
A400
9000
9000
9000
0000
5000
ENDCHAR
STARTCHAR uni1E5C
ENCODING 7772
SWIDTH 600 0
DWIDTH 6 0
BBX 5 10 1 -2
BITMAP
7D00
FE00
8240
8240
FE00
8900
8600
8240
0000
1800
ENDCHAR
STARTCHAR uni1E5D
ENCODING 7773
SWIDTH 600 0
DWIDTH 6 0
BBX 5 9 1 -2
BITMAP
3E00
0000
9B40
A400
9000
9000
9000
0000
5000
ENDCHAR
STARTCHAR uni1E5E
ENCODING 7774
SWIDTH 600 0
DWIDTH 6 0
BBX 5 9 1 -2
BITMAP
FE00
8240
8240
FE00
8900
8600
8240
0000
3E00
ENDCHAR
STARTCHAR uni1E5F
ENCODING 7775
SWIDTH 600 0
DWIDTH 6 0
BBX 6 7 0 -2
BITMAP
26D0
2900
2400
2400
2400
0000
7D00
ENDCHAR
STARTCHAR uni1E60
ENCODING 7776
SWIDTH 600 0
DWIDTH 6 0
BBX 5 8 1 0
BITMAP
1800
7D00
C100
9000
2D00
0240
8240
7E00
ENDCHAR
STARTCHAR uni1E61
ENCODING 7777
SWIDTH 600 0
DWIDTH 6 0
BBX 5 7 1 0
BITMAP
1800
0000
7D00
C100
6900
4240
7E00
ENDCHAR
STARTCHAR uni1E62
ENCODING 7778
SWIDTH 600 0
DWIDTH 6 0
BBX 5 9 1 -2
BITMAP
7D00
C100
9000
2D00
0240
8240
7E00
0000
1800
ENDCHAR
STARTCHAR uni1E63
ENCODING 7779
SWIDTH 600 0
DWIDTH 6 0
BBX 5 7 1 -2
BITMAP
7D00
C100
6900
4240
7E00
0000
1800
ENDCHAR
STARTCHAR uni1E6C
ENCODING 7788
SWIDTH 600 0
DWIDTH 6 0
BBX 6 9 0 -2
BITMAP
BFE0
0500
0500
0500
0500
0500
0500
0000
0500
ENDCHAR
STARTCHAR uni1E6D
ENCODING 7789
SWIDTH 600 0
DWIDTH 6 0
BBX 6 9 0 -2
BITMAP
0800
0800
7FD0
0800
0800
0C00
07D0
0000
0240
ENDCHAR
STARTCHAR uni1E6E
ENCODING 7790
SWIDTH 600 0
DWIDTH 6 0
BBX 6 9 0 -2
BITMAP
BFE0
0500
0500
0500
0500
0500
0500
0000
1F40
ENDCHAR
STARTCHAR uni1E6F
ENCODING 7791
SWIDTH 600 0
DWIDTH 6 0
BBX 6 9 0 -2
BITMAP
0800
0800
7FD0
0800
0800
0C00
07D0
0000
0BC0
ENDCHAR
STARTCHAR uni1E7E
ENCODING 7806
SWIDTH 600 0
DWIDTH 6 0
BBX 6 9 0 -2
BITMAP
5050
2080
2080
2580
1A40
0A00
0A00
0000
0500
ENDCHAR
STARTCHAR uni1E7F
ENCODING 7807
SWIDTH 600 0
DWIDTH 6 0
BBX 6 7 0 -2
BITMAP
6050
2080
1540
0A00
0A00
0000
0500
ENDCHAR
STARTCHAR Wgrave
ENCODING 7808
SWIDTH 600 0
DWIDTH 6 0
BBX 6 9 0 0
BITMAP
0800
0500
C030
9020
9A60
5A50
6A90
35C0
35C0
ENDCHAR
STARTCHAR wgrave
ENCODING 7809
SWIDTH 600 0
DWIDTH 6 0
BBX 6 8 0 0
BITMAP
0800
0500
0000
8520
9A20
5A50
6A90
35C0
ENDCHAR
STARTCHAR Wacute
ENCODING 7810
SWIDTH 600 0
DWIDTH 6 0
BBX 6 9 0 0
BITMAP
0200
0500
C030
9020
9A60
5A50
6A90
35C0
35C0
ENDCHAR
STARTCHAR wacute
ENCODING 7811
SWIDTH 600 0
DWIDTH 6 0
BBX 6 8 0 0
BITMAP
0200
0500
0000
8520
9A20
5A50
6A90
35C0
ENDCHAR
STARTCHAR Wdieresis
ENCODING 7812
SWIDTH 600 0
DWIDTH 6 0
BBX 6 8 0 0
BITMAP
1540
C030
9020
9A60
5A50
6A90
35C0
35C0
ENDCHAR
STARTCHAR wdieresis
ENCODING 7813
SWIDTH 600 0
DWIDTH 6 0
BBX 6 7 0 0
BITMAP
1540
0000
8520
9A20
5A50
6A90
35C0
ENDCHAR
STARTCHAR uni1E8E
ENCODING 7822
SWIDTH 600 0
DWIDTH 6 0
BBX 6 8 0 0
BITMAP
0500
6050
2080
1540
0A00
0500
0500
0500
ENDCHAR
STARTCHAR uni1E8F
ENCODING 7823
SWIDTH 600 0
DWIDTH 6 0
BBX 6 9 0 -2
BITMAP
0600
0000
6050
2080
1580
0A00
0A00
0900
7800
ENDCHAR
STARTCHAR uni1E90
ENCODING 7824
SWIDTH 600 0
DWIDTH 6 0
BBX 6 8 0 0
BITMAP
0940
3FD0
0080
0240
0500
1800
2000
7FD0
ENDCHAR
STARTCHAR uni1E91
ENCODING 7825
SWIDTH 600 0
DWIDTH 6 0
BBX 6 8 0 0
BITMAP
0A00
0440
0000
3FD0
0140
0500
2400
7FD0
ENDCHAR
STARTCHAR uni1E92
ENCODING 7826
SWIDTH 600 0
DWIDTH 6 0
BBX 6 9 0 -2
BITMAP
3FD0
0080
0240
0500
1800
2000
7FD0
0000
0600
ENDCHAR
STARTCHAR uni1E93
ENCODING 7827
SWIDTH 600 0
DWIDTH 6 0
BBX 6 7 0 -2
BITMAP
3FD0
0140
0500
2400
7FD0
0000
0600
ENDCHAR
STARTCHAR uni1E94
ENCODING 7828
SWIDTH 600 0
DWIDTH 6 0
BBX 6 9 0 -2
BITMAP
3FD0
0080
0240
0500
1800
2000
7FD0
0000
1F40
ENDCHAR
STARTCHAR uni1E95
ENCODING 7829
SWIDTH 600 0
DWIDTH 6 0
BBX 6 7 0 -2
BITMAP
3FD0
0140
0500
2400
7FD0
0000
1F40
ENDCHAR
STARTCHAR uni1E96
ENCODING 7830
SWIDTH 600 0
DWIDTH 6 0
BBX 5 9 1 -2
BITMAP
8000
8000
AE00
D240
8240
8240
8240
0000
7D00
ENDCHAR
STARTCHAR uni1E97
ENCODING 7831
SWIDTH 600 0
DWIDTH 6 0
BBX 6 8 0 0
BITMAP
2200
0800
0800
7FD0
0800
0800
0C00
07D0
ENDCHAR
STARTCHAR uni1E9E
ENCODING 7838
SWIDTH 600 0
DWIDTH 6 0
BBX 6 7 0 0
BITMAP
1F40
3480
6240
62D0
6060
6460
67C0
ENDCHAR
STARTCHAR uni1EA0
ENCODING 7840
SWIDTH 600 0
DWIDTH 6 0
BBX 6 9 0 -2
BITMAP
0A00
0A00
1540
2180
3FC0
6090
9060
0000
0500
ENDCHAR
STARTCHAR uni1EA1
ENCODING 7841
SWIDTH 600 0
DWIDTH 6 0
BBX 4 7 1 -2
BITMAP
7E
43
6F
96
BA
00
14
ENDCHAR
STARTCHAR uni1EA2
ENCODING 7842
SWIDTH 600 0
DWIDTH 6 0
BBX 6 10 0 0
BITMAP
0900
0200
0500
0A00
0A00
1540
2180
3FC0
6090
9060
ENDCHAR
STARTCHAR uni1EA3
ENCODING 7843
SWIDTH 600 0
DWIDTH 6 0
BBX 4 8 1 0
BITMAP
18
08
08
7E
43
6F
96
BA
ENDCHAR
STARTCHAR uni1EA4
ENCODING 7844
SWIDTH 600 0
DWIDTH 6 0
BBX 6 9 0 0
BITMAP
0040
0A00
0A00
0A00
1540
2180
3FC0
6090
9060
ENDCHAR
STARTCHAR uni1EA5
ENCODING 7845
SWIDTH 600 0
DWIDTH 6 0
BBX 5 8 1 0
BITMAP
0140
2900
0000
7E00
4300
6F00
9600
BA00
ENDCHAR
STARTCHAR uni1EA6
ENCODING 7846
SWIDTH 600 0
DWIDTH 6 0
BBX 6 9 0 0
BITMAP
1000
0A00
0A00
0A00
1540
2180
3FC0
6090
9060
ENDCHAR
STARTCHAR uni1EA7
ENCODING 7847
SWIDTH 600 0
DWIDTH 6 0
BBX 4 8 1 0
BITMAP
40
29
00
7E
43
6F
96
BA
ENDCHAR
STARTCHAR uni1EA8
ENCODING 7848
SWIDTH 600 0
DWIDTH 6 0
BBX 6 10 0 0
BITMAP
0180
0080
0A80
0A00
0A00
1540
2180
3FC0
6090
9060
ENDCHAR
STARTCHAR uni1EA9
ENCODING 7849
SWIDTH 600 0
DWIDTH 6 0
BBX 5 9 1 0
BITMAP
0200
0140
2A00
0000
7E00
4300
6F00
9600
BA00
ENDCHAR
STARTCHAR uni1EAA
ENCODING 7850
SWIDTH 600 0
DWIDTH 6 0
BBX 6 10 0 0
BITMAP
1D40
1740
0A00
0A00
0A00
1540
2180
3FC0
6090
9060
ENDCHAR
STARTCHAR uni1EAB
ENCODING 7851
SWIDTH 600 0
DWIDTH 6 0
BBX 4 9 1 0
BITMAP
25
19
29
00
7E
43
6F
96
BA
ENDCHAR
STARTCHAR uni1EAC
ENCODING 7852
SWIDTH 600 0
DWIDTH 6 0
BBX 6 10 0 -2
BITMAP
0500
0A00
0A00
1540
2180
3FC0
6090
9060
0000
0500
ENDCHAR
STARTCHAR uni1EAD
ENCODING 7853
SWIDTH 600 0
DWIDTH 6 0
BBX 4 10 1 -2
BITMAP
28
11
00
7E
43
6F
96
BA
00
14
ENDCHAR
STARTCHAR uni1EAE
ENCODING 7854
SWIDTH 600 0
DWIDTH 6 0
BBX 6 10 0 0
BITMAP
0100
1540
0A00
0A00
0A00
1540
2180
3FC0
6090
9060
ENDCHAR
STARTCHAR uni1EAF
ENCODING 7855
SWIDTH 600 0
DWIDTH 6 0
BBX 4 9 1 0
BITMAP
08
04
52
2D
7E
43
6F
96
BA
ENDCHAR
STARTCHAR uni1EB0
ENCODING 7856
SWIDTH 600 0
DWIDTH 6 0
BBX 6 10 0 0
BITMAP
0400
1540
0A00
0A00
0A00
1540
2180
3FC0
6090
9060
ENDCHAR
STARTCHAR uni1EB1
ENCODING 7857
SWIDTH 600 0
DWIDTH 6 0
BBX 4 9 1 0
BITMAP
10
04
52
2D
7E
43
6F
96
BA
ENDCHAR
STARTCHAR uni1EB2
ENCODING 7858
SWIDTH 600 0
DWIDTH 6 0
BBX 6 12 0 0
BITMAP
0900
0200
0500
1540
0A00
0A00
0A00
1540
2180
3FC0
6090
9060
ENDCHAR
STARTCHAR uni1EB3
ENCODING 7859
SWIDTH 600 0
DWIDTH 6 0
BBX 4 10 1 0
BITMAP
18
08
08
52
2D
7E
43
6F
96
BA
ENDCHAR
STARTCHAR uni1EB4
ENCODING 7860
SWIDTH 600 0
DWIDTH 6 0
BBX 6 10 0 0
BITMAP
1D40
2B80
0A00
0A00
0A00
1540
2180
3FC0
6090
9060
ENDCHAR
STARTCHAR uni1EB5
ENCODING 7861
SWIDTH 600 0
DWIDTH 6 0
BBX 4 9 1 0
BITMAP
25
19
22
2C
7E
43
6F
96
BA
ENDCHAR
STARTCHAR uni1EB6
ENCODING 7862
SWIDTH 600 0
DWIDTH 6 0
BBX 6 11 0 -2
BITMAP
1540
0A00
0A00
0A00
1540
2180
3FC0
6090
9060
0000
0500
ENDCHAR
STARTCHAR uni1EB7
ENCODING 7863
SWIDTH 600 0
DWIDTH 6 0
BBX 4 9 1 -2
BITMAP
52
2D
7E
43
6F
96
BA
00
14
ENDCHAR
STARTCHAR uni1EB8
ENCODING 7864
SWIDTH 600 0
DWIDTH 6 0
BBX 5 9 1 -2
BITMAP
FF40
C000
C000
FE00
C000
C000
FF40
0000
1800
ENDCHAR
STARTCHAR uni1EB9
ENCODING 7865
SWIDTH 600 0
DWIDTH 6 0
BBX 6 7 0 -2
BITMAP
1F40
2090
7FD0
2440
1F80
0000
0600
ENDCHAR
STARTCHAR uni1EBA
ENCODING 7866
SWIDTH 600 0
DWIDTH 6 0
BBX 5 10 1 0
BITMAP
1800
0800
0800
FF40
C000
C000
FE00
C000
C000
FF40
ENDCHAR
STARTCHAR uni1EBB
ENCODING 7867
SWIDTH 600 0
DWIDTH 6 0
BBX 6 8 0 0
BITMAP
0600
0200
0600
1F40
2090
7FD0
2440
1F80
ENDCHAR
STARTCHAR uni1EBC
ENCODING 7868
SWIDTH 600 0
DWIDTH 6 0
BBX 5 9 1 0
BITMAP
3600
5A00
FF40
C000
C000
FE00
C000
C000
FF40
ENDCHAR
STARTCHAR uni1EBD
ENCODING 7869
SWIDTH 600 0
DWIDTH 6 0
BBX 6 8 0 0
BITMAP
1D80
1240
0000
1F40
2090
7FD0
2440
1F80
ENDCHAR
STARTCHAR uni1EBE
ENCODING 7870
SWIDTH 600 0
DWIDTH 6 0
BBX 5 9 1 0
BITMAP
0140
1900
FF40
C000
C000
FE00
C000
C000
FF40
ENDCHAR
STARTCHAR uni1EBF
ENCODING 7871
SWIDTH 600 0
DWIDTH 6 0
BBX 6 8 0 0
BITMAP
0040
0A40
0000
1F40
2090
7FD0
2440
1F80
ENDCHAR
STARTCHAR uni1EC0
ENCODING 7872
SWIDTH 600 0
DWIDTH 6 0
BBX 5 9 1 0
BITMAP
4000
1900
FF40
C000
C000
FE00
C000
C000
FF40
ENDCHAR
STARTCHAR uni1EC1
ENCODING 7873
SWIDTH 600 0
DWIDTH 6 0
BBX 6 8 0 0
BITMAP
1000
0A40
0000
1F40
2090
7FD0
2440
1F80
ENDCHAR
STARTCHAR uni1EC2
ENCODING 7874
SWIDTH 600 0
DWIDTH 6 0
BBX 5 10 1 0
BITMAP
0200
0140
1A00
FF40
C000
C000
FE00
C000
C000
FF40
ENDCHAR
STARTCHAR uni1EC3
ENCODING 7875
SWIDTH 600 0
DWIDTH 6 0
BBX 6 9 0 0
BITMAP
00C0
0090
0A80
0000
1F40
2090
7FD0
2440
1F80
ENDCHAR
STARTCHAR uni1EC4
ENCODING 7876
SWIDTH 600 0
DWIDTH 6 0
BBX 5 10 1 0
BITMAP
2500
1900
1900
FF40
C000
C000
FE00
C000
C000
FF40
ENDCHAR
STARTCHAR uni1EC5
ENCODING 7877
SWIDTH 600 0
DWIDTH 6 0
BBX 6 9 0 0
BITMAP
0940
0640
0A40
0000
1F40
2090
7FD0
2440
1F80
ENDCHAR
STARTCHAR uni1EC6
ENCODING 7878
SWIDTH 600 0
DWIDTH 6 0
BBX 5 10 1 -2
BITMAP
1500
FF40
C000
C000
FE00
C000
C000
FF40
0000
1800
ENDCHAR
STARTCHAR uni1EC7
ENCODING 7879
SWIDTH 600 0
DWIDTH 6 0
BBX 6 10 0 -2
BITMAP
0A00
1440
0000
1F40
2090
7FD0
2440
1F80
0000
0600
ENDCHAR
STARTCHAR uni1EC8
ENCODING 7880
SWIDTH 600 0
DWIDTH 6 0
BBX 4 10 1 0
BITMAP
24
08
14
FF
14
14
14
14
14
FF
ENDCHAR
STARTCHAR uni1EC9
ENCODING 7881
SWIDTH 600 0
DWIDTH 6 0
BBX 4 8 1 0
BITMAP
18
09
08
FC
08
08
08
08
ENDCHAR
STARTCHAR uni1ECA
ENCODING 7882
SWIDTH 600 0
DWIDTH 6 0
BBX 4 9 1 -2
BITMAP
FF
14
14
14
14
14
FF
00
14
ENDCHAR
STARTCHAR uni1ECB
ENCODING 7883
SWIDTH 600 0
DWIDTH 6 0
BBX 3 9 1 -2
BITMAP
0C
00
FC
08
08
08
08
00
0C
ENDCHAR
STARTCHAR uni1ECC
ENCODING 7884
SWIDTH 600 0
DWIDTH 6 0
BBX 6 9 0 -2
BITMAP
1F40
30C0
5050
5050
5050
30C0
1F40
0000
0500
ENDCHAR
STARTCHAR uni1ECD
ENCODING 7885
SWIDTH 600 0
DWIDTH 6 0
BBX 6 7 0 -2
BITMAP
1F40
6090
5050
6090
1F40
0000
0500
ENDCHAR
STARTCHAR uni1ECE
ENCODING 7886
SWIDTH 600 0
DWIDTH 6 0
BBX 6 10 0 0
BITMAP
0900
0200
0500
1F40
30C0
5050
5050
5050
30C0
1F40
ENDCHAR
STARTCHAR uni1ECF
ENCODING 7887
SWIDTH 600 0
DWIDTH 6 0
BBX 6 8 0 0
BITMAP
0900
0200
0500
1F40
6090
5050
6090
1F40
ENDCHAR
STARTCHAR uni1ED0
ENCODING 7888
SWIDTH 600 0
DWIDTH 6 0
BBX 6 9 0 0
BITMAP
0040
0A00
1F40
30C0
5050
5050
5050
30C0
1F40
ENDCHAR
STARTCHAR uni1ED1
ENCODING 7889
SWIDTH 600 0
DWIDTH 6 0
BBX 6 8 0 0
BITMAP
0040
0A00
0000
1F40
6090
5050
6090
1F40
ENDCHAR
STARTCHAR uni1ED2
ENCODING 7890
SWIDTH 600 0
DWIDTH 6 0
BBX 6 9 0 0
BITMAP
1000
0A00
1F40
30C0
5050
5050
5050
30C0
1F40
ENDCHAR
STARTCHAR uni1ED3
ENCODING 7891
SWIDTH 600 0
DWIDTH 6 0
BBX 6 8 0 0
BITMAP
1000
0A00
0000
1F40
6090
5050
6090
1F40
ENDCHAR
STARTCHAR uni1ED4
ENCODING 7892
SWIDTH 600 0
DWIDTH 6 0
BBX 6 10 0 0
BITMAP
0180
0080
0A80
1F40
30C0
5050
5050
5050
30C0
1F40
ENDCHAR
STARTCHAR uni1ED5
ENCODING 7893
SWIDTH 600 0
DWIDTH 6 0
BBX 6 9 0 0
BITMAP
0080
0080
0A80
0000
1F40
6090
5050
6090
1F40
ENDCHAR
STARTCHAR uni1ED6
ENCODING 7894
SWIDTH 600 0
DWIDTH 6 0
BBX 6 10 0 0
BITMAP
1D40
1740
0A00
1F40
30C0
5050
5050
5050
30C0
1F40
ENDCHAR
STARTCHAR uni1ED7
ENCODING 7895
SWIDTH 600 0
DWIDTH 6 0
BBX 6 9 0 0
BITMAP
0940
1700
0A00
0000
1F40
6090
5050
6090
1F40
ENDCHAR
STARTCHAR uni1ED8
ENCODING 7896
SWIDTH 600 0
DWIDTH 6 0
BBX 6 10 0 -2
BITMAP
0500
1F40
30C0
5050
5050
5050
30C0
1F40
0000
0500
ENDCHAR
STARTCHAR uni1ED9
ENCODING 7897
SWIDTH 600 0
DWIDTH 6 0
BBX 6 10 0 -2
BITMAP
0A00
1540
0000
1F40
6090
5050
6090
1F40
0000
0500
ENDCHAR
STARTCHAR uni1EDA
ENCODING 7898
SWIDTH 600 0
DWIDTH 6 0
BBX 6 9 0 0
BITMAP
0200
0520
1F90
30C0
5050
5050
5050
30C0
1F40
ENDCHAR
STARTCHAR uni1EDB
ENCODING 7899
SWIDTH 600 0
DWIDTH 6 0
BBX 6 8 0 0
BITMAP
0200
0510
0060
1F80
6080
5050
6090
1F40
ENDCHAR
STARTCHAR uni1EDC
ENCODING 7900
SWIDTH 600 0
DWIDTH 6 0
BBX 6 9 0 0
BITMAP
0800
0520
1F90
30C0
5050
5050
5050
30C0
1F40
ENDCHAR
STARTCHAR uni1EDD
ENCODING 7901
SWIDTH 600 0
DWIDTH 6 0
BBX 6 8 0 0
BITMAP
0800
0510
0060
1F80
6080
5050
6090
1F40
ENDCHAR
STARTCHAR uni1EDE
ENCODING 7902
SWIDTH 600 0
DWIDTH 6 0
BBX 6 10 0 0
BITMAP
0900
0200
0520
1F90
30C0
5050
5050
5050
30C0
1F40
ENDCHAR
STARTCHAR uni1EDF
ENCODING 7903
SWIDTH 600 0
DWIDTH 6 0
BBX 6 8 0 0
BITMAP
0900
0210
0560
1F80
6080
5050
6090
1F40
ENDCHAR
STARTCHAR uni1EE0
ENCODING 7904
SWIDTH 600 0
DWIDTH 6 0
BBX 6 9 0 0
BITMAP
2940
2760
1F90
30C0
5050
5050
5050
30C0
1F40
ENDCHAR
STARTCHAR uni1EE1
ENCODING 7905
SWIDTH 600 0
DWIDTH 6 0
BBX 6 8 0 0
BITMAP
2940
2750
0060
1F80
6080
5050
6090
1F40
ENDCHAR
STARTCHAR uni1EE2
ENCODING 7906
SWIDTH 600 0
DWIDTH 6 0
BBX 6 10 0 -2
BITMAP
0020
1F90
30C0
5050
5050
5050
30C0
1F40
0000
0500
ENDCHAR
STARTCHAR uni1EE3
ENCODING 7907
SWIDTH 600 0
DWIDTH 6 0
BBX 6 9 0 -2
BITMAP
0010
0060
1F80
6080
5050
6090
1F40
0000
0500
ENDCHAR
STARTCHAR uni1EE4
ENCODING 7908
SWIDTH 600 0
DWIDTH 6 0
BBX 6 9 0 -2
BITMAP
6090
6090
6090
6090
6080
30C0
1F40
0000
0500
ENDCHAR
STARTCHAR uni1EE5
ENCODING 7909
SWIDTH 600 0
DWIDTH 6 0
BBX 5 7 0 -2
BITMAP
6080
6080
6080
61C0
2E80
0000
0600
ENDCHAR
STARTCHAR uni1EE6
ENCODING 7910
SWIDTH 600 0
DWIDTH 6 0
BBX 6 10 0 0
BITMAP
0900
0200
0500
6090
6090
6090
6090
6080
30C0
1F40
ENDCHAR
STARTCHAR uni1EE7
ENCODING 7911
SWIDTH 600 0
DWIDTH 6 0
BBX 5 8 0 0
BITMAP
0900
0200
0500
6080
6080
6080
61C0
2E80
ENDCHAR
STARTCHAR uni1EE8
ENCODING 7912
SWIDTH 600 0
DWIDTH 6 0
BBX 7 9 0 0
BITMAP
0214
0524
60A0
6090
6090
6090
6090
30C0
1F40
ENDCHAR
STARTCHAR uni1EE9
ENCODING 7913
SWIDTH 600 0
DWIDTH 6 0
BBX 6 8 0 0
BITMAP
0200
0520
0020
60A0
6080
6080
61C0
2E80
ENDCHAR
STARTCHAR uni1EEA
ENCODING 7914
SWIDTH 600 0
DWIDTH 6 0
BBX 7 9 0 0
BITMAP
0814
0524
60A0
6090
6090
6090
6090
30C0
1F40
ENDCHAR
STARTCHAR uni1EEB
ENCODING 7915
SWIDTH 600 0
DWIDTH 6 0
BBX 6 8 0 0
BITMAP
0800
0520
0020
60A0
6080
6080
61C0
2E80
ENDCHAR
STARTCHAR uni1EEC
ENCODING 7916
SWIDTH 600 0
DWIDTH 6 0
BBX 7 10 0 0
BITMAP
0900
0214
0524
60A0
6090
6090
6090
6090
30C0
1F40
ENDCHAR
STARTCHAR uni1EED
ENCODING 7917
SWIDTH 600 0
DWIDTH 6 0
BBX 6 8 0 0
BITMAP
0900
0220
0520
60A0
6080
6080
61C0
2E80
ENDCHAR
STARTCHAR uni1EEE
ENCODING 7918
SWIDTH 600 0
DWIDTH 6 0
BBX 7 9 0 0
BITMAP
1D94
2764
60A0
6090
6090
6090
6090
30C0
1F40
ENDCHAR
STARTCHAR uni1EEF
ENCODING 7919
SWIDTH 600 0
DWIDTH 6 0
BBX 6 8 0 0
BITMAP
2D80
2760
0020
60A0
6080
6080
61C0
2E80
ENDCHAR
STARTCHAR uni1EF0
ENCODING 7920
SWIDTH 600 0
DWIDTH 6 0
BBX 7 11 0 -2
BITMAP
0014
0024
60A0
6090
6090
6090
6090
30C0
1F40
0000
0500
ENDCHAR
STARTCHAR uni1EF1
ENCODING 7921
SWIDTH 600 0
DWIDTH 6 0
BBX 6 9 0 -2
BITMAP
0020
0020
60A0
6080
6080
61C0
2E80
0000
0600
ENDCHAR
STARTCHAR Ygrave
ENCODING 7922
SWIDTH 600 0
DWIDTH 6 0
BBX 6 9 0 0
BITMAP
0800
0500
6050
2080
1540
0A00
0500
0500
0500
ENDCHAR
STARTCHAR ygrave
ENCODING 7923
SWIDTH 600 0
DWIDTH 6 0
BBX 6 10 0 -2
BITMAP
0800
0500
0000
6050
2080
1580
0A00
0A00
0900
7800
ENDCHAR
STARTCHAR uni1EF4
ENCODING 7924
SWIDTH 600 0
DWIDTH 6 0
BBX 6 9 0 -2
BITMAP
6050
2080
1540
0A00
0500
0500
0500
0000
0500
ENDCHAR
STARTCHAR uni1EF5
ENCODING 7925
SWIDTH 600 0
DWIDTH 6 0
BBX 6 7 0 -2
BITMAP
6050
2080
1580
0A00
0A00
0900
7880
ENDCHAR
STARTCHAR uni1EF6
ENCODING 7926
SWIDTH 600 0
DWIDTH 6 0
BBX 6 10 0 0
BITMAP
0900
0200
0500
6050
2080
1540
0A00
0500
0500
0500
ENDCHAR
STARTCHAR uni1EF7
ENCODING 7927
SWIDTH 600 0
DWIDTH 6 0
BBX 6 10 0 -2
BITMAP
0900
0200
0500
6050
2080
1580
0A00
0A00
0900
7800
ENDCHAR
STARTCHAR uni1EF8
ENCODING 7928
SWIDTH 600 0
DWIDTH 6 0
BBX 6 9 0 0
BITMAP
1D80
2740
6050
2080
1540
0A00
0500
0500
0500
ENDCHAR
STARTCHAR uni1EF9
ENCODING 7929
SWIDTH 600 0
DWIDTH 6 0
BBX 6 10 0 -2
BITMAP
1D80
2340
0000
6050
2080
1580
0A00
0A00
0900
7800
ENDCHAR
STARTCHAR uni1FBD
ENCODING 8125
SWIDTH 600 0
DWIDTH 6 0
BBX 2 3 2 5
BITMAP
90
20
50
ENDCHAR
STARTCHAR uni1FBE
ENCODING 8126
SWIDTH 600 0
DWIDTH 6 0
BBX 2 4 2 0
BITMAP
50
50
50
70
ENDCHAR
STARTCHAR uni1FBF
ENCODING 8127
SWIDTH 600 0
DWIDTH 6 0
BBX 2 3 2 5
BITMAP
90
20
50
ENDCHAR
STARTCHAR uni1FC0
ENCODING 8128
SWIDTH 600 0
DWIDTH 6 0
BBX 4 2 1 6
BITMAP
76
8D
ENDCHAR
STARTCHAR uni1FC1
ENCODING 8129
SWIDTH 600 0
DWIDTH 6 0
BBX 4 4 1 6
BITMAP
75
5D
00
55
ENDCHAR
STARTCHAR uni1FCD
ENCODING 8141
SWIDTH 600 0
DWIDTH 6 0
BBX 3 3 1 5
BITMAP
98
28
54
ENDCHAR
STARTCHAR uni1FCE
ENCODING 8142
SWIDTH 600 0
DWIDTH 6 0
BBX 4 3 1 5
BITMAP
99
28
58
ENDCHAR
STARTCHAR uni1FCF
ENCODING 8143
SWIDTH 600 0
DWIDTH 6 0
BBX 4 4 1 5
BITMAP
25
7C
08
14
ENDCHAR
STARTCHAR uni1FDD
ENCODING 8157
SWIDTH 600 0
DWIDTH 6 0
BBX 3 3 1 5
BITMAP
68
88
58
ENDCHAR
STARTCHAR uni1FDE
ENCODING 8158
SWIDTH 600 0
DWIDTH 6 0
BBX 3 3 1 5
BITMAP
68
58
58
ENDCHAR
STARTCHAR uni1FDF
ENCODING 8159
SWIDTH 600 0
DWIDTH 6 0
BBX 4 4 1 5
BITMAP
25
6C
20
14
ENDCHAR
STARTCHAR uni1FED
ENCODING 8173
SWIDTH 600 0
DWIDTH 6 0
BBX 4 2 1 6
BITMAP
20
55
ENDCHAR
STARTCHAR uni1FEE
ENCODING 8174
SWIDTH 600 0
DWIDTH 6 0
BBX 4 2 1 6
BITMAP
08
55
ENDCHAR
STARTCHAR uni1FEF
ENCODING 8175
SWIDTH 600 0
DWIDTH 6 0
BBX 2 2 2 6
BITMAP
80
50
ENDCHAR
STARTCHAR uni1FFD
ENCODING 8189
SWIDTH 600 0
DWIDTH 6 0
BBX 2 2 2 6
BITMAP
20
50
ENDCHAR
STARTCHAR uni1FFE
ENCODING 8190
SWIDTH 600 0
DWIDTH 6 0
BBX 2 3 2 5
BITMAP
60
80
50
ENDCHAR
STARTCHAR uni2007
ENCODING 8199
SWIDTH 600 0
DWIDTH 6 0
BBX 1 1 0 0
BITMAP
00
ENDCHAR
STARTCHAR uni2010
ENCODING 8208
SWIDTH 600 0
DWIDTH 6 0
BBX 4 1 1 3
BITMAP
FF
ENDCHAR
STARTCHAR figuredash
ENCODING 8210
SWIDTH 600 0
DWIDTH 6 0
BBX 6 1 0 2
BITMAP
7FD0
ENDCHAR
STARTCHAR endash
ENCODING 8211
SWIDTH 600 0
DWIDTH 6 0
BBX 6 1 0 2
BITMAP
7FD0
ENDCHAR
STARTCHAR emdash
ENCODING 8212
SWIDTH 600 0
DWIDTH 6 0
BBX 6 1 0 2
BITMAP
FFF0
ENDCHAR
STARTCHAR uni2015
ENCODING 8213
SWIDTH 600 0
DWIDTH 6 0
BBX 6 1 0 2
BITMAP
FFF0
ENDCHAR
STARTCHAR uni2016
ENCODING 8214
SWIDTH 600 0
DWIDTH 6 0
BBX 4 10 1 -3
BITMAP
55
55
55
55
55
55
55
55
55
55
ENDCHAR
STARTCHAR underscoredbl
ENCODING 8215
SWIDTH 600 0
DWIDTH 6 0
BBX 6 3 0 -3
BITMAP
7FD0
0000
7FD0
ENDCHAR
STARTCHAR quoteleft
ENCODING 8216
SWIDTH 600 0
DWIDTH 6 0
BBX 2 3 2 4
BITMAP
50
80
A0
ENDCHAR
STARTCHAR quoteright
ENCODING 8217
SWIDTH 600 0
DWIDTH 6 0
BBX 2 3 2 4
BITMAP
A0
20
90
ENDCHAR
STARTCHAR quotesinglbase
ENCODING 8218
SWIDTH 600 0
DWIDTH 6 0
BBX 2 3 2 -2
BITMAP
A0
20
90
ENDCHAR
STARTCHAR quotereversed
ENCODING 8219
SWIDTH 600 0
DWIDTH 6 0
BBX 2 3 2 4
BITMAP
A0
80
60
ENDCHAR
STARTCHAR quotedblleft
ENCODING 8220
SWIDTH 600 0
DWIDTH 6 0
BBX 4 3 1 4
BITMAP
52
88
DA
ENDCHAR
STARTCHAR quotedblright
ENCODING 8221
SWIDTH 600 0
DWIDTH 6 0
BBX 4 3 1 4
BITMAP
A6
22
85
ENDCHAR
STARTCHAR quotedblbase
ENCODING 8222
SWIDTH 600 0
DWIDTH 6 0
BBX 4 3 1 -2
BITMAP
A6
22
85
ENDCHAR
STARTCHAR dagger
ENCODING 8224
SWIDTH 600 0
DWIDTH 6 0
BBX 4 9 1 -1
BITMAP
14
14
BE
14
14
14
14
14
14
ENDCHAR
STARTCHAR daggerdbl
ENCODING 8225
SWIDTH 600 0
DWIDTH 6 0
BBX 4 9 1 -1
BITMAP
14
14
BE
14
14
14
BE
14
14
ENDCHAR
STARTCHAR bullet
ENCODING 8226
SWIDTH 600 0
DWIDTH 6 0
BBX 4 3 1 1
BITMAP
3C
7D
3C
ENDCHAR
STARTCHAR ellipsis
ENCODING 8230
SWIDTH 600 0
DWIDTH 6 0
BBX 6 2 0 0
BITMAP
AA90
AA90
ENDCHAR
STARTCHAR uni202F
ENCODING 8239
SWIDTH 600 0
DWIDTH 6 0
BBX 1 1 0 0
BITMAP
00
ENDCHAR
STARTCHAR perthousand
ENCODING 8240
SWIDTH 600 0
DWIDTH 6 0
BBX 6 6 0 0
BITMAP
7800
7990
1500
75D0
5A50
75D0
ENDCHAR
STARTCHAR uni2032
ENCODING 8242
SWIDTH 600 0
DWIDTH 6 0
BBX 2 3 2 4
BITMAP
60
50
50
ENDCHAR
STARTCHAR uni2033
ENCODING 8243
SWIDTH 600 0
DWIDTH 6 0
BBX 4 3 1 4
BITMAP
25
65
58
ENDCHAR
STARTCHAR uni2035
ENCODING 8245
SWIDTH 600 0
DWIDTH 6 0
BBX 2 3 2 4
BITMAP
90
50
50
ENDCHAR
STARTCHAR guilsinglleft
ENCODING 8249
SWIDTH 600 0
DWIDTH 6 0
BBX 2 4 2 1
BITMAP
20
80
80
20
ENDCHAR
STARTCHAR guilsinglright
ENCODING 8250
SWIDTH 600 0
DWIDTH 6 0
BBX 2 4 2 1
BITMAP
80
20
20
80
ENDCHAR
STARTCHAR exclamdbl
ENCODING 8252
SWIDTH 600 0
DWIDTH 6 0
BBX 4 7 1 0
BITMAP
86
82
82
81
00
D6
D6
ENDCHAR
STARTCHAR uni203D
ENCODING 8253
SWIDTH 600 0
DWIDTH 6 0
BBX 4 7 1 0
BITMAP
7D
42
25
14
00
24
24
ENDCHAR
STARTCHAR uni203E
ENCODING 8254
SWIDTH 600 0
DWIDTH 6 0
BBX 6 1 0 6
BITMAP
7FD0
ENDCHAR
STARTCHAR uni203F
ENCODING 8255
SWIDTH 600 0
DWIDTH 6 0
BBX 10 2 -2 -3
BITMAP
640190
06F900
ENDCHAR
STARTCHAR fraction
ENCODING 8260
SWIDTH 600 0
DWIDTH 6 0
BBX 6 6 0 0
BITMAP
0050
0080
0000
0000
2000
5000
ENDCHAR
STARTCHAR uni2047
ENCODING 8263
SWIDTH 600 0
DWIDTH 6 0
BBX 6 7 0 0
BITMAP
7AD0
4960
1440
2080
0000
3180
3180
ENDCHAR
STARTCHAR uni2048
ENCODING 8264
SWIDTH 600 0
DWIDTH 6 0
BBX 5 7 0 0
BITMAP
7880
4880
1480
2080
0000
31C0
31C0
ENDCHAR
STARTCHAR uni2049
ENCODING 8265
SWIDTH 600 0
DWIDTH 6 0
BBX 5 7 1 0
BITMAP
8B40
8580
8100
8200
0000
C600
C600
ENDCHAR
STARTCHAR zero.sups
ENCODING 8304
SWIDTH 600 0
DWIDTH 6 0
BBX 4 4 1 4
BITMAP
3C
96
96
3C
ENDCHAR
STARTCHAR i.sups
ENCODING 8305
SWIDTH 600 0
DWIDTH 6 0
BBX 3 6 1 3
BITMAP
08
00
78
08
08
04
ENDCHAR
STARTCHAR four.sups
ENCODING 8308
SWIDTH 600 0
DWIDTH 6 0
BBX 4 4 1 4
BITMAP
14
18
BE
08
ENDCHAR
STARTCHAR five.sups
ENCODING 8309
SWIDTH 600 0
DWIDTH 6 0
BBX 4 4 1 4
BITMAP
3D
3D
55
3C
ENDCHAR
STARTCHAR six.sups
ENCODING 8310
SWIDTH 600 0
DWIDTH 6 0
BBX 4 4 1 4
BITMAP
2D
64
69
2D
ENDCHAR
STARTCHAR seven.sups
ENCODING 8311
SWIDTH 600 0
DWIDTH 6 0
BBX 4 4 1 4
BITMAP
7D
04
14
14
ENDCHAR
STARTCHAR eight.sups
ENCODING 8312
SWIDTH 600 0
DWIDTH 6 0
BBX 4 5 1 4
BITMAP
3C
65
3C
55
7D
ENDCHAR
STARTCHAR nine.sups
ENCODING 8313
SWIDTH 600 0
DWIDTH 6 0
BBX 4 4 1 4
BITMAP
78
69
19
78
ENDCHAR
STARTCHAR parenleft.sups
ENCODING 8317
SWIDTH 600 0
DWIDTH 6 0
BBX 2 5 2 4
BITMAP
20
50
80
40
20
ENDCHAR
STARTCHAR parenright.sups
ENCODING 8318
SWIDTH 600 0
DWIDTH 6 0
BBX 2 5 2 4
BITMAP
40
50
20
10
40
ENDCHAR
STARTCHAR n.sups
ENCODING 8319
SWIDTH 600 0
DWIDTH 6 0
BBX 4 4 1 3
BITMAP
6D
66
52
51
ENDCHAR
STARTCHAR zero.subs
ENCODING 8320
SWIDTH 600 0
DWIDTH 6 0
BBX 4 4 1 -2
BITMAP
3C
96
96
3C
ENDCHAR
STARTCHAR one.subs
ENCODING 8321
SWIDTH 600 0
DWIDTH 6 0
BBX 4 4 1 -2
BITMAP
28
08
08
7E
ENDCHAR
STARTCHAR two.subs
ENCODING 8322
SWIDTH 600 0
DWIDTH 6 0
BBX 4 4 1 -2
BITMAP
3C
48
14
7D
ENDCHAR
STARTCHAR three.subs
ENCODING 8323
SWIDTH 600 0
DWIDTH 6 0
BBX 4 4 1 -2
BITMAP
2C
2C
45
3C
ENDCHAR
STARTCHAR four.subs
ENCODING 8324
SWIDTH 600 0
DWIDTH 6 0
BBX 4 4 1 -2
BITMAP
14
18
BE
08
ENDCHAR
STARTCHAR five.subs
ENCODING 8325
SWIDTH 600 0
DWIDTH 6 0
BBX 4 4 1 -2
BITMAP
3D
3D
55
3C
ENDCHAR
STARTCHAR six.subs
ENCODING 8326
SWIDTH 600 0
DWIDTH 6 0
BBX 4 4 1 -2
BITMAP
2D
64
69
2D
ENDCHAR
STARTCHAR seven.subs
ENCODING 8327
SWIDTH 600 0
DWIDTH 6 0
BBX 4 4 1 -2
BITMAP
7D
04
14
14
ENDCHAR
STARTCHAR eight.subs
ENCODING 8328
SWIDTH 600 0
DWIDTH 6 0
BBX 4 5 1 -2
BITMAP
3C
65
3C
55
7D
ENDCHAR
STARTCHAR nine.subs
ENCODING 8329
SWIDTH 600 0
DWIDTH 6 0
BBX 4 4 1 -2
BITMAP
78
69
19
78
ENDCHAR
STARTCHAR parenleft.subs
ENCODING 8333
SWIDTH 600 0
DWIDTH 6 0
BBX 2 5 2 -2
BITMAP
20
50
80
40
20
ENDCHAR
STARTCHAR parenright.subs
ENCODING 8334
SWIDTH 600 0
DWIDTH 6 0
BBX 2 5 2 -2
BITMAP
40
50
20
10
40
ENDCHAR
STARTCHAR uni0259.sups
ENCODING 8340
SWIDTH 600 0
DWIDTH 6 0
BBX 4 3 1 4
BITMAP
3D
BD
7D
ENDCHAR
STARTCHAR colonmonetary
ENCODING 8353
SWIDTH 600 0
DWIDTH 6 0
BBX 4 8 1 -1
BITMAP
05
2F
95
D5
D5
A8
3E
14
ENDCHAR
STARTCHAR franc
ENCODING 8355
SWIDTH 600 0
DWIDTH 6 0
BBX 6 6 0 0
BITMAP
2FD0
2400
2FC0
2400
7F00
2400
ENDCHAR
STARTCHAR lira
ENCODING 8356
SWIDTH 600 0
DWIDTH 6 0
BBX 6 6 0 0
BITMAP
1F80
7F80
0800
7F40
1400
7FD0
ENDCHAR
STARTCHAR uni20A6
ENCODING 8358
SWIDTH 600 0
DWIDTH 6 0
BBX 6 6 0 0
BITMAP
2480
BFE0
2580
BFE0
2280
2180
ENDCHAR
STARTCHAR peseta
ENCODING 8359
SWIDTH 600 0
DWIDTH 6 0
BBX 6 6 0 0
BITMAP
2F40
20C0
BFE0
20C0
2F40
2000
ENDCHAR
STARTCHAR uni20A9
ENCODING 8361
SWIDTH 600 0
DWIDTH 6 0
BBX 6 6 0 0
BITMAP
5550
2A80
BFE0
2A80
2A80
2980
ENDCHAR
STARTCHAR dong
ENCODING 8363
SWIDTH 600 0
DWIDTH 6 0
BBX 5 8 1 0
BITMAP
0200
2F40
0200
7A00
8600
7A00
0000
BF00
ENDCHAR
STARTCHAR Euro
ENCODING 8364
SWIDTH 600 0
DWIDTH 6 0
BBX 6 6 0 0
BITMAP
1B80
7FD0
3000
7F80
2450
0B80
ENDCHAR
STARTCHAR uni20AE
ENCODING 8366
SWIDTH 600 0
DWIDTH 6 0
BBX 6 6 0 0
BITMAP
7FD0
0500
0640
1A40
1900
0500
ENDCHAR
STARTCHAR uni20B1
ENCODING 8369
SWIDTH 600 0
DWIDTH 6 0
BBX 6 7 0 -1
BITMAP
2F40
2180
69D0
7AD0
69D0
2A80
0500
ENDCHAR
STARTCHAR uni20B2
ENCODING 8370
SWIDTH 600 0
DWIDTH 6 0
BBX 5 8 1 -1
BITMAP
0800
6E00
9100
8000
8B40
9240
6E00
0800
ENDCHAR
STARTCHAR uni20B4
ENCODING 8372
SWIDTH 600 0
DWIDTH 6 0
BBX 6 6 0 0
BITMAP
1F40
7FD0
0900
7FD0
2440
1F40
ENDCHAR
STARTCHAR uni20B5
ENCODING 8373
SWIDTH 600 0
DWIDTH 6 0
BBX 5 8 1 -1
BITMAP
0800
2E00
9900
C800
C800
9940
2E00
0800
ENDCHAR
STARTCHAR uni20B8
ENCODING 8376
SWIDTH 600 0
DWIDTH 6 0
BBX 6 6 0 0
BITMAP
7FD0
0000
7FD0
0500
0500
0500
ENDCHAR
STARTCHAR uni20B9
ENCODING 8377
SWIDTH 600 0
DWIDTH 6 0
BBX 5 6 1 0
BITMAP
FF40
0900
FF40
FD00
2400
0500
ENDCHAR
STARTCHAR uni20BA
ENCODING 8378
SWIDTH 600 0
DWIDTH 6 0
BBX 6 6 0 0
BITMAP
1400
1900
6A00
6450
1580
1E00
ENDCHAR
STARTCHAR uni20BD
ENCODING 8381
SWIDTH 600 0
DWIDTH 6 0
BBX 6 6 0 0
BITMAP
1F90
1460
BF90
1400
BFC0
1400
ENDCHAR
STARTCHAR uni2105
ENCODING 8453
SWIDTH 600 0
DWIDTH 6 0
BBX 6 6 0 0
BITMAP
7450
8540
7400
06D0
2220
42D0
ENDCHAR
STARTCHAR uni2113
ENCODING 8467
SWIDTH 600 0
DWIDTH 6 0
BBX 4 7 1 0
BITMAP
1D
22
22
28
34
B1
2E
ENDCHAR
STARTCHAR uni2116
ENCODING 8470
SWIDTH 600 0
DWIDTH 6 0
BBX 6 6 0 0
BITMAP
96A0
A5A0
A5E0
9900
89E0
8900
ENDCHAR
STARTCHAR uni2117
ENCODING 8471
SWIDTH 600 0
DWIDTH 6 0
BBX 6 6 0 0
BITMAP
1F40
6090
4E50
4F50
6090
1F40
ENDCHAR
STARTCHAR uni2120
ENCODING 8480
SWIDTH 600 0
DWIDTH 6 0
BBX 6 3 0 4
BITMAP
B620
42A0
7590
ENDCHAR
STARTCHAR trademark
ENCODING 8482
SWIDTH 600 0
DWIDTH 6 0
BBX 6 3 0 4
BITMAP
FA20
22A0
22A0
ENDCHAR
STARTCHAR uni2126
ENCODING 8486
SWIDTH 600 0
DWIDTH 6 0
BBX 6 7 0 0
BITMAP
1F40
30C0
5050
5050
6090
2080
B5E0
ENDCHAR
STARTCHAR estimated
ENCODING 8494
SWIDTH 600 0
DWIDTH 6 0
BBX 6 7 0 0
BITMAP
1F40
6080
A0A0
BFE0
A000
6080
1E00
ENDCHAR
STARTCHAR uni2150
ENCODING 8528
SWIDTH 600 0
DWIDTH 6 0
BBX 6 6 0 0
BITMAP
7050
2080
2000
02E0
2040
5080
ENDCHAR
STARTCHAR uni2151
ENCODING 8529
SWIDTH 600 0
DWIDTH 6 0
BBX 6 6 0 0
BITMAP
7050
2080
2000
02D0
22E0
52D0
ENDCHAR
STARTCHAR uni2152
ENCODING 8530
SWIDTH 600 0
DWIDTH 6 0
BBX 6 6 0 0
BITMAP
7400
1590
1AC0
7650
1650
15C0
ENDCHAR
STARTCHAR onethird
ENCODING 8531
SWIDTH 600 0
DWIDTH 6 0
BBX 6 6 0 0
BITMAP
7050
2080
2000
01D0
21D0
51D0
ENDCHAR
STARTCHAR twothirds
ENCODING 8532
SWIDTH 600 0
DWIDTH 6 0
BBX 6 6 0 0
BITMAP
7450
5480
B800
01D0
21D0
51D0
ENDCHAR
STARTCHAR uni2155
ENCODING 8533
SWIDTH 600 0
DWIDTH 6 0
BBX 6 6 0 0
BITMAP
7050
2080
2000
01D0
22D0
51D0
ENDCHAR
STARTCHAR uni2156
ENCODING 8534
SWIDTH 600 0
DWIDTH 6 0
BBX 6 6 0 0
BITMAP
7450
5480
B800
01D0
22D0
51D0
ENDCHAR
STARTCHAR uni2157
ENCODING 8535
SWIDTH 600 0
DWIDTH 6 0
BBX 6 6 0 0
BITMAP
7450
7480
7800
01D0
22D0
51D0
ENDCHAR
STARTCHAR uni2158
ENCODING 8536
SWIDTH 600 0
DWIDTH 6 0
BBX 6 6 0 0
BITMAP
2050
5480
BC00
01D0
22D0
51D0
ENDCHAR
STARTCHAR uni2159
ENCODING 8537
SWIDTH 600 0
DWIDTH 6 0
BBX 6 6 0 0
BITMAP
7050
2080
2000
01D0
22E0
51D0
ENDCHAR
STARTCHAR uni215A
ENCODING 8538
SWIDTH 600 0
DWIDTH 6 0
BBX 6 6 0 0
BITMAP
7850
7880
7800
01D0
22E0
51D0
ENDCHAR
STARTCHAR oneeighth
ENCODING 8539
SWIDTH 600 0
DWIDTH 6 0
BBX 6 6 0 0
BITMAP
7050
2080
2000
02D0
22D0
52D0
ENDCHAR
STARTCHAR threeeighths
ENCODING 8540
SWIDTH 600 0
DWIDTH 6 0
BBX 6 6 0 0
BITMAP
7450
7480
7800
02D0
22D0
52D0
ENDCHAR
STARTCHAR fiveeighths
ENCODING 8541
SWIDTH 600 0
DWIDTH 6 0
BBX 6 6 0 0
BITMAP
7850
7880
7800
02D0
22D0
52D0
ENDCHAR
STARTCHAR seveneighths
ENCODING 8542
SWIDTH 600 0
DWIDTH 6 0
BBX 6 6 0 0
BITMAP
BC50
1480
2000
02D0
22D0
52D0
ENDCHAR
STARTCHAR uni2189
ENCODING 8585
SWIDTH 600 0
DWIDTH 6 0
BBX 6 6 0 0
BITMAP
7850
8880
7800
01D0
21D0
51D0
ENDCHAR
STARTCHAR uni2190
ENCODING 8592
SWIDTH 600 0
DWIDTH 6 0
BBX 6 5 0 0
BITMAP
0800
2000
BFE0
2000
0800
ENDCHAR
STARTCHAR arrowup
ENCODING 8593
SWIDTH 600 0
DWIDTH 6 0
BBX 6 6 0 0
BITMAP
0500
1A40
6550
0500
0500
0500
ENDCHAR
STARTCHAR uni2192
ENCODING 8594
SWIDTH 600 0
DWIDTH 6 0
BBX 6 5 0 0
BITMAP
0200
0080
BFE0
0080
0200
ENDCHAR
STARTCHAR arrowdown
ENCODING 8595
SWIDTH 600 0
DWIDTH 6 0
BBX 6 6 0 0
BITMAP
0500
0500
0500
6550
1A40
0500
ENDCHAR
STARTCHAR arrowboth
ENCODING 8596
SWIDTH 600 0
DWIDTH 6 0
BBX 6 5 0 0
BITMAP
1040
5050
FFF0
5050
1040
ENDCHAR
STARTCHAR arrowupdn
ENCODING 8597
SWIDTH 600 0
DWIDTH 6 0
BBX 4 6 1 0
BITMAP
28
AA
14
14
AA
28
ENDCHAR
STARTCHAR uni2196
ENCODING 8598
SWIDTH 600 0
DWIDTH 6 0
BBX 4 5 1 0
BITMAP
55
E0
A4
89
41
ENDCHAR
STARTCHAR uni2197
ENCODING 8599
SWIDTH 600 0
DWIDTH 6 0
BBX 4 5 1 0
BITMAP
55
0B
16
52
41
ENDCHAR
STARTCHAR uni2198
ENCODING 8600
SWIDTH 600 0
DWIDTH 6 0
BBX 4 5 1 0
BITMAP
41
62
1A
5B
55
ENDCHAR
STARTCHAR uni2199
ENCODING 8601
SWIDTH 600 0
DWIDTH 6 0
BBX 4 5 1 0
BITMAP
41
85
94
E5
55
ENDCHAR
STARTCHAR arrowupdnbse
ENCODING 8616
SWIDTH 600 0
DWIDTH 6 0
BBX 6 8 0 -2
BITMAP
0500
1A40
1540
0500
1540
1A40
0500
7FD0
ENDCHAR
STARTCHAR uni21D0
ENCODING 8656
SWIDTH 600 0
DWIDTH 6 0
BBX 6 5 0 0
BITMAP
0800
3FE0
9000
3FE0
0800
ENDCHAR
STARTCHAR uni21D1
ENCODING 8657
SWIDTH 600 0
DWIDTH 6 0
BBX 6 6 0 0
BITMAP
0500
1A40
6590
1540
1540
1540
ENDCHAR
STARTCHAR uni21D2
ENCODING 8658
SWIDTH 600 0
DWIDTH 6 0
BBX 6 5 0 0
BITMAP
0200
BFC0
0060
BFC0
0200
ENDCHAR
STARTCHAR uni21D3
ENCODING 8659
SWIDTH 600 0
DWIDTH 6 0
BBX 6 6 0 0
BITMAP
1540
1540
1540
6590
1A40
0500
ENDCHAR
STARTCHAR uni2200
ENCODING 8704
SWIDTH 600 0
DWIDTH 6 0
BBX 6 7 0 0
BITMAP
9060
6090
3FC0
2580
1940
0A00
0A00
ENDCHAR
STARTCHAR partialdiff
ENCODING 8706
SWIDTH 600 0
DWIDTH 6 0
BBX 5 7 1 0
BITMAP
2D00
0700
0200
7E40
8300
8600
B800
ENDCHAR
STARTCHAR uni2203
ENCODING 8707
SWIDTH 600 0
DWIDTH 6 0
BBX 5 7 0 0
BITMAP
7FC0
00C0
00C0
2FC0
00C0
00C0
7FC0
ENDCHAR
STARTCHAR uni2206
ENCODING 8710
SWIDTH 600 0
DWIDTH 6 0
BBX 6 7 0 0
BITMAP
0A00
0A00
1540
2080
2080
6090
BFE0
ENDCHAR
STARTCHAR product
ENCODING 8719
SWIDTH 600 0
DWIDTH 6 0
BBX 6 7 0 -1
BITMAP
7FD0
5050
5050
5050
5050
5050
5050
ENDCHAR
STARTCHAR summation
ENCODING 8721
SWIDTH 600 0
DWIDTH 6 0
BBX 6 7 0 -1
BITMAP
7FD0
2400
0800
0200
0800
2400
7FD0
ENDCHAR
STARTCHAR minus
ENCODING 8722
SWIDTH 600 0
DWIDTH 6 0
BBX 4 1 1 3
BITMAP
FF
ENDCHAR
STARTCHAR uni2215
ENCODING 8725
SWIDTH 600 0
DWIDTH 6 0
BBX 6 6 0 0
BITMAP
0050
0080
0000
0000
2000
5000
ENDCHAR
STARTCHAR uni2219
ENCODING 8729
SWIDTH 600 0
DWIDTH 6 0
BBX 2 2 2 3
BITMAP
A0
A0
ENDCHAR
STARTCHAR radical
ENCODING 8730
SWIDTH 600 0
DWIDTH 6 0
BBX 5 9 1 -1
BITMAP
0080
0140
0140
0200
8200
5100
2500
1800
0800
ENDCHAR
STARTCHAR infinity
ENCODING 8734
SWIDTH 600 0
DWIDTH 6 0
BBX 6 4 0 1
BITMAP
B5D0
8A20
BA20
02D0
ENDCHAR
STARTCHAR orthogonal
ENCODING 8735
SWIDTH 600 0
DWIDTH 6 0
BBX 4 5 1 1
BITMAP
40
80
80
80
FF
ENDCHAR
STARTCHAR intersection
ENCODING 8745
SWIDTH 600 0
DWIDTH 6 0
BBX 4 5 1 1
BITMAP
7D
82
82
82
82
ENDCHAR
STARTCHAR integral
ENCODING 8747
SWIDTH 600 0
DWIDTH 6 0
BBX 3 10 2 -2
BITMAP
34
50
50
50
50
60
20
20
60
D0
ENDCHAR
STARTCHAR uni2237
ENCODING 8759
SWIDTH 600 0
DWIDTH 6 0
BBX 4 5 1 1
BITMAP
D7
D7
00
D7
D7
ENDCHAR
STARTCHAR approxequal
ENCODING 8776
SWIDTH 600 0
DWIDTH 6 0
BBX 4 4 1 1
BITMAP
B5
9E
B5
9E
ENDCHAR
STARTCHAR notequal
ENCODING 8800
SWIDTH 600 0
DWIDTH 6 0
BBX 4 6 1 0
BITMAP
01
FF
08
20
FF
40
ENDCHAR
STARTCHAR equivalence
ENCODING 8801
SWIDTH 600 0
DWIDTH 6 0
BBX 4 5 1 1
BITMAP
FF
00
FF
00
FF
ENDCHAR
STARTCHAR lessequal
ENCODING 8804
SWIDTH 600 0
DWIDTH 6 0
BBX 4 6 1 0
BITMAP
01
6E
E0
6E
01
FF
ENDCHAR
STARTCHAR greaterequal
ENCODING 8805
SWIDTH 600 0
DWIDTH 6 0
BBX 4 6 1 0
BITMAP
40
B9
0B
B9
40
FF
ENDCHAR
STARTCHAR house
ENCODING 8962
SWIDTH 600 0
DWIDTH 6 0
BBX 6 7 0 0
BITMAP
0A00
1A40
2080
5050
9060
9060
BFE0
ENDCHAR
STARTCHAR revlogicalnot
ENCODING 8976
SWIDTH 600 0
DWIDTH 6 0
BBX 4 3 1 1
BITMAP
FF
80
40
ENDCHAR
STARTCHAR uni231C
ENCODING 8988
SWIDTH 600 0
DWIDTH 6 0
BBX 3 8 2 -1
BITMAP
BC
80
80
80
80
80
80
40
ENDCHAR
STARTCHAR uni231D
ENCODING 8989
SWIDTH 600 0
DWIDTH 6 0
BBX 3 8 1 -1
BITMAP
F8
08
08
08
08
08
08
04
ENDCHAR
STARTCHAR uni231E
ENCODING 8990
SWIDTH 600 0
DWIDTH 6 0
BBX 3 8 2 -1
BITMAP
80
80
80
80
80
80
80
BC
ENDCHAR
STARTCHAR uni231F
ENCODING 8991
SWIDTH 600 0
DWIDTH 6 0
BBX 3 8 1 -1
BITMAP
08
08
08
08
08
08
08
F8
ENDCHAR
STARTCHAR integraltp
ENCODING 8992
SWIDTH 600 0
DWIDTH 6 0
BBX 3 12 2 -4
BITMAP
24
60
50
50
50
50
50
50
50
50
50
50
ENDCHAR
STARTCHAR integralbt
ENCODING 8993
SWIDTH 600 0
DWIDTH 6 0
BBX 3 12 1 -2
BITMAP
14
14
14
14
14
14
14
14
14
14
24
60
ENDCHAR
STARTCHAR uni2500
ENCODING 9472
SWIDTH 600 0
DWIDTH 6 0
BBX 8 1 -1 3
BITMAP
7FFD
ENDCHAR
STARTCHAR uni2501
ENCODING 9473
SWIDTH 600 0
DWIDTH 6 0
BBX 8 2 -1 2
BITMAP
7FFD
7FFD
ENDCHAR
STARTCHAR uni2502
ENCODING 9474
SWIDTH 600 0
DWIDTH 6 0
BBX 2 14 2 -4
BITMAP
50
50
50
50
50
50
50
50
50
50
50
50
50
50
ENDCHAR
STARTCHAR uni2503
ENCODING 9475
SWIDTH 600 0
DWIDTH 6 0
BBX 2 14 2 -4
BITMAP
A0
A0
A0
A0
A0
A0
A0
A0
A0
A0
A0
A0
A0
A0
ENDCHAR
STARTCHAR uni2504
ENCODING 9476
SWIDTH 600 0
DWIDTH 6 0
BBX 6 1 0 3
BITMAP
AAA0
ENDCHAR
STARTCHAR uni2505
ENCODING 9477
SWIDTH 600 0
DWIDTH 6 0
BBX 6 2 0 2
BITMAP
AAA0
AAA0
ENDCHAR
STARTCHAR uni2506
ENCODING 9478
SWIDTH 600 0
DWIDTH 6 0
BBX 2 11 2 -2
BITMAP
50
50
50
00
00
50
50
00
00
50
50
ENDCHAR
STARTCHAR uni2507
ENCODING 9479
SWIDTH 600 0
DWIDTH 6 0
BBX 2 11 2 -2
BITMAP
A0
A0
A0
00
A0
A0
A0
00
A0
A0
A0
ENDCHAR
STARTCHAR uni2508
ENCODING 9480
SWIDTH 600 0
DWIDTH 6 0
BBX 6 1 0 3
BITMAP
AAA0
ENDCHAR
STARTCHAR uni2509
ENCODING 9481
SWIDTH 600 0
DWIDTH 6 0
BBX 6 2 0 2
BITMAP
AAA0
AAA0
ENDCHAR
STARTCHAR uni250A
ENCODING 9482
SWIDTH 600 0
DWIDTH 6 0
BBX 2 11 2 -3
BITMAP
50
50
00
50
50
00
50
50
00
50
50
ENDCHAR
STARTCHAR uni250B
ENCODING 9483
SWIDTH 600 0
DWIDTH 6 0
BBX 2 11 2 -3
BITMAP
A0
A0
00
A0
A0
00
A0
A0
00
A0
A0
ENDCHAR
STARTCHAR uni250C
ENCODING 9484
SWIDTH 600 0
DWIDTH 6 0
BBX 5 8 2 -4
BITMAP
7F40
5000
5000
5000
5000
5000
5000
5000
ENDCHAR
STARTCHAR uni250D
ENCODING 9485
SWIDTH 600 0
DWIDTH 6 0
BBX 5 8 2 -4
BITMAP
7F40
7F40
5000
5000
5000
5000
5000
5000
ENDCHAR
STARTCHAR uni250E
ENCODING 9486
SWIDTH 600 0
DWIDTH 6 0
BBX 5 8 2 -4
BITMAP
BF40
A000
A000
A000
A000
A000
A000
5000
ENDCHAR
STARTCHAR uni250F
ENCODING 9487
SWIDTH 600 0
DWIDTH 6 0
BBX 5 9 2 -5
BITMAP
BF40
BF40
A000
A000
A000
A000
A000
A000
5000
ENDCHAR
STARTCHAR uni2510
ENCODING 9488
SWIDTH 600 0
DWIDTH 6 0
BBX 5 8 -1 -4
BITMAP
7F40
0140
0140
0140
0140
0140
0140
0140
ENDCHAR
STARTCHAR uni2511
ENCODING 9489
SWIDTH 600 0
DWIDTH 6 0
BBX 5 8 -1 -4
BITMAP
7F40
7F40
0140
0140
0140
0140
0140
0140
ENDCHAR
STARTCHAR uni2512
ENCODING 9490
SWIDTH 600 0
DWIDTH 6 0
BBX 5 8 -1 -4
BITMAP
7F80
0280
0280
0280
0280
0280
0280
0140
ENDCHAR
STARTCHAR uni2513
ENCODING 9491
SWIDTH 600 0
DWIDTH 6 0
BBX 5 9 -1 -5
BITMAP
7F80
7F80
0280
0280
0280
0280
0280
0280
0140
ENDCHAR
STARTCHAR uni2514
ENCODING 9492
SWIDTH 600 0
DWIDTH 6 0
BBX 5 8 2 3
BITMAP
5000
5000
5000
5000
5000
5000
5000
7F40
ENDCHAR
STARTCHAR uni2515
ENCODING 9493
SWIDTH 600 0
DWIDTH 6 0
BBX 5 8 2 2
BITMAP
5000
5000
5000
5000
5000
5000
7F40
7F40
ENDCHAR
STARTCHAR uni2516
ENCODING 9494
SWIDTH 600 0
DWIDTH 6 0
BBX 5 8 2 3
BITMAP
5000
A000
A000
A000
A000
A000
A000
BF40
ENDCHAR
STARTCHAR uni2517
ENCODING 9495
SWIDTH 600 0
DWIDTH 6 0
BBX 5 9 2 2
BITMAP
5000
A000
A000
A000
A000
A000
A000
BF40
BF40
ENDCHAR
STARTCHAR uni2518
ENCODING 9496
SWIDTH 600 0
DWIDTH 6 0
BBX 5 8 -1 3
BITMAP
0140
0140
0140
0140
0140
0140
0140
7F40
ENDCHAR
STARTCHAR uni2519
ENCODING 9497
SWIDTH 600 0
DWIDTH 6 0
BBX 5 8 -1 2
BITMAP
0140
0140
0140
0140
0140
0140
7F40
7F40
ENDCHAR
STARTCHAR uni251A
ENCODING 9498
SWIDTH 600 0
DWIDTH 6 0
BBX 5 8 -1 3
BITMAP
0140
0280
0280
0280
0280
0280
0280
7F80
ENDCHAR
STARTCHAR uni251B
ENCODING 9499
SWIDTH 600 0
DWIDTH 6 0
BBX 5 9 -1 2
BITMAP
0140
0280
0280
0280
0280
0280
0280
7F80
7F80
ENDCHAR
STARTCHAR uni251C
ENCODING 9500
SWIDTH 600 0
DWIDTH 6 0
BBX 5 15 2 -4
BITMAP
5000
5000
5000
5000
5000
5000
5000
7F40
5000
5000
5000
5000
5000
5000
5000
ENDCHAR
STARTCHAR uni251D
ENCODING 9501
SWIDTH 600 0
DWIDTH 6 0
BBX 5 14 2 -4
BITMAP
5000
5000
5000
5000
5000
5000
7F40
7F40
5000
5000
5000
5000
5000
5000
ENDCHAR
STARTCHAR uni251E
ENCODING 9502
SWIDTH 600 0
DWIDTH 6 0
BBX 5 15 2 -4
BITMAP
5000
A000
A000
A000
A000
A000
A000
BF40
5000
5000
5000
5000
5000
5000
5000
ENDCHAR
STARTCHAR uni251F
ENCODING 9503
SWIDTH 600 0
DWIDTH 6 0
BBX 5 15 2 -4
BITMAP
5000
5000
5000
5000
5000
5000
5000
BF40
A000
A000
A000
A000
A000
A000
5000
ENDCHAR
STARTCHAR uni2520
ENCODING 9504
SWIDTH 600 0
DWIDTH 6 0
BBX 5 15 2 -4
BITMAP
5000
A000
A000
A000
A000
A000
A000
BF40
A000
A000
A000
A000
A000
A000
5000
ENDCHAR
STARTCHAR uni2521
ENCODING 9505
SWIDTH 600 0
DWIDTH 6 0
BBX 5 15 2 -4
BITMAP
5000
A000
A000
A000
A000
A000
A000
BF40
BF40
5000
5000
5000
5000
5000
5000
ENDCHAR
STARTCHAR uni2522
ENCODING 9506
SWIDTH 600 0
DWIDTH 6 0
BBX 5 15 2 -5
BITMAP
5000
5000
5000
5000
5000
5000
BF40
BF40
A000
A000
A000
A000
A000
A000
5000
ENDCHAR
STARTCHAR uni2523
ENCODING 9507
SWIDTH 600 0
DWIDTH 6 0
BBX 5 16 2 -5
BITMAP
5000
A000
A000
A000
A000
A000
A000
BF40
BF40
A000
A000
A000
A000
A000
A000
5000
ENDCHAR
STARTCHAR uni2524
ENCODING 9508
SWIDTH 600 0
DWIDTH 6 0
BBX 5 15 -1 -4
BITMAP
0140
0140
0140
0140
0140
0140
0140
7F40
0140
0140
0140
0140
0140
0140
0140
ENDCHAR
STARTCHAR uni2525
ENCODING 9509
SWIDTH 600 0
DWIDTH 6 0
BBX 5 14 -1 -4
BITMAP
0140
0140
0140
0140
0140
0140
7F40
7F40
0140
0140
0140
0140
0140
0140
ENDCHAR
STARTCHAR uni2526
ENCODING 9510
SWIDTH 600 0
DWIDTH 6 0
BBX 5 15 -1 -4
BITMAP
0140
0280
0280
0280
0280
0280
0280
7F80
0140
0140
0140
0140
0140
0140
0140
ENDCHAR
STARTCHAR uni2527
ENCODING 9511
SWIDTH 600 0
DWIDTH 6 0
BBX 5 15 -1 -4
BITMAP
0140
0140
0140
0140
0140
0140
0140
7F80
0280
0280
0280
0280
0280
0280
0140
ENDCHAR
STARTCHAR uni2528
ENCODING 9512
SWIDTH 600 0
DWIDTH 6 0
BBX 5 15 -1 -4
BITMAP
0140
0280
0280
0280
0280
0280
0280
7F80
0280
0280
0280
0280
0280
0280
0140
ENDCHAR
STARTCHAR uni2529
ENCODING 9513
SWIDTH 600 0
DWIDTH 6 0
BBX 5 15 -1 -4
BITMAP
0140
0280
0280
0280
0280
0280
0280
7F80
7F80
0140
0140
0140
0140
0140
0140
ENDCHAR
STARTCHAR uni252A
ENCODING 9514
SWIDTH 600 0
DWIDTH 6 0
BBX 5 15 -1 -5
BITMAP
0140
0140
0140
0140
0140
0140
7F80
7F80
0280
0280
0280
0280
0280
0280
0140
ENDCHAR
STARTCHAR uni252B
ENCODING 9515
SWIDTH 600 0
DWIDTH 6 0
BBX 5 16 -1 -5
BITMAP
0140
0280
0280
0280
0280
0280
0280
7F80
7F80
0280
0280
0280
0280
0280
0280
0140
ENDCHAR
STARTCHAR uni252C
ENCODING 9516
SWIDTH 600 0
DWIDTH 6 0
BBX 8 8 -1 -4
BITMAP
7FFD
0140
0140
0140
0140
0140
0140
0140
ENDCHAR
STARTCHAR uni252D
ENCODING 9517
SWIDTH 600 0
DWIDTH 6 0
BBX 8 8 -1 -4
BITMAP
7FFD
7F40
0140
0140
0140
0140
0140
0140
ENDCHAR
STARTCHAR uni252E
ENCODING 9518
SWIDTH 600 0
DWIDTH 6 0
BBX 8 8 -1 -4
BITMAP
7FFD
01FD
0140
0140
0140
0140
0140
0140
ENDCHAR
STARTCHAR uni252F
ENCODING 9519
SWIDTH 600 0
DWIDTH 6 0
BBX 8 8 -1 -4
BITMAP
7FFD
7FFD
0140
0140
0140
0140
0140
0140
ENDCHAR
STARTCHAR uni2530
ENCODING 9520
SWIDTH 600 0
DWIDTH 6 0
BBX 8 8 -1 -4
BITMAP
7FFD
0280
0280
0280
0280
0280
0280
0140
ENDCHAR
STARTCHAR uni2531
ENCODING 9521
SWIDTH 600 0
DWIDTH 6 0
BBX 8 9 -1 -5
BITMAP
7FFD
7F80
0280
0280
0280
0280
0280
0280
0140
ENDCHAR
STARTCHAR uni2532
ENCODING 9522
SWIDTH 600 0
DWIDTH 6 0
BBX 8 9 -1 -5
BITMAP
7FFD
02FD
0280
0280
0280
0280
0280
0280
0140
ENDCHAR
STARTCHAR uni2533
ENCODING 9523
SWIDTH 600 0
DWIDTH 6 0
BBX 8 9 -1 -5
BITMAP
7FFD
7FFD
0280
0280
0280
0280
0280
0280
0140
ENDCHAR
STARTCHAR uni2534
ENCODING 9524
SWIDTH 600 0
DWIDTH 6 0
BBX 8 8 -1 3
BITMAP
0140
0140
0140
0140
0140
0140
0140
7FFD
ENDCHAR
STARTCHAR uni2535
ENCODING 9525
SWIDTH 600 0
DWIDTH 6 0
BBX 8 8 -1 2
BITMAP
0140
0140
0140
0140
0140
0140
7FFD
7F40
ENDCHAR
STARTCHAR uni2536
ENCODING 9526
SWIDTH 600 0
DWIDTH 6 0
BBX 8 8 -1 2
BITMAP
0140
0140
0140
0140
0140
0140
7FFD
01FD
ENDCHAR
STARTCHAR uni2537
ENCODING 9527
SWIDTH 600 0
DWIDTH 6 0
BBX 8 8 -1 2
BITMAP
0140
0140
0140
0140
0140
0140
7FFD
7FFD
ENDCHAR
STARTCHAR uni2538
ENCODING 9528
SWIDTH 600 0
DWIDTH 6 0
BBX 8 8 -1 3
BITMAP
0140
0280
0280
0280
0280
0280
0280
7FFD
ENDCHAR
STARTCHAR uni2539
ENCODING 9529
SWIDTH 600 0
DWIDTH 6 0
BBX 8 9 -1 2
BITMAP
0140
0280
0280
0280
0280
0280
0280
7FFD
7F80
ENDCHAR
STARTCHAR uni253A
ENCODING 9530
SWIDTH 600 0
DWIDTH 6 0
BBX 8 9 -1 2
BITMAP
0140
0280
0280
0280
0280
0280
0280
7FFD
02FD
ENDCHAR
STARTCHAR uni253B
ENCODING 9531
SWIDTH 600 0
DWIDTH 6 0
BBX 8 9 -1 2
BITMAP
0140
0280
0280
0280
0280
0280
0280
7FFD
7FFD
ENDCHAR
STARTCHAR uni253C
ENCODING 9532
SWIDTH 600 0
DWIDTH 6 0
BBX 8 15 -1 -4
BITMAP
0140
0140
0140
0140
0140
0140
0140
7FFD
0140
0140
0140
0140
0140
0140
0140
ENDCHAR
STARTCHAR uni253D
ENCODING 9533
SWIDTH 600 0
DWIDTH 6 0
BBX 8 14 -1 -4
BITMAP
0140
0140
0140
0140
0140
0140
7FFD
7F40
0140
0140
0140
0140
0140
0140
ENDCHAR
STARTCHAR uni253E
ENCODING 9534
SWIDTH 600 0
DWIDTH 6 0
BBX 8 14 -1 -4
BITMAP
0140
0140
0140
0140
0140
0140
7FFD
01FD
0140
0140
0140
0140
0140
0140
ENDCHAR
STARTCHAR uni253F
ENCODING 9535
SWIDTH 600 0
DWIDTH 6 0
BBX 8 14 -1 -4
BITMAP
0140
0140
0140
0140
0140
0140
7FFD
7FFD
0140
0140
0140
0140
0140
0140
ENDCHAR
STARTCHAR uni2540
ENCODING 9536
SWIDTH 600 0
DWIDTH 6 0
BBX 8 15 -1 -4
BITMAP
0140
0280
0280
0280
0280
0280
0280
7FFD
0140
0140
0140
0140
0140
0140
0140
ENDCHAR
STARTCHAR uni2541
ENCODING 9537
SWIDTH 600 0
DWIDTH 6 0
BBX 8 15 -1 -4
BITMAP
0140
0140
0140
0140
0140
0140
0140
7FFD
0280
0280
0280
0280
0280
0280
0140
ENDCHAR
STARTCHAR uni2542
ENCODING 9538
SWIDTH 600 0
DWIDTH 6 0
BBX 8 15 -1 -4
BITMAP
0140
0280
0280
0280
0280
0280
0280
7FFD
0280
0280
0280
0280
0280
0280
0140
ENDCHAR
STARTCHAR uni2543
ENCODING 9539
SWIDTH 600 0
DWIDTH 6 0
BBX 8 15 -1 -4
BITMAP
0140
0280
0280
0280
0280
0280
0280
7FFD
7F80
0140
0140
0140
0140
0140
0140
ENDCHAR
STARTCHAR uni2544
ENCODING 9540
SWIDTH 600 0
DWIDTH 6 0
BBX 8 15 -1 -4
BITMAP
0140
0280
0280
0280
0280
0280
0280
7FFD
02FD
0140
0140
0140
0140
0140
0140
ENDCHAR
STARTCHAR uni2545
ENCODING 9541
SWIDTH 600 0
DWIDTH 6 0
BBX 8 15 -1 -5
BITMAP
0140
0140
0140
0140
0140
0140
7FFD
7F80
0280
0280
0280
0280
0280
0280
0140
ENDCHAR
STARTCHAR uni2546
ENCODING 9542
SWIDTH 600 0
DWIDTH 6 0
BBX 8 15 -1 -5
BITMAP
0140
0140
0140
0140
0140
0140
7FFD
02FD
0280
0280
0280
0280
0280
0280
0140
ENDCHAR
STARTCHAR uni2547
ENCODING 9543
SWIDTH 600 0
DWIDTH 6 0
BBX 8 15 -1 -4
BITMAP
0140
0280
0280
0280
0280
0280
0280
7FFD
7FFD
0140
0140
0140
0140
0140
0140
ENDCHAR
STARTCHAR uni2548
ENCODING 9544
SWIDTH 600 0
DWIDTH 6 0
BBX 8 15 -1 -5
BITMAP
0140
0140
0140
0140
0140
0140
7FFD
7FFD
0280
0280
0280
0280
0280
0280
0140
ENDCHAR
STARTCHAR uni2549
ENCODING 9545
SWIDTH 600 0
DWIDTH 6 0
BBX 8 16 -1 -5
BITMAP
0140
0280
0280
0280
0280
0280
0280
7FFD
7F80
0280
0280
0280
0280
0280
0280
0140
ENDCHAR
STARTCHAR uni254A
ENCODING 9546
SWIDTH 600 0
DWIDTH 6 0
BBX 8 16 -1 -5
BITMAP
0140
0280
0280
0280
0280
0280
0280
7FFD
02FD
0280
0280
0280
0280
0280
0280
0140
ENDCHAR
STARTCHAR uni254B
ENCODING 9547
SWIDTH 600 0
DWIDTH 6 0
BBX 8 16 -1 -5
BITMAP
0140
0280
0280
0280
0280
0280
0280
7FFD
7FFD
0280
0280
0280
0280
0280
0280
0140
ENDCHAR
STARTCHAR uni254C
ENCODING 9548
SWIDTH 600 0
DWIDTH 6 0
BBX 6 1 0 3
BITMAP
75D0
ENDCHAR
STARTCHAR uni254D
ENCODING 9549
SWIDTH 600 0
DWIDTH 6 0
BBX 6 2 0 2
BITMAP
75D0
75D0
ENDCHAR
STARTCHAR uni254E
ENCODING 9550
SWIDTH 600 0
DWIDTH 6 0
BBX 2 9 2 -2
BITMAP
50
50
50
00
00
00
50
50
50
ENDCHAR
STARTCHAR uni254F
ENCODING 9551
SWIDTH 600 0
DWIDTH 6 0
BBX 2 10 2 -2
BITMAP
A0
A0
A0
00
00
00
50
A0
A0
50
ENDCHAR
STARTCHAR uni2550
ENCODING 9552
SWIDTH 600 0
DWIDTH 6 0
BBX 8 2 -1 2
BITMAP
7FFD
7FFD
ENDCHAR
STARTCHAR uni2551
ENCODING 9553
SWIDTH 600 0
DWIDTH 6 0
BBX 4 14 1 -4
BITMAP
69
69
69
69
69
69
69
69
69
69
69
69
69
69
ENDCHAR
STARTCHAR uni2552
ENCODING 9554
SWIDTH 600 0
DWIDTH 6 0
BBX 5 8 2 -4
BITMAP
7F40
7F40
5000
5000
5000
5000
5000
5000
ENDCHAR
STARTCHAR uni2553
ENCODING 9555
SWIDTH 600 0
DWIDTH 6 0
BBX 6 8 1 -4
BITMAP
7FD0
6900
6900
6900
6900
6900
6900
1400
ENDCHAR
STARTCHAR uni2554
ENCODING 9556
SWIDTH 600 0
DWIDTH 6 0
BBX 6 9 1 -5
BITMAP
7FD0
6BD0
6900
6900
6900
6900
6900
6800
1000
ENDCHAR
STARTCHAR uni2555
ENCODING 9557
SWIDTH 600 0
DWIDTH 6 0
BBX 5 8 -1 -4
BITMAP
7F40
7F40
0140
0140
0140
0140
0140
0140
ENDCHAR
STARTCHAR uni2556
ENCODING 9558
SWIDTH 600 0
DWIDTH 6 0
BBX 6 8 -1 -4
BITMAP
7FD0
0690
0690
0690
0690
0690
0690
0140
ENDCHAR
STARTCHAR uni2557
ENCODING 9559
SWIDTH 600 0
DWIDTH 6 0
BBX 6 9 -1 -5
BITMAP
7FD0
7E90
0690
0690
0690
0690
0690
0290
0040
ENDCHAR
STARTCHAR uni2558
ENCODING 9560
SWIDTH 600 0
DWIDTH 6 0
BBX 5 8 2 2
BITMAP
5000
5000
5000
5000
5000
5000
7F40
7F40
ENDCHAR
STARTCHAR uni2559
ENCODING 9561
SWIDTH 600 0
DWIDTH 6 0
BBX 6 8 1 3
BITMAP
1400
6900
6900
6900
6900
6900
6900
7FD0
ENDCHAR
STARTCHAR uni255A
ENCODING 9562
SWIDTH 600 0
DWIDTH 6 0
BBX 6 9 1 2
BITMAP
1000
6800
6900
6900
6900
6900
6900
6BD0
7FD0
ENDCHAR
STARTCHAR uni255B
ENCODING 9563
SWIDTH 600 0
DWIDTH 6 0
BBX 5 8 -1 2
BITMAP
0140
0140
0140
0140
0140
0140
7F40
7F40
ENDCHAR
STARTCHAR uni255C
ENCODING 9564
SWIDTH 600 0
DWIDTH 6 0
BBX 6 8 -1 3
BITMAP
0140
0690
0690
0690
0690
0690
0690
7FD0
ENDCHAR
STARTCHAR uni255D
ENCODING 9565
SWIDTH 600 0
DWIDTH 6 0
BBX 6 9 -1 2
BITMAP
0040
0290
0690
0690
0690
0690
0690
7E90
7FD0
ENDCHAR
STARTCHAR uni255E
ENCODING 9566
SWIDTH 600 0
DWIDTH 6 0
BBX 5 14 2 -4
BITMAP
5000
5000
5000
5000
5000
5000
7F40
7F40
5000
5000
5000
5000
5000
5000
ENDCHAR
STARTCHAR uni255F
ENCODING 9567
SWIDTH 600 0
DWIDTH 6 0
BBX 6 15 1 -4
BITMAP
0400
6900
6900
6900
6900
6900
6900
6BD0
6900
6900
6900
6900
6900
6900
6400
ENDCHAR
STARTCHAR uni2560
ENCODING 9568
SWIDTH 600 0
DWIDTH 6 0
BBX 6 14 1 -4
BITMAP
6800
6900
6900
6900
6900
6900
6BD0
6BD0
6900
6900
6900
6900
6900
6800
ENDCHAR
STARTCHAR uni2561
ENCODING 9569
SWIDTH 600 0
DWIDTH 6 0
BBX 5 14 -1 -4
BITMAP
0140
0140
0140
0140
0140
0140
7F40
7F40
0140
0140
0140
0140
0140
0140
ENDCHAR
STARTCHAR uni2562
ENCODING 9570
SWIDTH 600 0
DWIDTH 6 0
BBX 6 15 -1 -4
BITMAP
0100
0690
0690
0690
0690
0690
0690
7E90
0690
0690
0690
0690
0690
0690
0190
ENDCHAR
STARTCHAR uni2563
ENCODING 9571
SWIDTH 600 0
DWIDTH 6 0
BBX 6 14 -1 -4
BITMAP
0290
0690
0690
0690
0690
0690
7E90
7E90
0690
0690
0690
0690
0690
0290
ENDCHAR
STARTCHAR uni2564
ENCODING 9572
SWIDTH 600 0
DWIDTH 6 0
BBX 8 8 -1 -4
BITMAP
7FFD
7FFD
0140
0140
0140
0140
0140
0140
ENDCHAR
STARTCHAR uni2565
ENCODING 9573
SWIDTH 600 0
DWIDTH 6 0
BBX 8 8 -1 -4
BITMAP
7FFD
0690
0690
0690
0690
0690
0690
0140
ENDCHAR
STARTCHAR uni2566
ENCODING 9574
SWIDTH 600 0
DWIDTH 6 0
BBX 8 8 -1 -4
BITMAP
7FFD
7EBD
0690
0690
0690
0690
0690
0280
ENDCHAR
STARTCHAR uni2567
ENCODING 9575
SWIDTH 600 0
DWIDTH 6 0
BBX 8 8 -1 2
BITMAP
0140
0140
0140
0140
0140
0140
7FFD
7FFD
ENDCHAR
STARTCHAR uni2568
ENCODING 9576
SWIDTH 600 0
DWIDTH 6 0
BBX 8 8 -1 3
BITMAP
0140
0690
0690
0690
0690
0690
0690
7FFD
ENDCHAR
STARTCHAR uni2569
ENCODING 9577
SWIDTH 600 0
DWIDTH 6 0
BBX 8 8 -1 2
BITMAP
0280
0690
0690
0690
0690
0690
7EBD
7FFD
ENDCHAR
STARTCHAR uni256A
ENCODING 9578
SWIDTH 600 0
DWIDTH 6 0
BBX 8 14 -1 -4
BITMAP
0140
0140
0140
0140
0140
0140
7FFD
7FFD
0140
0140
0140
0140
0140
0140
ENDCHAR
STARTCHAR uni256B
ENCODING 9579
SWIDTH 600 0
DWIDTH 6 0
BBX 8 15 -1 -4
BITMAP
0140
0690
0690
0690
0690
0690
0690
7FFD
0690
0690
0690
0690
0690
0690
0140
ENDCHAR
STARTCHAR uni256C
ENCODING 9580
SWIDTH 600 0
DWIDTH 6 0
BBX 8 14 -1 -4
BITMAP
0280
0690
0690
0690
0690
0690
7EBD
7EBD
0690
0690
0690
0690
0690
0280
ENDCHAR
STARTCHAR uni256D
ENCODING 9581
SWIDTH 600 0
DWIDTH 6 0
BBX 5 8 2 -4
BITMAP
0B40
2800
6000
5000
5000
5000
5000
5000
ENDCHAR
STARTCHAR uni256E
ENCODING 9582
SWIDTH 600 0
DWIDTH 6 0
BBX 5 8 -1 -4
BITMAP
7400
0A00
0240
0140
0140
0140
0140
0140
ENDCHAR
STARTCHAR uni256F
ENCODING 9583
SWIDTH 600 0
DWIDTH 6 0
BBX 5 8 -1 3
BITMAP
0140
0140
0140
0140
0140
0240
0A00
7800
ENDCHAR
STARTCHAR uni2570
ENCODING 9584
SWIDTH 600 0
DWIDTH 6 0
BBX 5 8 2 3
BITMAP
5000
5000
5000
5000
5000
6000
2800
0B40
ENDCHAR
STARTCHAR uni2571
ENCODING 9585
SWIDTH 600 0
DWIDTH 6 0
BBX 6 12 0 -3
BITMAP
0020
0060
0090
0180
0240
0600
0900
1800
2400
6000
9000
8000
ENDCHAR
STARTCHAR uni2572
ENCODING 9586
SWIDTH 600 0
DWIDTH 6 0
BBX 6 12 0 -3
BITMAP
8000
9000
6000
2400
1800
0900
0600
0240
0180
0090
0060
0020
ENDCHAR
STARTCHAR uni2573
ENCODING 9587
SWIDTH 600 0
DWIDTH 6 0
BBX 6 12 0 -3
BITMAP
8020
9060
6090
2580
1A40
0A00
0A00
1A40
2580
6090
9060
8020
ENDCHAR
STARTCHAR uni2574
ENCODING 9588
SWIDTH 600 0
DWIDTH 6 0
BBX 5 1 -1 3
BITMAP
7F40
ENDCHAR
STARTCHAR uni2575
ENCODING 9589
SWIDTH 600 0
DWIDTH 6 0
BBX 2 7 2 3
BITMAP
50
50
50
50
50
50
50
ENDCHAR
STARTCHAR uni2576
ENCODING 9590
SWIDTH 600 0
DWIDTH 6 0
BBX 5 1 2 3
BITMAP
7F40
ENDCHAR
STARTCHAR uni2577
ENCODING 9591
SWIDTH 600 0
DWIDTH 6 0
BBX 2 7 2 -4
BITMAP
50
50
50
50
50
50
50
ENDCHAR
STARTCHAR uni2578
ENCODING 9592
SWIDTH 600 0
DWIDTH 6 0
BBX 5 2 -1 2
BITMAP
7F40
7F40
ENDCHAR
STARTCHAR uni2579
ENCODING 9593
SWIDTH 600 0
DWIDTH 6 0
BBX 2 7 2 3
BITMAP
A0
A0
A0
A0
A0
A0
A0
ENDCHAR
STARTCHAR uni257A
ENCODING 9594
SWIDTH 600 0
DWIDTH 6 0
BBX 5 2 2 2
BITMAP
7F40
7F40
ENDCHAR
STARTCHAR uni257B
ENCODING 9595
SWIDTH 600 0
DWIDTH 6 0
BBX 2 7 2 -4
BITMAP
A0
A0
A0
A0
A0
A0
A0
ENDCHAR
STARTCHAR uni257C
ENCODING 9596
SWIDTH 600 0
DWIDTH 6 0
BBX 8 3 -1 2
BITMAP
0054
7FFD
0054
ENDCHAR
STARTCHAR uni257D
ENCODING 9597
SWIDTH 600 0
DWIDTH 6 0
BBX 2 14 2 -4
BITMAP
50
50
50
50
50
50
A0
A0
A0
A0
A0
A0
A0
A0
ENDCHAR
STARTCHAR uni257E
ENCODING 9598
SWIDTH 600 0
DWIDTH 6 0
BBX 8 3 -1 2
BITMAP
1500
7FFD
1500
ENDCHAR
STARTCHAR uni257F
ENCODING 9599
SWIDTH 600 0
DWIDTH 6 0
BBX 2 14 2 -4
BITMAP
A0
A0
A0
A0
A0
A0
A0
A0
50
50
50
50
50
50
ENDCHAR
STARTCHAR uni2580
ENCODING 9600
SWIDTH 600 0
DWIDTH 6 0
BBX 6 7 0 3
BITMAP
FFF0
FFF0
FFF0
FFF0
FFF0
FFF0
FFF0
ENDCHAR
STARTCHAR uni2581
ENCODING 9601
SWIDTH 600 0
DWIDTH 6 0
BBX 6 2 0 -4
BITMAP
FFF0
FFF0
ENDCHAR
STARTCHAR uni2582
ENCODING 9602
SWIDTH 600 0
DWIDTH 6 0
BBX 6 3 0 -4
BITMAP
FFF0
FFF0
FFF0
ENDCHAR
STARTCHAR uni2583
ENCODING 9603
SWIDTH 600 0
DWIDTH 6 0
BBX 6 5 0 -4
BITMAP
FFF0
FFF0
FFF0
FFF0
FFF0
ENDCHAR
STARTCHAR uni2584
ENCODING 9604
SWIDTH 600 0
DWIDTH 6 0
BBX 6 7 0 -4
BITMAP
FFF0
FFF0
FFF0
FFF0
FFF0
FFF0
FFF0
ENDCHAR
STARTCHAR uni2585
ENCODING 9605
SWIDTH 600 0
DWIDTH 6 0
BBX 6 9 0 -4
BITMAP
FFF0
FFF0
FFF0
FFF0
FFF0
FFF0
FFF0
FFF0
FFF0
ENDCHAR
STARTCHAR uni2586
ENCODING 9606
SWIDTH 600 0
DWIDTH 6 0
BBX 6 11 0 -4
BITMAP
FFF0
FFF0
FFF0
FFF0
FFF0
FFF0
FFF0
FFF0
FFF0
FFF0
FFF0
ENDCHAR
STARTCHAR uni2587
ENCODING 9607
SWIDTH 600 0
DWIDTH 6 0
BBX 6 12 0 -4
BITMAP
FFF0
FFF0
FFF0
FFF0
FFF0
FFF0
FFF0
FFF0
FFF0
FFF0
FFF0
FFF0
ENDCHAR
STARTCHAR uni2588
ENCODING 9608
SWIDTH 600 0
DWIDTH 6 0
BBX 6 14 0 -4
BITMAP
FFF0
FFF0
FFF0
FFF0
FFF0
FFF0
FFF0
FFF0
FFF0
FFF0
FFF0
FFF0
FFF0
FFF0
ENDCHAR
STARTCHAR uni2589
ENCODING 9609
SWIDTH 600 0
DWIDTH 6 0
BBX 6 14 0 -4
BITMAP
FFD0
FFD0
FFD0
FFD0
FFD0
FFD0
FFD0
FFD0
FFD0
FFD0
FFD0
FFD0
FFD0
FFD0
ENDCHAR
STARTCHAR uni258A
ENCODING 9610
SWIDTH 600 0
DWIDTH 6 0
BBX 5 14 0 -4
BITMAP
FF80
FF80
FF80
FF80
FF80
FF80
FF80
FF80
FF80
FF80
FF80
FF80
FF80
FF80
ENDCHAR
STARTCHAR uni258B
ENCODING 9611
SWIDTH 600 0
DWIDTH 6 0
BBX 4 14 0 -4
BITMAP
FE
FE
FE
FE
FE
FE
FE
FE
FE
FE
FE
FE
FE
FE
ENDCHAR
STARTCHAR uni258C
ENCODING 9612
SWIDTH 600 0
DWIDTH 6 0
BBX 3 14 0 -4
BITMAP
FC
FC
FC
FC
FC
FC
FC
FC
FC
FC
FC
FC
FC
FC
ENDCHAR
STARTCHAR uni258D
ENCODING 9613
SWIDTH 600 0
DWIDTH 6 0
BBX 3 14 0 -4
BITMAP
F4
F4
F4
F4
F4
F4
F4
F4
F4
F4
F4
F4
F4
F4
ENDCHAR
STARTCHAR uni258E
ENCODING 9614
SWIDTH 600 0
DWIDTH 6 0
BBX 2 14 0 -4
BITMAP
E0
E0
E0
E0
E0
E0
E0
E0
E0
E0
E0
E0
E0
E0
ENDCHAR
STARTCHAR uni258F
ENCODING 9615
SWIDTH 600 0
DWIDTH 6 0
BBX 1 14 0 -4
BITMAP
80
80
80
80
80
80
80
80
80
80
80
80
80
80
ENDCHAR
STARTCHAR uni2590
ENCODING 9616
SWIDTH 600 0
DWIDTH 6 0
BBX 3 14 3 -4
BITMAP
FC
FC
FC
FC
FC
FC
FC
FC
FC
FC
FC
FC
FC
FC
ENDCHAR
STARTCHAR uni2591
ENCODING 9617
SWIDTH 600 0
DWIDTH 6 0
BBX 6 13 0 -4
BITMAP
5550
0000
0000
0000
0000
0000
0000
0000
0000
0000
0000
0000
5540
ENDCHAR
STARTCHAR uni2592
ENCODING 9618
SWIDTH 600 0
DWIDTH 6 0
BBX 7 14 -1 -4
BITMAP
1554
0000
1554
1554
1554
1554
1554
1554
1554
1554
1554
1554
1554
5554
ENDCHAR
STARTCHAR uni2593
ENCODING 9619
SWIDTH 600 0
DWIDTH 6 0
BBX 7 15 -1 -5
BITMAP
2AA8
6AA4
6AA4
6AA4
6AA4
6AA4
6AA4
6AA4
6AA4
6AA4
6AA4
6AA4
6AA4
1554
5550
ENDCHAR
STARTCHAR uni2594
ENCODING 9620
SWIDTH 600 0
DWIDTH 6 0
BBX 6 2 0 8
BITMAP
FFF0
FFF0
ENDCHAR
STARTCHAR uni2595
ENCODING 9621
SWIDTH 600 0
DWIDTH 6 0
BBX 1 14 5 -4
BITMAP
80
80
80
80
80
80
80
80
80
80
80
80
80
80
ENDCHAR
STARTCHAR uni2596
ENCODING 9622
SWIDTH 600 0
DWIDTH 6 0
BBX 3 7 0 -4
BITMAP
FC
FC
FC
FC
FC
FC
FC
ENDCHAR
STARTCHAR uni2597
ENCODING 9623
SWIDTH 600 0
DWIDTH 6 0
BBX 3 7 3 -4
BITMAP
FC
FC
FC
FC
FC
FC
FC
ENDCHAR
STARTCHAR uni2598
ENCODING 9624
SWIDTH 600 0
DWIDTH 6 0
BBX 3 7 0 3
BITMAP
FC
FC
FC
FC
FC
FC
FC
ENDCHAR
STARTCHAR uni2599
ENCODING 9625
SWIDTH 600 0
DWIDTH 6 0
BBX 6 14 0 -4
BITMAP
FC00
FC00
FC00
FC00
FC00
FC00
FC00
FFF0
FFF0
FFF0
FFF0
FFF0
FFF0
FFF0
ENDCHAR
STARTCHAR uni259A
ENCODING 9626
SWIDTH 600 0
DWIDTH 6 0
BBX 6 14 0 -4
BITMAP
FC00
FC00
FC00
FC00
FC00
FC00
FC00
03F0
03F0
03F0
03F0
03F0
03F0
03F0
ENDCHAR
STARTCHAR uni259B
ENCODING 9627
SWIDTH 600 0
DWIDTH 6 0
BBX 6 14 0 -4
BITMAP
FFF0
FFF0
FFF0
FFF0
FFF0
FFF0
FFF0
FC00
FC00
FC00
FC00
FC00
FC00
FC00
ENDCHAR
STARTCHAR uni259C
ENCODING 9628
SWIDTH 600 0
DWIDTH 6 0
BBX 6 14 0 -4
BITMAP
FFF0
FFF0
FFF0
FFF0
FFF0
FFF0
FFF0
03F0
03F0
03F0
03F0
03F0
03F0
03F0
ENDCHAR
STARTCHAR uni259D
ENCODING 9629
SWIDTH 600 0
DWIDTH 6 0
BBX 3 7 3 3
BITMAP
FC
FC
FC
FC
FC
FC
FC
ENDCHAR
STARTCHAR uni259E
ENCODING 9630
SWIDTH 600 0
DWIDTH 6 0
BBX 6 14 0 -4
BITMAP
03F0
03F0
03F0
03F0
03F0
03F0
03F0
FC00
FC00
FC00
FC00
FC00
FC00
FC00
ENDCHAR
STARTCHAR uni259F
ENCODING 9631
SWIDTH 600 0
DWIDTH 6 0
BBX 6 14 0 -4
BITMAP
03F0
03F0
03F0
03F0
03F0
03F0
03F0
FFF0
FFF0
FFF0
FFF0
FFF0
FFF0
FFF0
ENDCHAR
STARTCHAR uni25A0
ENCODING 9632
SWIDTH 600 0
DWIDTH 6 0
BBX 4 4 1 1
BITMAP
FF
FF
FF
FF
ENDCHAR
STARTCHAR uni25A1
ENCODING 9633
SWIDTH 600 0
DWIDTH 6 0
BBX 6 5 0 1
BITMAP
7FD0
5050
5050
5050
7FD0
ENDCHAR
STARTCHAR uni25AA
ENCODING 9642
SWIDTH 600 0
DWIDTH 6 0
BBX 4 3 1 1
BITMAP
7D
7D
7D
ENDCHAR
STARTCHAR uni25AB
ENCODING 9643
SWIDTH 600 0
DWIDTH 6 0
BBX 4 3 1 1
BITMAP
7D
41
7D
ENDCHAR
STARTCHAR filledrect
ENCODING 9644
SWIDTH 600 0
DWIDTH 6 0
BBX 6 1 0 2
BITMAP
FFF0
ENDCHAR
STARTCHAR triagup
ENCODING 9650
SWIDTH 600 0
DWIDTH 6 0
BBX 4 5 1 1
BITMAP
14
28
7D
BE
FF
ENDCHAR
STARTCHAR uni25B3
ENCODING 9651
SWIDTH 600 0
DWIDTH 6 0
BBX 4 5 1 1
BITMAP
14
14
40
41
FF
ENDCHAR
STARTCHAR uni25B4
ENCODING 9652
SWIDTH 600 0
DWIDTH 6 0
BBX 4 3 1 1
BITMAP
14
28
7D
ENDCHAR
STARTCHAR uni25B5
ENCODING 9653
SWIDTH 600 0
DWIDTH 6 0
BBX 4 1 1 1
BITMAP
BE
ENDCHAR
STARTCHAR uni25B6
ENCODING 9654
SWIDTH 600 0
DWIDTH 6 0
BBX 6 5 0 1
BITMAP
6000
7E00
7FD0
7D00
5000
ENDCHAR
STARTCHAR uni25B7
ENCODING 9655
SWIDTH 600 0
DWIDTH 6 0
BBX 6 5 0 1
BITMAP
6000
5A00
4090
5500
5000
ENDCHAR
STARTCHAR uni25B8
ENCODING 9656
SWIDTH 600 0
DWIDTH 6 0
BBX 4 3 1 1
BITMAP
60
7D
60
ENDCHAR
STARTCHAR uni25B9
ENCODING 9657
SWIDTH 600 0
DWIDTH 6 0
BBX 4 4 1 1
BITMAP
50
49
49
50
ENDCHAR
STARTCHAR triagrt
ENCODING 9658
SWIDTH 600 0
DWIDTH 6 0
BBX 6 5 0 1
BITMAP
A000
BE40
BFE0
BD00
5000
ENDCHAR
STARTCHAR triagdn
ENCODING 9660
SWIDTH 600 0
DWIDTH 6 0
BBX 4 5 1 1
BITMAP
FF
BE
7D
28
14
ENDCHAR
STARTCHAR uni25BD
ENCODING 9661
SWIDTH 600 0
DWIDTH 6 0
BBX 4 4 1 2
BITMAP
FF
41
00
14
ENDCHAR
STARTCHAR uni25BE
ENCODING 9662
SWIDTH 600 0
DWIDTH 6 0
BBX 4 3 1 1
BITMAP
7D
28
14
ENDCHAR
STARTCHAR uni25BF
ENCODING 9663
SWIDTH 600 0
DWIDTH 6 0
BBX 4 3 1 1
BITMAP
BE
00
14
ENDCHAR
STARTCHAR uni25C0
ENCODING 9664
SWIDTH 600 0
DWIDTH 6 0
BBX 6 5 0 1
BITMAP
0090
0BD0
7FD0
07D0
0050
ENDCHAR
STARTCHAR uni25C1
ENCODING 9665
SWIDTH 600 0
DWIDTH 6 0
BBX 6 5 0 1
BITMAP
0090
0A50
6010
0550
0050
ENDCHAR
STARTCHAR uni25C2
ENCODING 9666
SWIDTH 600 0
DWIDTH 6 0
BBX 4 3 1 1
BITMAP
09
7D
09
ENDCHAR
STARTCHAR uni25C3
ENCODING 9667
SWIDTH 600 0
DWIDTH 6 0
BBX 4 4 1 1
BITMAP
05
61
61
05
ENDCHAR
STARTCHAR triaglf
ENCODING 9668
SWIDTH 600 0
DWIDTH 6 0
BBX 6 5 0 1
BITMAP
00A0
1BE0
BFE0
07E0
0050
ENDCHAR
STARTCHAR uni25C6
ENCODING 9670
SWIDTH 600 0
DWIDTH 6 0
BBX 6 5 0 1
BITMAP
0A00
2F80
7FD0
2F80
0A00
ENDCHAR
STARTCHAR uni25C9
ENCODING 9673
SWIDTH 600 0
DWIDTH 6 0
BBX 6 5 0 1
BITMAP
1F40
6F90
5F50
6A90
1F40
ENDCHAR
STARTCHAR lozenge
ENCODING 9674
SWIDTH 600 0
DWIDTH 6 0
BBX 4 7 1 0
BITMAP
28
28
96
82
96
28
28
ENDCHAR
STARTCHAR uni25CB
ENCODING 9675
SWIDTH 600 0
DWIDTH 6 0
BBX 6 5 0 1
BITMAP
1F40
2080
5050
2080
1F40
ENDCHAR
STARTCHAR uni25CC
ENCODING 9676
SWIDTH 600 0
DWIDTH 6 0
BBX 6 5 0 0
BITMAP
1540
1040
4010
1040
1540
ENDCHAR
STARTCHAR uni25CF
ENCODING 9679
SWIDTH 600 0
DWIDTH 6 0
BBX 6 5 0 1
BITMAP
1F40
3FC0
7FD0
3FC0
1F40
ENDCHAR
STARTCHAR invbullet
ENCODING 9688
SWIDTH 600 0
DWIDTH 6 0
BBX 4 4 1 1
BITMAP
7D
41
41
7D
ENDCHAR
STARTCHAR invcircle
ENCODING 9689
SWIDTH 600 0
DWIDTH 6 0
BBX 6 5 0 1
BITMAP
6090
5F50
2F80
6F90
6590
ENDCHAR
STARTCHAR uni25E6
ENCODING 9702
SWIDTH 600 0
DWIDTH 6 0
BBX 4 3 1 1
BITMAP
7D
96
7D
ENDCHAR
STARTCHAR uni2610
ENCODING 9744
SWIDTH 600 0
DWIDTH 6 0
BBX 8 7 -1 0
BITMAP
3FFD
5009
5009
5009
5009
5009
7FFC
ENDCHAR
STARTCHAR uni2611
ENCODING 9745
SWIDTH 600 0
DWIDTH 6 0
BBX 8 8 -1 0
BITMAP
0006
3FFD
501D
5429
5999
5289
5289
5558
ENDCHAR
STARTCHAR uni2615
ENCODING 9749
SWIDTH 600 0
DWIDTH 6 0
BBX 8 7 -1 0
BITMAP
1F80
2010
5F90
5FE1
1005
2478
0B90
ENDCHAR
STARTCHAR smileface
ENCODING 9786
SWIDTH 600 0
DWIDTH 6 0
BBX 6 6 0 0
BITMAP
2F80
6A90
8020
9060
6F90
2F80
ENDCHAR
STARTCHAR invsmileface
ENCODING 9787
SWIDTH 600 0
DWIDTH 6 0
BBX 6 5 0 1
BITMAP
2F80
7A90
A5A0
6F90
2F80
ENDCHAR
STARTCHAR sun
ENCODING 9788
SWIDTH 600 0
DWIDTH 6 0
BBX 6 6 0 0
BITMAP
5550
2F80
F0F0
2080
6B80
0500
ENDCHAR
STARTCHAR female
ENCODING 9792
SWIDTH 600 0
DWIDTH 6 0
BBX 6 7 0 0
BITMAP
1F40
6080
5050
6090
1F40
2F80
0500
ENDCHAR
STARTCHAR male
ENCODING 9794
SWIDTH 600 0
DWIDTH 6 0
BBX 6 6 0 0
BITMAP
02F0
6EA0
9250
8080
9140
6E00
ENDCHAR
STARTCHAR spade
ENCODING 9824
SWIDTH 600 0
DWIDTH 6 0
BBX 6 7 0 0
BITMAP
0A00
2F80
7FD0
FFF0
BAE0
0A00
3FC0
ENDCHAR
STARTCHAR club
ENCODING 9827
SWIDTH 600 0
DWIDTH 6 0
BBX 6 7 0 0
BITMAP
1F40
1F40
1F40
BFE0
BAE0
0A00
3FC0
ENDCHAR
STARTCHAR heart
ENCODING 9829
SWIDTH 600 0
DWIDTH 6 0
BBX 6 7 0 0
BITMAP
7AD0
FFF0
FFF0
BFE0
3FC0
1F40
0500
ENDCHAR
STARTCHAR diamond
ENCODING 9830
SWIDTH 600 0
DWIDTH 6 0
BBX 6 7 0 0
BITMAP
0500
1F40
7FD0
BFE0
7FD0
1F40
0500
ENDCHAR
STARTCHAR musicalnote
ENCODING 9834
SWIDTH 600 0
DWIDTH 6 0
BBX 5 7 1 0
BITMAP
0800
0A00
0940
0900
0800
B400
E000
ENDCHAR
STARTCHAR musicalnotedbl
ENCODING 9835
SWIDTH 600 0
DWIDTH 6 0
BBX 6 7 0 0
BITMAP
06B0
0FA0
0820
0820
09F0
BAD0
B400
ENDCHAR
STARTCHAR uni2713
ENCODING 10003
SWIDTH 600 0
DWIDTH 6 0
BBX 6 7 0 0
BITMAP
0060
0080
0240
4200
8800
2800
2400
ENDCHAR
STARTCHAR uni2752
ENCODING 10066
SWIDTH 600 0
DWIDTH 6 0
BBX 6 5 0 1
BITMAP
3FD0
4050
4050
4050
7FC0
ENDCHAR
STARTCHAR uni2764
ENCODING 10084
SWIDTH 600 0
DWIDTH 6 0
BBX 8 6 -1 1
BITMAP
7EBD
BFFE
BFFE
3FFC
0BE0
0140
ENDCHAR
STARTCHAR uni27E6
ENCODING 10214
SWIDTH 600 0
DWIDTH 6 0
BBX 3 9 2 -2
BITMAP
BC
90
90
90
90
90
90
90
FC
ENDCHAR
STARTCHAR uni27E7
ENCODING 10215
SWIDTH 600 0
DWIDTH 6 0
BBX 3 9 1 -2
BITMAP
F8
18
18
18
18
18
18
18
FC
ENDCHAR
STARTCHAR uni2E18
ENCODING 11800
SWIDTH 600 0
DWIDTH 6 0
BBX 4 7 1 -2
BITMAP
18
18
00
14
58
81
7D
ENDCHAR
STARTCHAR uni2E22
ENCODING 11810
SWIDTH 600 0
DWIDTH 6 0
BBX 3 5 2 2
BITMAP
BC
80
80
80
80
ENDCHAR
STARTCHAR uni2E23
ENCODING 11811
SWIDTH 600 0
DWIDTH 6 0
BBX 3 5 1 2
BITMAP
F8
08
08
08
04
ENDCHAR
STARTCHAR uni2E24
ENCODING 11812
SWIDTH 600 0
DWIDTH 6 0
BBX 3 5 2 -2
BITMAP
80
80
80
80
BC
ENDCHAR
STARTCHAR uni2E25
ENCODING 11813
SWIDTH 600 0
DWIDTH 6 0
BBX 3 5 1 -2
BITMAP
08
08
08
08
F8
ENDCHAR
STARTCHAR uniE0A0
ENCODING 57504
SWIDTH 600 0
DWIDTH 6 0
BBX 5 13 1 -3
BITMAP
8000
8100
8740
8740
8200
8200
8200
1900
6000
C000
8000
8000
8000
ENDCHAR
STARTCHAR uniE0A1
ENCODING 57505
SWIDTH 600 0
DWIDTH 6 0
BBX 6 11 0 -2
BITMAP
6000
6000
6000
6000
7E00
0000
0C90
0990
0A90
0990
08D0
ENDCHAR
STARTCHAR uniE0A2
ENCODING 57506
SWIDTH 600 0
DWIDTH 6 0
BBX 6 10 0 -1
BITMAP
1F40
2580
2080
2080
7FD0
B5E0
B5E0
BAE0
BAE0
7FD0
ENDCHAR
STARTCHAR uniE0B0
ENCODING 57520
SWIDTH 600 0
DWIDTH 6 0
BBX 6 13 0 -3
BITMAP
4000
D000
F400
FD00
FF40
FFC0
FFE0
FFC0
FF40
FD00
F400
D000
4000
ENDCHAR
STARTCHAR uniE0B1
ENCODING 57521
SWIDTH 600 0
DWIDTH 6 0
BBX 6 12 0 -2
BITMAP
8000
2000
1800
0600
0180
0060
0060
0180
0600
1800
2000
8000
ENDCHAR
STARTCHAR uniE0B2
ENCODING 57522
SWIDTH 600 0
DWIDTH 6 0
BBX 6 13 0 -3
BITMAP
0010
0070
01F0
07F0
1FF0
3FF0
BFF0
3FF0
1FF0
07F0
01F0
0070
0010
ENDCHAR
STARTCHAR uniE0B3
ENCODING 57523
SWIDTH 600 0
DWIDTH 6 0
BBX 6 12 0 -2
BITMAP
0020
0080
0240
0900
2400
9000
9000
2400
0900
0240
0080
0020
ENDCHAR
STARTCHAR f_i
ENCODING 64257
SWIDTH 600 0
DWIDTH 6 0
BBX 5 7 0 0
BITMAP
1DC0
2000
7C80
2080
2080
2080
2080
ENDCHAR
STARTCHAR f_l
ENCODING 64258
SWIDTH 600 0
DWIDTH 6 0
BBX 6 7 0 0
BITMAP
1D80
2080
7C80
2080
2080
2080
2090
ENDCHAR
STARTCHAR uniFE0E
ENCODING 65038
SWIDTH 600 0
DWIDTH 6 0
BBX 6 7 0 0
BITMAP
6A90
8020
A0A0
1540
1540
1540
0A00
ENDCHAR
STARTCHAR uniFE0F
ENCODING 65039
SWIDTH 600 0
DWIDTH 6 0
BBX 6 6 0 0
BITMAP
1540
2580
A5A0
D570
1040
1540
ENDCHAR
STARTCHAR uniFEFF
ENCODING 65279
SWIDTH 600 0
DWIDTH 6 0
BBX 1 1 0 0
BITMAP
00
ENDCHAR
STARTCHAR u1F3B5
ENCODING 127925
SWIDTH 600 0
DWIDTH 6 0
BBX 5 7 1 0
BITMAP
0800
0A00
0940
0900
0800
B400
E000
ENDCHAR
STARTCHAR u1F3B6
ENCODING 127926
SWIDTH 600 0
DWIDTH 6 0
BBX 6 7 0 0
BITMAP
06B0
0FA0
0820
0820
09F0
BAD0
B400
ENDCHAR
STARTCHAR u1F4A9
ENCODING 128169
SWIDTH 600 0
DWIDTH 6 0
BBX 6 7 0 0
BITMAP
0600
2F80
7FD0
6A90
7FD0
E0B0
BFE0
ENDCHAR
STARTCHAR u1F512
ENCODING 128274
SWIDTH 600 0
DWIDTH 6 0
BBX 6 10 0 -1
BITMAP
1F40
2580
2080
2080
7FD0
B5E0
B5E0
BAE0
BAE0
7FD0
ENDCHAR
STARTCHAR u1F916
ENCODING 129302
SWIDTH 600 0
DWIDTH 6 0
BBX 8 6 -1 0
BITMAP
0BE0
2BE8
6AA9
6BE9
2558
0BE0
ENDCHAR
STARTCHAR .notdef
ENCODING -1
SWIDTH 600 0
DWIDTH 6 0
BBX 6 7 0 0
BITMAP
7FD0
60D0
5A50
5A50
5A50
6090
7FD0
ENDCHAR
STARTCHAR uni00470303
ENCODING -1
SWIDTH 600 0
DWIDTH 6 0
BBX 6 9 0 0
BITMAP
0D80
1680
1B80
3440
6000
52D0
6050
3490
1B80
ENDCHAR
STARTCHAR uni004C00B7004C
ENCODING -1
SWIDTH 600 0
DWIDTH 6 0
BBX 6 7 0 0
BITMAP
5240
5240
6E40
6E40
5240
5240
7AE0
ENDCHAR
STARTCHAR uni01320301
ENCODING -1
SWIDTH 600 0
DWIDTH 6 0
BBX 5 11 1 -2
BITMAP
6140
8200
8200
8200
8200
8200
8200
8200
8200
0300
0D00
ENDCHAR
STARTCHAR uni00670303
ENCODING -1
SWIDTH 600 0
DWIDTH 6 0
BBX 6 10 0 -2
BITMAP
1D80
2240
0000
1FE0
3080
2A80
2500
2FD0
6060
2F80
ENDCHAR
STARTCHAR uni006C00B7006C
ENCODING -1
SWIDTH 600 0
DWIDTH 6 0
BBX 6 7 0 0
BITMAP
E3C0
2080
2A80
2A80
2080
2080
2CB0
ENDCHAR
STARTCHAR uni01330301
ENCODING -1
SWIDTH 600 0
DWIDTH 6 0
BBX 5 10 1 -2
BITMAP
5180
8200
0000
8200
8200
8200
8200
8200
0300
0E00
ENDCHAR
STARTCHAR uni014A.a
ENCODING -1
SWIDTH 600 0
DWIDTH 6 0
BBX 6 9 0 -2
BITMAP
7090
7490
6890
6590
6290
61D0
60D0
0080
0280
ENDCHAR
STARTCHAR a.a
ENCODING -1
SWIDTH 600 0
DWIDTH 6 0
BBX 5 5 0 0
BITMAP
1E80
61C0
5080
61C0
2E80
ENDCHAR
STARTCHAR agrave.a
ENCODING -1
SWIDTH 600 0
DWIDTH 6 0
BBX 5 8 0 0
BITMAP
0800
0500
0000
1E80
61C0
5080
61C0
2E80
ENDCHAR
STARTCHAR aacute.a
ENCODING -1
SWIDTH 600 0
DWIDTH 6 0
BBX 5 8 0 0
BITMAP
0200
0500
0000
1E80
61C0
5080
61C0
2E80
ENDCHAR
STARTCHAR acircumflex.a
ENCODING -1
SWIDTH 600 0
DWIDTH 6 0
BBX 5 8 0 0
BITMAP
0A00
1540
0000
1E80
61C0
5080
61C0
2E80
ENDCHAR
STARTCHAR atilde.a
ENCODING -1
SWIDTH 600 0
DWIDTH 6 0
BBX 5 8 0 0
BITMAP
1D80
2340
0000
1E80
61C0
5080
61C0
2E80
ENDCHAR
STARTCHAR adieresis.a
ENCODING -1
SWIDTH 600 0
DWIDTH 6 0
BBX 5 7 0 0
BITMAP
1540
0000
1E80
61C0
5080
61C0
2E80
ENDCHAR
STARTCHAR amacron.a
ENCODING -1
SWIDTH 600 0
DWIDTH 6 0
BBX 5 7 0 0
BITMAP
1F40
0000
1E80
61C0
5080
61C0
2E80
ENDCHAR
STARTCHAR abreve.a
ENCODING -1
SWIDTH 600 0
DWIDTH 6 0
BBX 5 7 0 0
BITMAP
1580
0B00
1E80
61C0
5080
61C0
2E80
ENDCHAR
STARTCHAR aring.a
ENCODING -1
SWIDTH 600 0
DWIDTH 6 0
BBX 5 8 0 0
BITMAP
0A00
0A00
0A00
1E80
61C0
5080
61C0
2E80
ENDCHAR
STARTCHAR aringacute.a
ENCODING -1
SWIDTH 600 0
DWIDTH 6 0
BBX 5 8 0 0
BITMAP
0100
0500
0B00
1E80
60C0
5080
61C0
2E80
ENDCHAR
STARTCHAR uni01CE.a
ENCODING -1
SWIDTH 600 0
DWIDTH 6 0
BBX 5 8 0 0
BITMAP
1540
0A00
0000
1E80
61C0
5080
61C0
2E80
ENDCHAR
STARTCHAR uni1EA1.a
ENCODING -1
SWIDTH 600 0
DWIDTH 6 0
BBX 5 7 0 -2
BITMAP
1E80
61C0
5080
61C0
2E80
0000
0600
ENDCHAR
STARTCHAR uni1EA3.a
ENCODING -1
SWIDTH 600 0
DWIDTH 6 0
BBX 5 8 0 0
BITMAP
0900
0200
0500
1E80
61C0
5080
61C0
2E80
ENDCHAR
STARTCHAR uni1EA5.a
ENCODING -1
SWIDTH 600 0
DWIDTH 6 0
BBX 5 8 0 0
BITMAP
0040
0A00
0000
1E80
61C0
5080
61C0
2E80
ENDCHAR
STARTCHAR uni1EA7.a
ENCODING -1
SWIDTH 600 0
DWIDTH 6 0
BBX 5 8 0 0
BITMAP
1000
0A00
0000
1E80
61C0
5080
61C0
2E80
ENDCHAR
STARTCHAR uni1EA9.a
ENCODING -1
SWIDTH 600 0
DWIDTH 6 0
BBX 5 9 0 0
BITMAP
0080
0080
0A80
0000
1E80
61C0
5080
61C0
2E80
ENDCHAR
STARTCHAR uni1EAB.a
ENCODING -1
SWIDTH 600 0
DWIDTH 6 0
BBX 5 9 0 0
BITMAP
0940
1700
0A00
0000
1E80
61C0
5080
61C0
2E80
ENDCHAR
STARTCHAR uni1EAD.a
ENCODING -1
SWIDTH 600 0
DWIDTH 6 0
BBX 5 10 0 -2
BITMAP
0A00
1540
0000
1E80
61C0
5080
61C0
2E80
0000
0600
ENDCHAR
STARTCHAR uni1EAF.a
ENCODING -1
SWIDTH 600 0
DWIDTH 6 0
BBX 5 9 0 0
BITMAP
0200
0500
1540
0B00
1E80
61C0
5080
61C0
2E80
ENDCHAR
STARTCHAR uni1EB1.a
ENCODING -1
SWIDTH 600 0
DWIDTH 6 0
BBX 5 9 0 0
BITMAP
0800
0500
1540
0B00
1E80
61C0
5080
61C0
2E80
ENDCHAR
STARTCHAR uni1EB3.a
ENCODING -1
SWIDTH 600 0
DWIDTH 6 0
BBX 5 10 0 0
BITMAP
0900
0200
0500
1540
0B00
1E80
61C0
5080
61C0
2E80
ENDCHAR
STARTCHAR uni1EB5.a
ENCODING -1
SWIDTH 600 0
DWIDTH 6 0
BBX 5 9 0 0
BITMAP
0940
1740
1540
0A00
1E80
61C0
5080
61C0
2E80
ENDCHAR
STARTCHAR uni1EB7.a
ENCODING -1
SWIDTH 600 0
DWIDTH 6 0
BBX 5 9 0 -2
BITMAP
1580
0B00
1E80
61C0
5080
61C0
2E80
0000
0600
ENDCHAR
STARTCHAR aogonek.a
ENCODING -1
SWIDTH 600 0
DWIDTH 6 0
BBX 6 7 0 -2
BITMAP
1E80
61C0
5080
61C0
2E80
0140
01D0
ENDCHAR
STARTCHAR g.a
ENCODING -1
SWIDTH 600 0
DWIDTH 6 0
BBX 5 7 0 -2
BITMAP
1E80
61C0
5080
61C0
2E80
10C0
2F40
ENDCHAR
STARTCHAR uni01F5.a
ENCODING -1
SWIDTH 600 0
DWIDTH 6 0
BBX 5 10 0 -2
BITMAP
0240
0500
0000
1E80
61C0
5080
61C0
2E80
10C0
2F40
ENDCHAR
STARTCHAR gcircumflex.a
ENCODING -1
SWIDTH 600 0
DWIDTH 6 0
BBX 5 10 0 -2
BITMAP
0A00
1540
0000
1E80
61C0
5080
61C0
2E80
10C0
2F40
ENDCHAR
STARTCHAR gbreve.a
ENCODING -1
SWIDTH 600 0
DWIDTH 6 0
BBX 5 9 0 -2
BITMAP
1580
0B00
1E80
61C0
5080
61C0
2E80
10C0
2F40
ENDCHAR
STARTCHAR gdotaccent.a
ENCODING -1
SWIDTH 600 0
DWIDTH 6 0
BBX 5 9 0 -2
BITMAP
0600
0000
1E80
61C0
5080
61C0
2E80
10C0
2F40
ENDCHAR
STARTCHAR uni0123.a
ENCODING -1
SWIDTH 600 0
DWIDTH 6 0
BBX 5 10 0 -2
BITMAP
0700
0900
0600
1E80
61C0
5080
61C0
2E80
10C0
2F40
ENDCHAR
STARTCHAR gcaron.a
ENCODING -1
SWIDTH 600 0
DWIDTH 6 0
BBX 5 10 0 -2
BITMAP
1540
0A00
0000
1E80
61C0
5080
61C0
2E80
10C0
2F40
ENDCHAR
STARTCHAR uni1E21.a
ENCODING -1
SWIDTH 600 0
DWIDTH 6 0
BBX 5 9 0 -2
BITMAP
1F40
0000
1E80
61C0
5080
61C0
2E80
10C0
2F40
ENDCHAR
STARTCHAR uni00670303.a
ENCODING -1
SWIDTH 600 0
DWIDTH 6 0
BBX 5 10 0 -2
BITMAP
1D80
2240
0000
1E80
61C0
5080
61C0
2E80
10C0
2F40
ENDCHAR
STARTCHAR i.a
ENCODING -1
SWIDTH 600 0
DWIDTH 6 0
BBX 5 7 1 0
BITMAP
1800
0000
B800
0800
0800
0800
FF80
ENDCHAR
STARTCHAR dotlessi.a
ENCODING -1
SWIDTH 600 0
DWIDTH 6 0
BBX 5 5 1 0
BITMAP
B800
0800
0800
0800
FF80
ENDCHAR
STARTCHAR igrave.a
ENCODING -1
SWIDTH 600 0
DWIDTH 6 0
BBX 5 8 1 0
BITMAP
2000
1800
0000
B800
0800
0800
0800
FF80
ENDCHAR
STARTCHAR iacute.a
ENCODING -1
SWIDTH 600 0
DWIDTH 6 0
BBX 5 8 1 0
BITMAP
0500
0800
0000
B800
0800
0800
0800
FF80
ENDCHAR
STARTCHAR icircumflex.a
ENCODING -1
SWIDTH 600 0
DWIDTH 6 0
BBX 5 8 1 0
BITMAP
2800
1100
0000
B800
0800
0800
0800
FF80
ENDCHAR
STARTCHAR itilde.a
ENCODING -1
SWIDTH 600 0
DWIDTH 6 0
BBX 5 8 1 0
BITMAP
7600
4A00
0000
B800
0800
0800
0800
FF80
ENDCHAR
STARTCHAR idieresis.a
ENCODING -1
SWIDTH 600 0
DWIDTH 6 0
BBX 5 7 1 0
BITMAP
2600
0000
B800
0800
0800
0800
FF80
ENDCHAR
STARTCHAR imacron.a
ENCODING -1
SWIDTH 600 0
DWIDTH 6 0
BBX 5 7 1 0
BITMAP
3E00
0000
B800
0800
0800
0800
FF80
ENDCHAR
STARTCHAR uni01D0.a
ENCODING -1
SWIDTH 600 0
DWIDTH 6 0
BBX 5 8 1 0
BITMAP
1100
2800
0000
B800
0800
0800
0800
FF80
ENDCHAR
STARTCHAR iogonek.a
ENCODING -1
SWIDTH 600 0
DWIDTH 6 0
BBX 5 9 1 -2
BITMAP
1800
0000
B800
0800
0800
0800
FF80
1400
1D00
ENDCHAR
STARTCHAR uni1EC9.a
ENCODING -1
SWIDTH 600 0
DWIDTH 6 0
BBX 5 8 1 0
BITMAP
1800
0800
0800
B800
0800
0800
0800
FF80
ENDCHAR
STARTCHAR uni1ECB.a
ENCODING -1
SWIDTH 600 0
DWIDTH 6 0
BBX 5 9 1 -2
BITMAP
1800
0000
B800
0800
0800
0800
FF80
0000
1800
ENDCHAR
STARTCHAR uni012D.a
ENCODING -1
SWIDTH 600 0
DWIDTH 6 0
BBX 5 7 1 0
BITMAP
5200
2D00
B800
0800
0800
0800
FF80
ENDCHAR
STARTCHAR uni0268.a
ENCODING -1
SWIDTH 600 0
DWIDTH 6 0
BBX 5 7 1 0
BITMAP
1800
0000
B800
0800
BF40
0800
FF80
ENDCHAR
STARTCHAR iogonek.d
ENCODING -1
SWIDTH 600 0
DWIDTH 6 0
BBX 4 7 1 -2
BITMAP
FC
08
08
08
08
14
1D
ENDCHAR
STARTCHAR iogonek.da
ENCODING -1
SWIDTH 600 0
DWIDTH 6 0
BBX 5 7 1 -2
BITMAP
B800
0800
0800
0800
FF80
1400
1D00
ENDCHAR
STARTCHAR uni0268.d
ENCODING -1
SWIDTH 600 0
DWIDTH 6 0
BBX 5 5 1 0
BITMAP
FC00
0800
BF80
0800
0800
ENDCHAR
STARTCHAR uni0268.da
ENCODING -1
SWIDTH 600 0
DWIDTH 6 0
BBX 5 5 1 0
BITMAP
B800
0800
BF40
0800
FF80
ENDCHAR
STARTCHAR uni029D.d
ENCODING -1
SWIDTH 600 0
DWIDTH 6 0
BBX 5 8 0 -3
BITMAP
3F00
0200
0200
0200
3F00
5700
3E40
0080
ENDCHAR
STARTCHAR l.a
ENCODING -1
SWIDTH 600 0
DWIDTH 6 0
BBX 5 7 1 0
BITMAP
B800
0800
0800
0800
0800
0800
FF80
ENDCHAR
STARTCHAR lacute.a
ENCODING -1
SWIDTH 600 0
DWIDTH 6 0
BBX 5 10 1 0
BITMAP
0500
0800
0000
B800
0800
0800
0800
0800
0800
FF80
ENDCHAR
STARTCHAR lcaron.a
ENCODING -1
SWIDTH 600 0
DWIDTH 6 0
BBX 5 8 1 0
BITMAP
0140
B940
0900
0800
0800
0800
0800
FF80
ENDCHAR
STARTCHAR uni013C.a
ENCODING -1
SWIDTH 600 0
DWIDTH 6 0
BBX 5 10 1 -3
BITMAP
B800
0800
0800
0800
0800
0800
FF80
1800
0800
2800
ENDCHAR
STARTCHAR uni1E37.a
ENCODING -1
SWIDTH 600 0
DWIDTH 6 0
BBX 5 9 1 -2
BITMAP
B800
0800
0800
0800
0800
0800
FF80
0000
1800
ENDCHAR
STARTCHAR uni1E39.a
ENCODING -1
SWIDTH 600 0
DWIDTH 6 0
BBX 5 11 1 -2
BITMAP
3E00
0000
B800
0800
0800
0800
0800
0800
FF80
0000
1800
ENDCHAR
STARTCHAR uni1E3B.a
ENCODING -1
SWIDTH 600 0
DWIDTH 6 0
BBX 5 9 1 -2
BITMAP
B800
0800
0800
0800
0800
0800
FF80
0000
3E00
ENDCHAR
STARTCHAR lslash.a
ENCODING -1
SWIDTH 600 0
DWIDTH 6 0
BBX 5 7 1 0
BITMAP
B800
0800
0E40
2800
0800
0800
FF80
ENDCHAR
STARTCHAR ldot.a
ENCODING -1
SWIDTH 600 0
DWIDTH 6 0
BBX 7 7 0 0
BITMAP
7D00
0900
0900
0924
0900
0900
BFC0
ENDCHAR
STARTCHAR uni006C00B7006C.a
ENCODING -1
SWIDTH 600 0
DWIDTH 6 0
BBX 6 7 0 0
BITMAP
F3C0
2080
2080
2580
2080
2080
FFF0
ENDCHAR
STARTCHAR uni026B.a
ENCODING -1
SWIDTH 600 0
DWIDTH 6 0
BBX 5 7 1 0
BITMAP
B800
1800
7D40
4F00
0800
0800
FF80
ENDCHAR
STARTCHAR uni026C.a
ENCODING -1
SWIDTH 600 0
DWIDTH 6 0
BBX 5 7 1 0
BITMAP
B800
0800
7800
7F40
0800
0800
FF80
ENDCHAR
STARTCHAR phi.a
ENCODING -1
SWIDTH 600 0
DWIDTH 6 0
BBX 6 7 0 -2
BITMAP
22C0
5660
9560
6590
2F80
0500
0500
ENDCHAR
STARTCHAR anoteleia.cap
ENCODING -1
SWIDTH 600 0
DWIDTH 6 0
BBX 2 2 2 5
BITMAP
A0
A0
ENDCHAR
STARTCHAR uni0430.a
ENCODING -1
SWIDTH 600 0
DWIDTH 6 0
BBX 5 5 0 0
BITMAP
1E80
61C0
5080
61C0
2E80
ENDCHAR
STARTCHAR uni04D1.a
ENCODING -1
SWIDTH 600 0
DWIDTH 6 0
BBX 5 7 0 0
BITMAP
1580
0F00
1E80
61C0
5080
61C0
2E80
ENDCHAR
STARTCHAR uni0431.srb
ENCODING -1
SWIDTH 600 0
DWIDTH 6 0
BBX 4 7 1 0
BITMAP
2B
A5
24
56
82
C3
7D
ENDCHAR
STARTCHAR uni0456.a
ENCODING -1
SWIDTH 600 0
DWIDTH 6 0
BBX 5 7 1 0
BITMAP
1800
0000
B800
0800
0800
0800
FF80
ENDCHAR
STARTCHAR zero.a
ENCODING -1
SWIDTH 600 0
DWIDTH 6 0
BBX 6 6 0 0
BITMAP
1F40
34C0
6890
6290
31C0
1F40
ENDCHAR
STARTCHAR one.a
ENCODING -1
SWIDTH 600 0
DWIDTH 6 0
BBX 5 6 1 0
BITMAP
2800
5800
1800
1800
1800
FF40
ENDCHAR
STARTCHAR zero.onum
ENCODING -1
SWIDTH 600 0
DWIDTH 6 0
BBX 6 6 0 0
BITMAP
1F40
35C0
6590
6090
3080
1F40
ENDCHAR
STARTCHAR one.onum
ENCODING -1
SWIDTH 600 0
DWIDTH 6 0
BBX 5 6 1 0
BITMAP
6800
1800
1800
1800
1800
FF40
ENDCHAR
STARTCHAR two.onum
ENCODING -1
SWIDTH 600 0
DWIDTH 6 0
BBX 6 6 0 0
BITMAP
1F40
1180
0080
0200
1800
7FD0
ENDCHAR
STARTCHAR three.onum
ENCODING -1
SWIDTH 600 0
DWIDTH 6 0
BBX 5 7 0 -1
BITMAP
1F40
11C0
0180
0F00
0180
50C0
2F40
ENDCHAR
STARTCHAR four.onum
ENCODING -1
SWIDTH 600 0
DWIDTH 6 0
BBX 6 7 0 -1
BITMAP
0240
0A40
1540
2140
BFD0
0140
0140
ENDCHAR
STARTCHAR five.onum
ENCODING -1
SWIDTH 600 0
DWIDTH 6 0
BBX 6 7 0 -1
BITMAP
2FC0
2000
2B40
10C0
0090
51C0
2F40
ENDCHAR
STARTCHAR six.onum
ENCODING -1
SWIDTH 600 0
DWIDTH 6 0
BBX 6 6 0 0
BITMAP
1B80
2440
2B80
7490
2090
1F80
ENDCHAR
STARTCHAR seven.onum
ENCODING -1
SWIDTH 600 0
DWIDTH 6 0
BBX 6 7 0 -1
BITMAP
7FD0
0080
0240
0200
0500
0900
0800
ENDCHAR
STARTCHAR eight.onum
ENCODING -1
SWIDTH 600 0
DWIDTH 6 0
BBX 6 6 0 0
BITMAP
2F40
24C0
2F80
6180
6090
2F80
ENDCHAR
STARTCHAR nine.onum
ENCODING -1
SWIDTH 600 0
DWIDTH 6 0
BBX 6 7 0 -1
BITMAP
2E40
6080
6080
2F90
0080
1180
2E00
ENDCHAR
STARTCHAR zero.b
ENCODING -1
SWIDTH 600 0
DWIDTH 6 0
BBX 6 6 0 0
BITMAP
1F40
34C0
6890
6290
31C0
1F40
ENDCHAR
STARTCHAR one.b
ENCODING -1
SWIDTH 600 0
DWIDTH 6 0
BBX 5 6 1 0
BITMAP
2800
5800
1800
1800
1800
FF40
ENDCHAR
STARTCHAR zero.cap
ENCODING -1
SWIDTH 600 0
DWIDTH 6 0
BBX 6 7 0 0
BITMAP
1F40
35C0
6090
6A90
6090
3580
1F40
ENDCHAR
STARTCHAR one.cap
ENCODING -1
SWIDTH 600 0
DWIDTH 6 0
BBX 5 7 1 0
BITMAP
6800
1800
1800
1800
1800
1800
FF40
ENDCHAR
STARTCHAR two.cap
ENCODING -1
SWIDTH 600 0
DWIDTH 6 0
BBX 6 7 0 0
BITMAP
1F40
1180
0080
0140
0500
1800
7FD0
ENDCHAR
STARTCHAR three.cap
ENCODING -1
SWIDTH 600 0
DWIDTH 6 0
BBX 5 7 0 0
BITMAP
1F40
11C0
0180
0F00
0180
50C0
2F40
ENDCHAR
STARTCHAR four.cap
ENCODING -1
SWIDTH 600 0
DWIDTH 6 0
BBX 6 7 0 0
BITMAP
0240
0A40
1540
6140
BFD0
0140
0140
ENDCHAR
STARTCHAR five.cap
ENCODING -1
SWIDTH 600 0
DWIDTH 6 0
BBX 6 7 0 0
BITMAP
2FC0
2000
2A40
15C0
0090
51C0
2F40
ENDCHAR
STARTCHAR six.cap
ENCODING -1
SWIDTH 600 0
DWIDTH 6 0
BBX 6 7 0 0
BITMAP
0B80
2440
2000
6B80
2090
2090
1F80
ENDCHAR
STARTCHAR seven.cap
ENCODING -1
SWIDTH 600 0
DWIDTH 6 0
BBX 6 7 0 0
BITMAP
7FD0
0080
0200
0200
0500
0900
0800
ENDCHAR
STARTCHAR eight.cap
ENCODING -1
SWIDTH 600 0
DWIDTH 6 0
BBX 6 7 0 0
BITMAP
1F40
2080
1A80
2B40
6090
6090
1F80
ENDCHAR
STARTCHAR nine.cap
ENCODING -1
SWIDTH 600 0
DWIDTH 6 0
BBX 6 7 0 0
BITMAP
2E40
6080
6080
2E90
0080
1180
2E00
ENDCHAR
STARTCHAR zero.c
ENCODING -1
SWIDTH 600 0
DWIDTH 6 0
BBX 6 7 0 0
BITMAP
1F40
35C0
6890
6590
6290
35C0
1F40
ENDCHAR
STARTCHAR one.c
ENCODING -1
SWIDTH 600 0
DWIDTH 6 0
BBX 5 7 1 0
BITMAP
2800
5800
1800
1800
1800
1800
FF40
ENDCHAR
STARTCHAR at.case
ENCODING -1
SWIDTH 600 0
DWIDTH 6 0
BBX 6 7 0 0
BITMAP
1B80
2450
52D0
4950
5890
2B90
1B80
ENDCHAR
STARTCHAR asterisk.a
ENCODING -1
SWIDTH 600 0
DWIDTH 6 0
BBX 4 4 1 3
BITMAP
14
BD
28
69
ENDCHAR
STARTCHAR hyphen.a
ENCODING -1
SWIDTH 600 0
DWIDTH 6 0
BBX 4 1 1 2
BITMAP
BE
ENDCHAR
STARTCHAR uni00AD.a
ENCODING -1
SWIDTH 600 0
DWIDTH 6 0
BBX 4 1 1 2
BITMAP
BE
ENDCHAR
STARTCHAR uni2010.a
ENCODING -1
SWIDTH 600 0
DWIDTH 6 0
BBX 4 1 1 2
BITMAP
BE
ENDCHAR
STARTCHAR dollar.a
ENCODING -1
SWIDTH 600 0
DWIDTH 6 0
BBX 4 8 1 -1
BITMAP
08
7D
99
6D
17
62
7D
20
ENDCHAR
STARTCHAR period.sups
ENCODING -1
SWIDTH 600 0
DWIDTH 6 0
BBX 2 1 2 4
BITMAP
50
ENDCHAR
STARTCHAR comma.sups
ENCODING -1
SWIDTH 600 0
DWIDTH 6 0
BBX 2 3 2 2
BITMAP
50
20
40
ENDCHAR
STARTCHAR period.subs
ENCODING -1
SWIDTH 600 0
DWIDTH 6 0
BBX 2 1 2 -2
BITMAP
50
ENDCHAR
STARTCHAR comma.subs
ENCODING -1
SWIDTH 600 0
DWIDTH 6 0
BBX 2 3 2 -4
BITMAP
50
20
40
ENDCHAR
STARTCHAR zero.dnom
ENCODING -1
SWIDTH 600 0
DWIDTH 6 0
BBX 4 3 1 0
BITMAP
3C
55
3C
ENDCHAR
STARTCHAR one.dnom
ENCODING -1
SWIDTH 600 0
DWIDTH 6 0
BBX 2 3 2 0
BITMAP
A0
20
20
ENDCHAR
STARTCHAR two.dnom
ENCODING -1
SWIDTH 600 0
DWIDTH 6 0
BBX 3 3 2 0
BITMAP
A0
50
F4
ENDCHAR
STARTCHAR three.dnom
ENCODING -1
SWIDTH 600 0
DWIDTH 6 0
BBX 2 3 2 0
BITMAP
B0
B0
B0
ENDCHAR
STARTCHAR four.dnom
ENCODING -1
SWIDTH 600 0
DWIDTH 6 0
BBX 4 3 1 0
BITMAP
10
28
7D
ENDCHAR
STARTCHAR five.dnom
ENCODING -1
SWIDTH 600 0
DWIDTH 6 0
BBX 2 3 2 0
BITMAP
F0
F0
B0
ENDCHAR
STARTCHAR six.dnom
ENCODING -1
SWIDTH 600 0
DWIDTH 6 0
BBX 3 3 1 0
BITMAP
2C
7C
2C
ENDCHAR
STARTCHAR seven.dnom
ENCODING -1
SWIDTH 600 0
DWIDTH 6 0
BBX 4 3 1 0
BITMAP
7D
08
14
ENDCHAR
STARTCHAR eight.dnom
ENCODING -1
SWIDTH 600 0
DWIDTH 6 0
BBX 2 3 2 0
BITMAP
E0
A0
F0
ENDCHAR
STARTCHAR nine.dnom
ENCODING -1
SWIDTH 600 0
DWIDTH 6 0
BBX 3 3 2 0
BITMAP
E0
F4
E0
ENDCHAR
STARTCHAR parenleft.dnom
ENCODING -1
SWIDTH 600 0
DWIDTH 6 0
BBX 2 5 2 -1
BITMAP
20
50
80
50
20
ENDCHAR
STARTCHAR parenright.dnom
ENCODING -1
SWIDTH 600 0
DWIDTH 6 0
BBX 2 5 2 -1
BITMAP
80
50
20
50
80
ENDCHAR
STARTCHAR period.dnom
ENCODING -1
SWIDTH 600 0
DWIDTH 6 0
BBX 2 1 2 0
BITMAP
50
ENDCHAR
STARTCHAR comma.dnom
ENCODING -1
SWIDTH 600 0
DWIDTH 6 0
BBX 2 3 2 -2
BITMAP
50
20
40
ENDCHAR
STARTCHAR zero.numr
ENCODING -1
SWIDTH 600 0
DWIDTH 6 0
BBX 4 3 1 3
BITMAP
3C
55
3C
ENDCHAR
STARTCHAR one.numr
ENCODING -1
SWIDTH 600 0
DWIDTH 6 0
BBX 2 3 2 3
BITMAP
A0
20
20
ENDCHAR
STARTCHAR two.numr
ENCODING -1
SWIDTH 600 0
DWIDTH 6 0
BBX 3 3 2 3
BITMAP
A0
50
F4
ENDCHAR
STARTCHAR three.numr
ENCODING -1
SWIDTH 600 0
DWIDTH 6 0
BBX 2 3 2 3
BITMAP
B0
B0
B0
ENDCHAR
STARTCHAR four.numr
ENCODING -1
SWIDTH 600 0
DWIDTH 6 0
BBX 4 3 1 3
BITMAP
10
28
7D
ENDCHAR
STARTCHAR five.numr
ENCODING -1
SWIDTH 600 0
DWIDTH 6 0
BBX 2 3 2 3
BITMAP
F0
F0
B0
ENDCHAR
STARTCHAR six.numr
ENCODING -1
SWIDTH 600 0
DWIDTH 6 0
BBX 3 3 1 3
BITMAP
2C
7C
2C
ENDCHAR
STARTCHAR seven.numr
ENCODING -1
SWIDTH 600 0
DWIDTH 6 0
BBX 4 3 1 3
BITMAP
7D
08
14
ENDCHAR
STARTCHAR eight.numr
ENCODING -1
SWIDTH 600 0
DWIDTH 6 0
BBX 2 3 2 3
BITMAP
E0
A0
F0
ENDCHAR
STARTCHAR nine.numr
ENCODING -1
SWIDTH 600 0
DWIDTH 6 0
BBX 3 3 2 3
BITMAP
E0
F4
E0
ENDCHAR
STARTCHAR parenleft.numr
ENCODING -1
SWIDTH 600 0
DWIDTH 6 0
BBX 2 5 2 2
BITMAP
20
50
80
50
20
ENDCHAR
STARTCHAR parenright.numr
ENCODING -1
SWIDTH 600 0
DWIDTH 6 0
BBX 2 5 2 2
BITMAP
80
50
20
50
80
ENDCHAR
STARTCHAR period.numr
ENCODING -1
SWIDTH 600 0
DWIDTH 6 0
BBX 2 1 2 3
BITMAP
50
ENDCHAR
STARTCHAR comma.numr
ENCODING -1
SWIDTH 600 0
DWIDTH 6 0
BBX 2 3 2 1
BITMAP
50
20
40
ENDCHAR
STARTCHAR ordfeminine.a
ENCODING -1
SWIDTH 600 0
DWIDTH 6 0
BBX 4 3 1 4
BITMAP
79
95
79
ENDCHAR
STARTCHAR q.sups
ENCODING -1
SWIDTH 600 0
DWIDTH 6 0
BBX 4 4 1 3
BITMAP
79
95
79
05
ENDCHAR
STARTCHAR egrave.sups
ENCODING -1
SWIDTH 600 0
DWIDTH 6 0
BBX 4 5 1 4
BITMAP
14
00
3D
7E
7D
ENDCHAR
STARTCHAR eacute.sups
ENCODING -1
SWIDTH 600 0
DWIDTH 6 0
BBX 4 5 1 4
BITMAP
08
00
3D
7E
7D
ENDCHAR
STARTCHAR a.supa
ENCODING -1
SWIDTH 600 0
DWIDTH 6 0
BBX 4 3 1 4
BITMAP
79
95
79
ENDCHAR
STARTCHAR g.supa
ENCODING -1
SWIDTH 600 0
DWIDTH 6 0
BBX 4 5 1 2
BITMAP
79
95
79
05
7C
ENDCHAR
STARTCHAR i.supa
ENCODING -1
SWIDTH 600 0
DWIDTH 6 0
BBX 4 5 1 4
BITMAP
08
00
38
08
7F
ENDCHAR
STARTCHAR colon.sups
ENCODING -1
SWIDTH 600 0
DWIDTH 6 0
BBX 2 3 2 4
BITMAP
50
00
50
ENDCHAR
STARTCHAR hyphen.sups
ENCODING -1
SWIDTH 600 0
DWIDTH 6 0
BBX 2 1 2 5
BITMAP
A0
ENDCHAR
STARTCHAR endash.sups
ENCODING -1
SWIDTH 600 0
DWIDTH 6 0
BBX 4 1 1 5
BITMAP
7D
ENDCHAR
STARTCHAR emdash.sups
ENCODING -1
SWIDTH 600 0
DWIDTH 6 0
BBX 6 1 0 5
BITMAP
7FD0
ENDCHAR
STARTCHAR slash.frac
ENCODING -1
SWIDTH 600 0
DWIDTH 6 0
BBX 6 6 0 0
BITMAP
0050
0080
0000
0000
2000
5000
ENDCHAR
STARTCHAR uni0300.cap
ENCODING -1
SWIDTH 600 0
DWIDTH 6 0
BBX 2 2 2 7
BITMAP
80
50
ENDCHAR
STARTCHAR uni0300.g
ENCODING -1
SWIDTH 600 0
DWIDTH 6 0
BBX 2 2 2 6
BITMAP
80
50
ENDCHAR
STARTCHAR uni0301.cap
ENCODING -1
SWIDTH 600 0
DWIDTH 6 0
BBX 2 2 2 7
BITMAP
20
50
ENDCHAR
STARTCHAR uni0301.g
ENCODING -1
SWIDTH 600 0
DWIDTH 6 0
BBX 2 2 2 6
BITMAP
20
50
ENDCHAR
STARTCHAR uni0302.cap
ENCODING -1
SWIDTH 600 0
DWIDTH 6 0
BBX 2 1 2 7
BITMAP
50
ENDCHAR
STARTCHAR uni0303.cap
ENCODING -1
SWIDTH 600 0
DWIDTH 6 0
BBX 4 2 1 7
BITMAP
76
9D
ENDCHAR
STARTCHAR uni0304.cap
ENCODING -1
SWIDTH 600 0
DWIDTH 6 0
BBX 4 1 1 7
BITMAP
7D
ENDCHAR
STARTCHAR uni0305.cap
ENCODING -1
SWIDTH 600 0
DWIDTH 6 0
BBX 4 1 1 7
BITMAP
7D
ENDCHAR
STARTCHAR uni0306.c
ENCODING -1
SWIDTH 600 0
DWIDTH 6 0
BBX 4 2 1 5
BITMAP
55
3C
ENDCHAR
STARTCHAR uni0306.cap
ENCODING -1
SWIDTH 600 0
DWIDTH 6 0
BBX 4 2 1 7
BITMAP
55
28
ENDCHAR
STARTCHAR uni0306.ccap
ENCODING -1
SWIDTH 600 0
DWIDTH 6 0
BBX 4 2 1 7
BITMAP
55
3C
ENDCHAR
STARTCHAR uni0307.cap
ENCODING -1
SWIDTH 600 0
DWIDTH 6 0
BBX 2 1 2 7
BITMAP
50
ENDCHAR
STARTCHAR uni0308.cap
ENCODING -1
SWIDTH 600 0
DWIDTH 6 0
BBX 4 1 1 7
BITMAP
55
ENDCHAR
STARTCHAR uni0309.cap
ENCODING -1
SWIDTH 600 0
DWIDTH 6 0
BBX 2 3 2 7
BITMAP
90
20
50
ENDCHAR
STARTCHAR uni030A.cap
ENCODING -1
SWIDTH 600 0
DWIDTH 6 0
BBX 2 3 2 7
BITMAP
A0
A0
A0
ENDCHAR
STARTCHAR uni030B.cap
ENCODING -1
SWIDTH 600 0
DWIDTH 6 0
BBX 3 2 2 7
BITMAP
48
94
ENDCHAR
STARTCHAR uni030C.cap
ENCODING -1
SWIDTH 600 0
DWIDTH 6 0
BBX 2 1 2 7
BITMAP
A0
ENDCHAR
STARTCHAR uni030C.a
ENCODING -1
SWIDTH 600 0
DWIDTH 6 0
BBX 2 3 2 5
BITMAP
50
50
50
ENDCHAR
STARTCHAR uni030F.cap
ENCODING -1
SWIDTH 600 0
DWIDTH 6 0
BBX 3 2 1 7
BITMAP
84
58
ENDCHAR
STARTCHAR uni0311.cap
ENCODING -1
SWIDTH 600 0
DWIDTH 6 0
BBX 4 2 1 7
BITMAP
28
55
ENDCHAR
STARTCHAR uni0312.g
ENCODING -1
SWIDTH 600 0
DWIDTH 6 0
BBX 2 3 2 5
BITMAP
60
80
50
ENDCHAR
STARTCHAR uni0313.g
ENCODING -1
SWIDTH 600 0
DWIDTH 6 0
BBX 2 3 2 5
BITMAP
90
20
50
ENDCHAR
STARTCHAR uni0326.a
ENCODING -1
SWIDTH 600 0
DWIDTH 6 0
BBX 2 3 2 5
BITMAP
60
80
50
ENDCHAR
STARTCHAR uni0327.cap
ENCODING -1
SWIDTH 600 0
DWIDTH 6 0
BBX 2 4 2 -4
BITMAP
50
A0
20
90
ENDCHAR
STARTCHAR uni0328.cap
ENCODING -1
SWIDTH 600 0
DWIDTH 6 0
BBX 2 2 2 -2
BITMAP
40
A0
ENDCHAR
STARTCHAR uni03080301
ENCODING -1
SWIDTH 600 0
DWIDTH 6 0
BBX 4 2 1 6
BITMAP
04
55
ENDCHAR
STARTCHAR uni03080301.cap
ENCODING -1
SWIDTH 600 0
DWIDTH 6 0
BBX 4 2 1 7
BITMAP
04
55
ENDCHAR
STARTCHAR uni03080301.g
ENCODING -1
SWIDTH 600 0
DWIDTH 6 0
BBX 4 2 1 6
BITMAP
08
55
ENDCHAR
STARTCHAR uni03080300
ENCODING -1
SWIDTH 600 0
DWIDTH 6 0
BBX 4 2 1 6
BITMAP
10
55
ENDCHAR
STARTCHAR uni03080300.cap
ENCODING -1
SWIDTH 600 0
DWIDTH 6 0
BBX 4 2 1 7
BITMAP
10
55
ENDCHAR
STARTCHAR uni03080300.g
ENCODING -1
SWIDTH 600 0
DWIDTH 6 0
BBX 4 2 1 6
BITMAP
20
55
ENDCHAR
STARTCHAR uni03080303
ENCODING -1
SWIDTH 600 0
DWIDTH 6 0
BBX 4 4 1 6
BITMAP
75
5D
00
55
ENDCHAR
STARTCHAR uni03080304
ENCODING -1
SWIDTH 600 0
DWIDTH 6 0
BBX 4 3 1 6
BITMAP
7D
00
55
ENDCHAR
STARTCHAR uni03080304.cap
ENCODING -1
SWIDTH 600 0
DWIDTH 6 0
BBX 4 3 1 7
BITMAP
7D
00
55
ENDCHAR
STARTCHAR uni0308030C
ENCODING -1
SWIDTH 600 0
DWIDTH 6 0
BBX 4 2 1 6
BITMAP
28
55
ENDCHAR
STARTCHAR uni0308030C.cap
ENCODING -1
SWIDTH 600 0
DWIDTH 6 0
BBX 4 3 1 7
BITMAP
28
00
55
ENDCHAR
STARTCHAR uni03020301
ENCODING -1
SWIDTH 600 0
DWIDTH 6 0
BBX 3 2 2 6
BITMAP
04
A0
ENDCHAR
STARTCHAR uni03020301.cap
ENCODING -1
SWIDTH 600 0
DWIDTH 6 0
BBX 3 2 2 7
BITMAP
04
A0
ENDCHAR
STARTCHAR uni03020300
ENCODING -1
SWIDTH 600 0
DWIDTH 6 0
BBX 3 2 1 6
BITMAP
40
28
ENDCHAR
STARTCHAR uni03020300.cap
ENCODING -1
SWIDTH 600 0
DWIDTH 6 0
BBX 3 2 1 7
BITMAP
40
28
ENDCHAR
STARTCHAR uni03020309
ENCODING -1
SWIDTH 600 0
DWIDTH 6 0
BBX 3 3 2 6
BITMAP
08
08
A8
ENDCHAR
STARTCHAR uni03020309.cap
ENCODING -1
SWIDTH 600 0
DWIDTH 6 0
BBX 3 3 2 7
BITMAP
18
08
A8
ENDCHAR
STARTCHAR uni03020303
ENCODING -1
SWIDTH 600 0
DWIDTH 6 0
BBX 4 3 1 6
BITMAP
25
5C
28
ENDCHAR
STARTCHAR uni03020303.cap
ENCODING -1
SWIDTH 600 0
DWIDTH 6 0
BBX 4 3 1 7
BITMAP
75
5D
28
ENDCHAR
STARTCHAR uni03060301
ENCODING -1
SWIDTH 600 0
DWIDTH 6 0
BBX 4 4 1 5
BITMAP
08
14
55
3C
ENDCHAR
STARTCHAR uni03060301.cap
ENCODING -1
SWIDTH 600 0
DWIDTH 6 0
BBX 4 3 1 7
BITMAP
04
55
28
ENDCHAR
STARTCHAR uni03060300
ENCODING -1
SWIDTH 600 0
DWIDTH 6 0
BBX 4 4 1 5
BITMAP
20
14
55
3C
ENDCHAR
STARTCHAR uni03060300.cap
ENCODING -1
SWIDTH 600 0
DWIDTH 6 0
BBX 4 3 1 7
BITMAP
10
55
28
ENDCHAR
STARTCHAR uni03060309
ENCODING -1
SWIDTH 600 0
DWIDTH 6 0
BBX 4 5 1 5
BITMAP
24
08
14
55
3C
ENDCHAR
STARTCHAR uni03060309.cap
ENCODING -1
SWIDTH 600 0
DWIDTH 6 0
BBX 4 5 1 7
BITMAP
24
08
14
55
28
ENDCHAR
STARTCHAR uni03060303
ENCODING -1
SWIDTH 600 0
DWIDTH 6 0
BBX 4 4 1 5
BITMAP
25
5C
55
28
ENDCHAR
STARTCHAR uni03060303.cap
ENCODING -1
SWIDTH 600 0
DWIDTH 6 0
BBX 4 3 1 7
BITMAP
75
AE
28
ENDCHAR
STARTCHAR uni03020306
ENCODING -1
SWIDTH 600 0
DWIDTH 6 0
BBX 2 3 2 6
BITMAP
50
50
50
ENDCHAR
STARTCHAR uni03020306.cap
ENCODING -1
SWIDTH 600 0
DWIDTH 6 0
BBX 2 4 2 6
BITMAP
A0
00
A0
50
ENDCHAR
STARTCHAR uni03040301
ENCODING -1
SWIDTH 600 0
DWIDTH 6 0
BBX 4 3 1 6
BITMAP
14
00
7D
ENDCHAR
STARTCHAR uni03040301.cap
ENCODING -1
SWIDTH 600 0
DWIDTH 6 0
BBX 4 3 1 7
BITMAP
04
00
7D
ENDCHAR
STARTCHAR uni03120301
ENCODING -1
SWIDTH 600 0
DWIDTH 6 0
BBX 3 3 1 5
BITMAP
68
58
58
ENDCHAR
STARTCHAR uni03120300
ENCODING -1
SWIDTH 600 0
DWIDTH 6 0
BBX 3 3 1 5
BITMAP
68
88
58
ENDCHAR
STARTCHAR uni03120303
ENCODING -1
SWIDTH 600 0
DWIDTH 6 0
BBX 4 4 1 5
BITMAP
25
6C
20
14
ENDCHAR
STARTCHAR uni03130301
ENCODING -1
SWIDTH 600 0
DWIDTH 6 0
BBX 4 3 1 5
BITMAP
99
28
58
ENDCHAR
STARTCHAR uni03130300
ENCODING -1
SWIDTH 600 0
DWIDTH 6 0
BBX 3 3 1 5
BITMAP
98
28
54
ENDCHAR
STARTCHAR uni03130303
ENCODING -1
SWIDTH 600 0
DWIDTH 6 0
BBX 4 4 1 5
BITMAP
25
7C
08
14
ENDCHAR
STARTCHAR space.frac
ENCODING -1
SWIDTH 600 0
DWIDTH 6 0
BBX 1 1 0 0
BITMAP
00
ENDCHAR
STARTCHAR nbspace.frac
ENCODING -1
SWIDTH 600 0
DWIDTH 6 0
BBX 1 1 0 0
BITMAP
00
ENDCHAR
STARTCHAR u1F3B5_uniFE0F
ENCODING -1
SWIDTH 600 0
DWIDTH 6 0
BBX 5 7 1 0
BITMAP
0800
0A00
0940
0900
0800
B400
E000
ENDCHAR
STARTCHAR u1F3B6_uniFE0F
ENCODING -1
SWIDTH 600 0
DWIDTH 6 0
BBX 6 7 0 0
BITMAP
06B0
0FA0
0820
0820
09F0
BAD0
B400
ENDCHAR
STARTCHAR uni2611_uniFE0F
ENCODING -1
SWIDTH 600 0
DWIDTH 6 0
BBX 8 8 -1 0
BITMAP
0006
3FFD
501D
5429
5999
5289
5289
5558
ENDCHAR
STARTCHAR uni2713_uniFE0F
ENCODING -1
SWIDTH 600 0
DWIDTH 6 0
BBX 6 7 0 0
BITMAP
0060
0080
0240
4200
8800
2800
2400
ENDCHAR
STARTCHAR uni2665_uniFE0F
ENCODING -1
SWIDTH 600 0
DWIDTH 6 0
BBX 6 7 0 0
BITMAP
7AD0
FFF0
FFF0
BFE0
3FC0
1F40
0500
ENDCHAR
STARTCHAR uni2663_uniFE0F
ENCODING -1
SWIDTH 600 0
DWIDTH 6 0
BBX 6 7 0 0
BITMAP
1F40
1F40
1F40
BFE0
BAE0
0A00
3FC0
ENDCHAR
STARTCHAR uni2666_uniFE0F
ENCODING -1
SWIDTH 600 0
DWIDTH 6 0
BBX 6 7 0 0
BITMAP
0500
1F40
7FD0
BFE0
7FD0
1F40
0500
ENDCHAR
STARTCHAR uni2660_uniFE0F
ENCODING -1
SWIDTH 600 0
DWIDTH 6 0
BBX 6 7 0 0
BITMAP
0A00
2F80
7FD0
FFF0
BAE0
0A00
3FC0
ENDCHAR
STARTCHAR uni263A_uniFE0F
ENCODING -1
SWIDTH 600 0
DWIDTH 6 0
BBX 6 6 0 0
BITMAP
2F80
6A90
8020
9060
6F90
2F80
ENDCHAR
STARTCHAR uni263B_uniFE0F
ENCODING -1
SWIDTH 600 0
DWIDTH 6 0
BBX 6 5 0 1
BITMAP
2F80
7A90
A5A0
6F90
2F80
ENDCHAR
STARTCHAR uni2764_uniFE0F
ENCODING -1
SWIDTH 600 0
DWIDTH 6 0
BBX 8 6 -1 1
BITMAP
7EBD
BFFE
BFFE
3FFC
0BE0
0140
ENDCHAR
STARTCHAR uni2615_uniFE0F
ENCODING -1
SWIDTH 600 0
DWIDTH 6 0
BBX 8 7 -1 0
BITMAP
1F80
2010
5F90
5FE1
1005
2478
0B90
ENDCHAR
STARTCHAR u1F4A9_uniFE0F
ENCODING -1
SWIDTH 600 0
DWIDTH 6 0
BBX 6 7 0 0
BITMAP
0600
2F80
7FD0
6A90
7FD0
E0B0
BFE0
ENDCHAR
STARTCHAR u1F916_uniFE0F
ENCODING -1
SWIDTH 600 0
DWIDTH 6 0
BBX 8 6 -1 0
BITMAP
0BE0
2BE8
6AA9
6BE9
2558
0BE0
ENDCHAR
STARTCHAR u1F512_uniFE0F
ENCODING -1
SWIDTH 600 0
DWIDTH 6 0
BBX 6 10 0 -1
BITMAP
1F40
2580
2080
2080
7FD0
B5E0
B5E0
BAE0
BAE0
7FD0
ENDCHAR
ENDFONT
